<!-- Generator: Adobe Illustrator 23.0.0, SVG Export Plug-In  -->
<svg version="1.1" xmlns="http://www.w3.org/2000/svg" xmlns:xlink="http://www.w3.org/1999/xlink" x="0px" y="0px" width="87.5px"
	 height="87.5px" viewBox="0 0 87.5 87.5" style="enable-background:new 0 0 87.5 87.5;" xml:space="preserve">
<style type="text/css">
	.st0{fill:#CCCCCC;}
</style>
<defs>
</defs>
<path class="st0" d="M1.56,87.5h3.12c0.41,0,0.81-0.16,1.11-0.46s0.46-0.69,0.46-1.11V2.36C6.25,1.06,5.2,0,3.89,0H2.33
	C1.04,0.02,0,1.07,0,2.36v83.58c0,0.41,0.16,0.81,0.46,1.11C0.75,87.34,1.15,87.5,1.56,87.5L1.56,87.5z"/>
<path class="st0" d="M31.25,25.94c-0.01-0.71,0.41-1.36,1.07-1.64c0.66-0.28,1.42-0.14,1.93,0.36c0.86,0.81,1.73,1.61,2.64,2.39
	c0.39,0.33,0.61,0.82,0.61,1.33V51c0,0.56-0.22,1.11-0.62,1.5c-0.4,0.4-0.94,0.62-1.5,0.62h-2c-1.17,0-2.12-0.95-2.12-2.12
	L31.25,25.94z M40.62,33.5c0-0.66,0.36-1.27,0.94-1.57c0.58-0.31,1.29-0.27,1.83,0.11c0.86,0.58,1.75,1.15,2.64,1.7
	c0.54,0.33,0.86,0.93,0.84,1.56V51c0,1.17-0.95,2.12-2.12,2.12h-2c-1.17,0-2.12-0.95-2.12-2.12L40.62,33.5z M50,38.92
	c0.01-0.61,0.32-1.17,0.84-1.48c0.52-0.32,1.16-0.35,1.7-0.08c0.86,0.43,1.75,0.84,2.64,1.23c0.62,0.27,1.04,0.88,1.06,1.56v10.94
	c-0.05,1.14-0.99,2.03-2.12,2.03h-2C50.95,53.13,50,52.17,50,51L50,38.92z M59.37,42.77c0-0.57,0.27-1.11,0.73-1.45
	c0.46-0.33,1.05-0.43,1.6-0.24c0.88,0.29,1.75,0.57,2.64,0.84c0.74,0.21,1.26,0.89,1.28,1.66V51c0,1.17-0.95,2.12-2.12,2.12h-2
	c-1.17,0-2.12-0.95-2.12-2.12L59.37,42.77z M68.75,45.31c-0.01-0.54,0.23-1.04,0.64-1.38c0.41-0.34,0.96-0.48,1.48-0.37l2.64,0.5
	c0.89,0.11,1.55,0.86,1.56,1.75v5.22c-0.01,0.57-0.25,1.12-0.66,1.51c-0.41,0.39-0.97,0.6-1.54,0.58h-2c-1.17,0-2.12-0.95-2.12-2.12
	L68.75,45.31z M78.12,46.67c0-0.5,0.21-0.98,0.59-1.31c0.37-0.34,0.87-0.5,1.37-0.45l2.59,0.2c0.95,0.04,1.7,0.82,1.7,1.77V51
	c0,1.17-0.95,2.12-2.12,2.12h-2c-1.17,0-2.12-0.95-2.12-2.12L78.12,46.67z M18.75,87.5h1.56c0.41,0,0.81-0.16,1.11-0.46
	c0.29-0.29,0.46-0.69,0.46-1.11V14.97c0.04-0.76,0.57-1.41,1.3-1.62c0.73-0.21,1.52,0.08,1.95,0.71c0.83,1.22,1.71,2.41,2.62,3.56
	c0.25,0.31,0.38,0.7,0.38,1.09v32.84c0,0.41-0.16,0.81-0.46,1.11c-0.29,0.29-0.69,0.46-1.11,0.46c-0.86,0-1.56,0.7-1.56,1.56v12.5
	c0,0.41,0.16,0.81,0.46,1.11c0.29,0.29,0.69,0.46,1.11,0.46h59.19c0.96,0,1.75-0.79,1.75-1.75V43.56c0-0.41-0.16-0.81-0.46-1.11
	C86.75,42.16,86.35,42,85.94,42C56.58,41.45,31.63,24.81,21.88,1.59C21.44,0.64,20.49,0.02,19.44,0h-1.56
	c-1.26,0.06-2.25,1.1-2.25,2.36v9.12c0,0.56-0.45,1.02-1.02,1.02h-4.06c-0.65,0-1.17,0.52-1.17,1.17v0.78
	c0,0.65,0.52,1.17,1.17,1.17h4.06c0.56,0,1.02,0.45,1.02,1.02v7.34c0,0.56-0.45,1.02-1.02,1.02h-4.06c-0.65,0-1.17,0.52-1.17,1.17
	v0.78c0,0.65,0.52,1.17,1.17,1.17h4.06c0.56,0,1.02,0.45,1.02,1.02v7.34c0,0.56-0.45,1.02-1.02,1.02h-4.06
	c-0.65,0-1.17,0.52-1.17,1.17v0.78c0,0.65,0.52,1.17,1.17,1.17h4.06c0.56,0,1.02,0.45,1.02,1.02v10.03c0,0.8-0.65,1.45-1.45,1.45
	h-3.75c-0.58,0-1.05,0.47-1.05,1.05v13.52c0,0.58,0.47,1.05,1.05,1.05h3.75c0.8,0,1.45,0.65,1.45,1.45v10.09
	c-1.98,0.84-4.1,1.26-6.25,1.25v5.97L18.75,87.5z"/>
<path class="st0" d="M75,87.5h10.94c0.41,0,0.81-0.16,1.11-0.46s0.46-0.69,0.46-1.11v-2.97c0-0.43-0.18-0.84-0.49-1.14
	c-0.31-0.29-0.73-0.45-1.16-0.42h-1.47c-2.74,0.04-5.45-0.66-7.81-2.05c-0.96-0.59-2.16-0.59-3.12,0c-4.85,2.73-10.77,2.73-15.62,0
	c-0.96-0.59-2.16-0.59-3.13,0c-4.85,2.73-10.77,2.73-15.62,0c-0.96-0.59-2.16-0.59-3.12,0c-2.37,1.38-5.07,2.09-7.81,2.05
	c-0.57,0-1.15-0.03-1.72-0.09c-0.36-0.04-0.71,0.08-0.98,0.32C25.16,81.88,25,82.22,25,82.58v3.12c0,1.09,0.58,1.66,1.3,1.66H75
	L75,87.5z"/>
</svg>
