<!-- Generator: Adobe Illustrator 23.0.0, SVG Export Plug-In  -->
<svg version="1.1" xmlns="http://www.w3.org/2000/svg" xmlns:xlink="http://www.w3.org/1999/xlink" x="0px" y="0px"
	 width="845.22px" height="1005px" viewBox="0 0 845.22 1005" style="enable-background:new 0 0 845.22 1005;" xml:space="preserve"
	>
<style type="text/css">
	.st0{opacity:0.57;fill:#FFFFFF;}
	.st1{fill-rule:evenodd;clip-rule:evenodd;fill:#225E54;}
</style>
<defs>
</defs>
<g>
	<rect class="st0" width="845.22" height="770"/>
	<g>
		<path class="st1" d="M119.88,233.77c-1.1-3.83-1.64-7.66-2.19-11.49h-9.31c-8.21,0-8.21,11.49-0.55,11.49H119.88z M129.18,252.38
			c-3.28-3.28-5.48-7.11-7.66-11.49h-13.14c-8.21,0-8.21,11.49-0.55,11.49H129.18z M224.96,240.89c-1.64,4.38-4.38,8.21-7.66,11.49
			h21.89c7.66,0,7.66-11.49,0.55-11.49H224.96z M229.34,222.28c0,3.83-0.55,7.66-1.64,11.49h11.49c7.66,0,7.66-11.49,0.55-11.49
			H229.34L229.34,222.28z M227.15,203.12c1.1,3.83,2.19,8.21,2.73,12.04h9.31c7.66,0,7.66-12.04,0.55-12.04H227.15z M157.64,153.86
			c5.48,0,9.85,3.83,9.85,9.31c0,5.47-4.38,9.31-9.85,9.31c-4.93,0-9.31-3.83-9.31-9.31C148.33,157.69,152.71,153.86,157.64,153.86z
			 M186.64,153.86c5.48,0,9.85,3.83,9.85,9.31c0,5.47-4.38,9.31-9.85,9.31c-4.93,0-9.31-3.83-9.31-9.31
			C177.34,157.69,181.72,153.86,186.64,153.86z M222.77,175.76c1.1,8.21-1.1,13.68-7.11,18.61c-5.47-5.47-13.68-8.76-23.54-8.76
			v-9.31h-10.4v9.31h-18.61v-9.31h-10.4v9.31c-9.85,0-17.51,3.83-22.44,9.85c-7.66-5.47-9.85-10.4-8.76-19.16
			c19.71-1.64,26.82-27.37,10.4-35.03l-9.85,17.51l-1.64-27.92c-12.59,0-22.99,10.4-22.99,22.44c0,9.85,6.02,18.06,14.23,21.34
			c-1.64,13.14,4.38,22.99,13.68,28.46c-9.31,20.8,1.1,52.54,29.01,58.02c13.14,2.73,25.72,2.73,38.86,0
			c28.46-6.02,38.86-38.86,27.92-59.66c7.66-4.93,12.59-14.23,11.49-26.27c9.31-2.19,16.42-10.95,16.42-21.89
			c0-12.04-10.4-22.44-22.44-22.44l-1.64,27.92l-10.4-17.51c-15.87,7.11-9.85,30.65,8.21,34.48L222.77,175.76z M118.23,215.16
			c0-3.83,1.1-8.21,2.19-12.04h-12.04c-8.21,0-8.21,12.04-0.55,12.04H118.23L118.23,215.16z"/>
	</g>
	<rect x="97.42" y="310.55" style="fill:none;" width="710.98" height="694.45"/>
	<text transform="matrix(1 0 0 1 97.4231 348.656)"><tspan x="0" y="0" style="fill:#333333; font-family:'Avenir-Roman'; font-size:50.4px;">Location:</tspan><tspan x="207.39" y="0" style="fill:#333333; font-family:'Avenir-Light'; font-size:50.4px;"> </tspan><tspan x="0" y="60.48" style="fill:#333333; font-family:'Avenir-Light'; font-size:50.4px;">The Embarcadero</tspan><tspan x="0" y="181.44" style="fill:#333333; font-family:'Avenir-Roman'; font-size:50.4px;">Time on Transportation:</tspan><tspan x="0" y="241.92" style="fill:#333333; font-family:'Avenir-Light'; font-size:50.4px;">43 min - from CCA</tspan><tspan x="0" y="302.4" style="fill:#333333; font-family:'Avenir-Light'; font-size:50.4px;">33 min - from Home</tspan></text>
	<rect x="290.72" y="141" style="fill:none;" width="494.98" height="136"/>
	<text transform="matrix(1 0 0 1 290.717 184.6172)"><tspan x="0" y="0" style="fill:#333333; font-family:'Avenir-Black'; font-size:57.6948px; text-decoration: underline;">Fisherman&apos;s </tspan><tspan x="0" y="69.23" style="fill:#333333; font-family:'Avenir-Black'; font-size:57.6948px; text-decoration: underline;">Wharf</tspan></text>
</g>
</svg>
