<!-- Generator: Adobe Illustrator 23.0.0, SVG Export Plug-In  -->
<svg version="1.1" xmlns="http://www.w3.org/2000/svg" xmlns:xlink="http://www.w3.org/1999/xlink" x="0px" y="0px"
	 width="845.22px" height="993.4px" viewBox="0 0 845.22 993.4" style="enable-background:new 0 0 845.22 993.4;"
	 xml:space="preserve">
<style type="text/css">
	.st0{opacity:0.57;fill:#FFFFFF;}
	.st1{fill:#C4742F;}
</style>
<defs>
</defs>
<g>
	<rect class="st0" width="845.22" height="770"/>
	<g>
		<polygon class="st1" points="157.14,171.8 168.09,171.8 169.72,163.25 158.78,163.25 		"/>
		<polygon class="st1" points="155.71,149.01 144.78,149.01 143.14,157.56 154.07,157.56 		"/>
		<path class="st1" d="M198.1,220.21l1.62,5.7h-50.22l1.62-5.7H198.1z M120.51,177.49h-0.22h-0.06c-0.12,0-0.23-0.01-0.35-0.03
			c-3.15-0.11-6.2-1.09-8.83-2.83c3.13,11.44,9.93,21.54,19.36,28.75c9.43,7.21,20.96,11.11,32.82,11.14h-16.39l-6.29,22h0.01
			c-0.24,0.74-0.17,1.54,0.19,2.22c0.36,0.68,0.99,1.19,1.73,1.4c0.75,0.21,1.54,0.11,2.21-0.28c0.67-0.38,1.15-1.03,1.33-1.78
			l1.85-6.48h53.48l1.85,6.48c0.35,1.22,1.46,2.06,2.73,2.06c0.26,0,0.53-0.04,0.78-0.11c1.51-0.43,2.39-2.01,1.95-3.52l-6.28-22
			h-16.39c11.86-0.02,23.4-3.93,32.82-11.14c9.42-7.21,16.22-17.31,19.35-28.75c-2.8,1.87-6.09,2.86-9.45,2.86L120.51,177.49z"/>
		<polygon class="st1" points="205.93,149.01 194.99,149.01 193.35,157.56 204.3,157.56 		"/>
		<polygon class="st1" points="207.36,171.8 218.3,171.8 219.94,163.25 209,163.25 		"/>
		<polygon class="st1" points="172.46,149.01 161.51,149.01 159.88,157.56 170.82,157.56 		"/>
		<polygon class="st1" points="222.67,149.01 211.73,149.01 210.09,157.56 221.03,157.56 		"/>
		<polygon class="st1" points="190.62,171.8 201.56,171.8 203.2,163.25 192.26,163.25 		"/>
		<polygon class="st1" points="173.88,171.8 184.82,171.8 186.46,163.25 175.52,163.25 		"/>
		<polygon class="st1" points="189.2,149.01 178.25,149.01 176.61,157.56 187.55,157.56 		"/>
		<path class="st1" d="M248.67,120.54h-25.63v-11.39h-17.09v11.39h-5.98c-1.35-6.64-7.18-11.41-13.95-11.41s-12.61,4.77-13.95,11.41
			h-5.98v-11.39h-17.09v11.39h-5.98c-1.35-6.64-7.18-11.41-13.95-11.41c-6.77,0-12.61,4.77-13.95,11.41h-5.98
			c-1.57,0-2.85,1.27-2.85,2.85s1.27,2.85,2.85,2.85h5.98c1.35,6.64,7.18,11.41,13.95,11.41c6.77,0,12.61-4.77,13.95-11.41h5.98
			v11.39h17.09v-11.39h5.98c1.35,6.64,7.18,11.41,13.95,11.41s12.61-4.77,13.95-11.41h5.98v11.39h17.09v-11.39h25.63
			c1.57,0,2.85-1.27,2.85-2.85S250.24,120.54,248.67,120.54z"/>
		<path class="st1" d="M159.81,92.06l-4.64,6.96c-0.88,1.31-0.52,3.08,0.79,3.95c1.31,0.87,3.08,0.52,3.95-0.79l5.7-8.54
			c0.63-0.95,0.63-2.21,0-3.16l-4.66-6.96l4.64-6.96c0.88-1.31,0.52-3.08-0.79-3.95c-1.31-0.87-3.08-0.52-3.95,0.79l-5.7,8.54
			c-0.63,0.95-0.63,2.21,0,3.16L159.81,92.06z"/>
		<path class="st1" d="M188.29,92.06l-4.64,6.96c-0.88,1.31-0.52,3.08,0.79,3.95c1.31,0.87,3.08,0.52,3.95-0.79l5.7-8.54
			c0.63-0.95,0.63-2.21,0-3.16l-4.66-6.96l4.64-6.96c0.88-1.31,0.52-3.08-0.79-3.95c-1.31-0.87-3.08-0.52-3.95,0.79l-5.7,8.54
			c-0.63,0.95-0.63,2.21,0,3.16L188.29,92.06z"/>
		<path class="st1" d="M213.92,92.06l-4.64,6.96c-0.88,1.31-0.52,3.08,0.79,3.95c1.31,0.87,3.08,0.52,3.95-0.79l5.7-8.54
			c0.63-0.95,0.63-2.21,0-3.16l-4.66-6.96l4.64-6.96c0.88-1.31,0.52-3.08-0.79-3.95c-1.31-0.87-3.08-0.52-3.95,0.79l-5.7,8.54
			c-0.63,0.95-0.63,2.21,0,3.16L213.92,92.06z"/>
	</g>
	<rect x="100.75" y="298.95" style="fill:none;" width="710.98" height="694.45"/>
	<text transform="matrix(1 0 0 1 100.745 337.056)"><tspan x="0" y="0" style="fill:#333333; font-family:'Avenir-Roman'; font-size:50.4px;">Location:</tspan><tspan x="207.39" y="0" style="fill:#333333; font-family:'Avenir-Light'; font-size:50.4px;"> </tspan><tspan x="0" y="60.48" style="fill:#333333; font-family:'Avenir-Light'; font-size:50.4px;">1640 Post St</tspan><tspan x="0" y="181.44" style="fill:#333333; font-family:'Avenir-Roman'; font-size:50.4px;">Time on Transportation:</tspan><tspan x="0" y="241.92" style="fill:#333333; font-family:'Avenir-Light'; font-size:50.4px;">29 min - from CCA</tspan><tspan x="0" y="302.4" style="fill:#333333; font-family:'Avenir-Light'; font-size:50.4px;">8 min - from Home</tspan></text>
	<rect x="269.97" y="181.4" style="fill:none;" width="494.98" height="131"/>
	
		<text transform="matrix(1 0 0 1 269.9701 225.0172)" style="fill:#333333; font-family:'Avenir-Black'; font-size:57.6948px; text-decoration: underline;">YakiniQ BBQ</text>
</g>
</svg>
