<!-- Generator: Adobe Illustrator 23.0.0, SVG Export Plug-In  -->
<svg version="1.1" xmlns="http://www.w3.org/2000/svg" xmlns:xlink="http://www.w3.org/1999/xlink" x="0px" y="0px"
	 width="703.15px" height="492.15px" viewBox="0 0 703.15 492.15" style="enable-background:new 0 0 703.15 492.15;"
	 xml:space="preserve">
<style type="text/css">
	.st0{fill:#EECA2E;}
	.st1{fill:#E6E6E6;}
	.st2{fill:#CCCCCC;}
	.st3{fill:none;stroke:#FFFFFF;stroke-width:1.152;stroke-miterlimit:10;}
</style>
<defs>
</defs>
<g>
	<g id="XMLID_1_">
		<g>
			<polygon class="st0" points="277.58,204.58 277.58,0.58 702.58,0.58 702.58,172.58 648.58,264.58 299.58,264.58 299.58,204.58 
							"/>
			<polygon class="st1" points="0.58,491.58 0.58,280.58 79.58,280.58 129.58,280.58 129.58,204.58 179.08,204.58 277.58,204.58 
				299.58,204.58 299.58,264.58 299.58,320.58 239.08,320.58 94.58,320.58 94.35,398.04 94.08,491.08 94.08,491.58 			"/>
			<polygon class="st1" points="176.73,0.58 179.08,204.58 129.58,204.58 79.58,204.58 79.58,0.58 			"/>
			<polygon class="st2" points="277.58,0.58 277.58,204.58 179.08,204.58 176.73,0.58 			"/>
			<rect x="79.58" y="204.58" class="st2" width="50" height="76"/>
			<polygon class="st2" points="239.08,491.19 239.08,491.58 94.08,491.58 94.08,491.08 94.35,398.04 239.08,398.58 			"/>
			<polygon class="st2" points="239.08,320.58 239.08,398.58 94.35,398.04 94.58,320.58 			"/>
			<polygon class="st1" points="299.58,490.58 299.58,491.58 239.08,491.58 239.08,491.19 239.08,398.58 239.08,320.58 
				299.58,320.58 			"/>
			<polygon class="st2" points="648.58,264.58 648.58,491.58 299.58,491.58 299.58,490.58 299.58,320.58 299.58,264.58 			"/>
		</g>
		<g>
			<polyline class="st3" points="129.58,204.58 129.58,280.58 79.58,280.58 0.58,280.58 0.58,491.58 94.08,491.58 239.08,491.58 
				299.58,491.58 648.58,491.58 648.58,264.58 702.58,172.58 702.58,0.58 277.58,0.58 176.73,0.58 79.58,0.58 79.58,204.58 
				79.58,280.58 			"/>
			<polyline class="st3" points="299.58,490.58 299.58,320.58 299.58,264.58 299.58,204.58 277.58,204.58 179.08,204.58 			"/>
			<polyline class="st3" points="94.08,491.08 94.35,398.04 94.58,320.58 239.08,320.58 299.58,320.58 			"/>
			<polyline class="st3" points="176.73,0.58 179.08,204.58 129.58,204.58 79.58,204.58 			"/>
			<line class="st3" x1="277.58" y1="204.58" x2="277.58" y2="0.58"/>
			<line class="st3" x1="299.58" y1="264.58" x2="648.58" y2="264.58"/>
			<polyline class="st3" points="239.08,320.58 239.08,398.58 239.08,491.19 			"/>
			<polyline class="st3" points="93.62,398.04 94.35,398.04 239.08,398.58 			"/>
		</g>
	</g>
</g>
</svg>
