<!-- Generator: Adobe Illustrator 23.0.0, SVG Export Plug-In  -->
<svg version="1.1" xmlns="http://www.w3.org/2000/svg" xmlns:xlink="http://www.w3.org/1999/xlink" x="0px" y="0px"
	 width="845.22px" height="998px" viewBox="0 0 845.22 998" style="enable-background:new 0 0 845.22 998;" xml:space="preserve">
<style type="text/css">
	.st0{opacity:0.57;fill:#FFFFFF;}
	.st1{fill:#225E54;}
</style>
<defs>
</defs>
<g>
	<rect class="st0" width="845.22" height="770"/>
	<g>
		<path class="st1" d="M239.36,208.04v13.82h-67.74v-13.82H239.36z M171.61,239.95v-14.43l67.74-0.01v14.43L171.61,239.95z
			 M167.97,243.59H243V204.4h-75.03V243.59z"/>
		<rect x="142.45" y="216.86" class="st1" width="3.65" height="7.9"/>
		<path class="st1" d="M162.66,251.64v-54.1c2.2-0.76,3.79-2.83,3.79-5.29v-7.9h1.52v7.9c0,3.1,2.52,5.62,5.62,5.62
			c3.1,0,5.62-2.53,5.62-5.62v-7.9h1.52v7.9c0,3.1,2.52,5.62,5.62,5.62s5.62-2.52,5.62-5.62v-7.9h1.52v7.9
			c0,3.1,2.52,5.62,5.62,5.62c3.1,0,5.63-2.53,5.63-5.62v-7.9h1.52v7.9c0,3.1,2.52,5.62,5.62,5.62c3.1,0,5.62-2.53,5.62-5.62v-7.9
			H219v7.9c0,3.1,2.52,5.62,5.62,5.62c3.1,0,5.62-2.53,5.62-5.62v-7.9h1.52v7.9c0,3.1,2.52,5.62,5.62,5.62
			c3.1,0,5.62-2.53,5.62-5.62v-7.9h1.52v7.9c0,2.46,1.59,4.53,3.79,5.29v54.1H162.66z M124.38,197.53c2.2-0.76,3.79-2.83,3.79-5.29
			v-7.9h1.52v7.9c0,2.46,1.59,4.53,3.79,5.29v54.1h-9.11L124.38,197.53L124.38,197.53z M137.14,197.53c2.2-0.76,3.79-2.83,3.79-5.29
			v-7.9h1.52v7.9c0,3.1,2.52,5.62,5.62,5.62c3.1,0,5.62-2.53,5.62-5.62v-7.9h1.52v7.9c0,2.46,1.59,4.53,3.79,5.29v54.1h-21.87
			L137.14,197.53L137.14,197.53z M120.58,175.92l0.13-0.15h131.28l0.13,0.14v16.33c0,1.09-0.88,1.98-1.98,1.98
			c-1.09,0-1.97-0.88-1.97-1.98V180.7h-8.81v11.54c0,1.09-0.88,1.98-1.98,1.98c-1.09,0-1.97-0.88-1.97-1.98V180.7h-8.81v11.54
			c0,1.09-0.88,1.98-1.98,1.98c-1.09,0-1.97-0.88-1.97-1.98V180.7h-8.81v11.54c0,1.09-0.88,1.98-1.98,1.98
			c-1.09,0-1.97-0.88-1.97-1.98V180.7h-8.81v11.54c0,1.09-0.88,1.98-1.98,1.98c-1.09,0-1.97-0.88-1.97-1.98V180.7h-8.81v11.54
			c0,1.09-0.88,1.98-1.97,1.98c-1.09,0-1.97-0.88-1.97-1.98V180.7h-8.81v11.54c0,1.09-0.88,1.98-1.97,1.98
			c-1.09,0-1.97-0.88-1.97-1.98V180.7h-8.81v11.54c0,1.09-0.88,1.98-1.97,1.98c-1.09,0-1.97-0.88-1.97-1.98V180.7h-8.81v11.54
			c0,1.09-0.88,1.98-1.97,1.98c-1.09,0-1.97-0.88-1.97-1.98V180.7h-8.81v11.54c0,1.09-0.88,1.98-1.97,1.98
			c-1.09,0-1.97-0.88-1.97-1.98V180.7h-8.81v11.54c0,1.09-0.88,1.98-1.97,1.98c-1.09,0-1.97-0.88-1.97-1.98L120.58,175.92
			L120.58,175.92z M139.95,153.67h92.96l5.51,6.38H134.39L139.95,153.67z M170.29,143.32l9.37,2.21c1.43,2.29,3.97,3.74,6.69,3.74
			s5.26-1.44,6.69-3.73l10.59-2.51l-0.01,6.99h-33.34V143.32z M153.47,109.26l31.06,7.13V140c0,1,0.82,1.82,1.82,1.82
			c1,0,1.82-0.82,1.82-1.82v-23.61l31.06-7.13v26.34l-27.82,6.57c-0.54,0.13-0.99,0.49-1.23,1c-0.71,1.51-2.18,2.46-3.84,2.46
			c-1.65,0-3.13-0.94-3.84-2.46c-0.23-0.51-0.69-0.87-1.23-1l-27.82-6.57L153.47,109.26z M207.27,163.69h34.29l7.28,8.43h-41.57
			L207.27,163.69z M203.63,172.12h-33.34v-8.43h33.34V172.12z M166.64,172.12h-42.76l7.33-8.43h35.42L166.64,172.12L166.64,172.12z
			 M112.61,218.03h-4.48v-9.99h4.48V218.03z M264.27,231.09v-3.65h-12.3l-0.01-29.91c2.21-0.76,3.8-2.83,3.8-5.29v-17.69
			l-21.19-24.53h-27.3v-7.86l14.2-3.35c0.82-0.19,1.4-0.93,1.4-1.77v-30.07c0-0.56-0.26-1.08-0.69-1.42c-0.43-0.35-1-0.48-1.54-0.35
			l-34.29,7.88l-34.29-7.89c-0.54-0.12-1.11,0.01-1.54,0.35c-0.43,0.34-0.69,0.87-0.69,1.42v30.07c0,0.85,0.58,1.58,1.4,1.77
			l15.41,3.65l0.01,7.58h-28.36l-21.34,24.53v17.69c0,2.46,1.59,4.53,3.79,5.29v6.86l-16.25-0.01v17.28h11.77v-13.63h4.48v43.59
			H106.3v3.65h157.96v-3.65h-12.3l-0.01-20.55L264.27,231.09z"/>
		<polygon class="st1" points="217,104.64 216.15,101.09 186.35,108.28 157.31,101.09 156.45,104.64 186.34,112.03 		"/>
		<rect x="173.29" y="210.4" class="st1" width="3.65" height="9.45"/>
		<rect x="178.75" y="210.4" class="st1" width="3.65" height="9.45"/>
		<rect x="184.22" y="210.4" class="st1" width="3.65" height="9.45"/>
		<rect x="189.69" y="210.4" class="st1" width="3.65" height="9.45"/>
		<rect x="195.16" y="210.4" class="st1" width="3.65" height="9.45"/>
		<rect x="200.63" y="210.4" class="st1" width="3.65" height="9.45"/>
		<rect x="206.09" y="210.4" class="st1" width="3.65" height="9.45"/>
		<rect x="173.29" y="227.94" class="st1" width="3.65" height="9.45"/>
		<rect x="178.75" y="227.94" class="st1" width="3.65" height="9.45"/>
		<rect x="184.22" y="227.94" class="st1" width="3.65" height="9.45"/>
		<rect x="189.69" y="227.94" class="st1" width="3.65" height="9.45"/>
		<rect x="195.16" y="227.94" class="st1" width="3.65" height="9.45"/>
		<rect x="200.63" y="227.94" class="st1" width="3.65" height="9.45"/>
		<rect x="206.09" y="227.94" class="st1" width="3.65" height="9.45"/>
	</g>
	<rect x="108" y="303.55" style="fill:none;" width="710.98" height="694.45"/>
	<text transform="matrix(1 0 0 1 108.0042 341.656)"><tspan x="0" y="0" style="fill:#333333; font-family:'Avenir-Roman'; font-size:50.4px;">Location:</tspan><tspan x="207.39" y="0" style="fill:#333333; font-family:'Avenir-Light'; font-size:50.4px;"> </tspan><tspan x="0" y="60.48" style="fill:#333333; font-family:'Avenir-Light'; font-size:50.4px;">4519, 261 Columbus Ave</tspan><tspan x="0" y="181.44" style="fill:#333333; font-family:'Avenir-Roman'; font-size:50.4px;">Time on Transportation:</tspan><tspan x="0" y="241.92" style="fill:#333333; font-family:'Avenir-Light'; font-size:50.4px;">26 min - from CCA</tspan><tspan x="0" y="302.4" style="fill:#333333; font-family:'Avenir-Light'; font-size:50.4px;">27 min - from Home</tspan></text>
	<rect x="289.23" y="139" style="fill:none;" width="494.98" height="113"/>
	<text transform="matrix(1 0 0 1 289.2293 182.6172)"><tspan x="0" y="0" style="fill:#333333; font-family:'Avenir-Black'; font-size:57.6948px; text-decoration: underline;">City Lights Book</tspan><tspan x="449.72" y="0" style="fill:#333333; font-family:'Avenir-Black'; font-size:57.6948px; text-decoration: underline;">-</tspan><tspan x="0" y="69.23" style="fill:#333333; font-family:'Avenir-Black'; font-size:57.6948px; text-decoration: underline;">store</tspan></text>
</g>
</svg>
