<!-- Generator: Adobe Illustrator 23.0.0, SVG Export Plug-In  -->
<svg version="1.1" xmlns="http://www.w3.org/2000/svg" xmlns:xlink="http://www.w3.org/1999/xlink" x="0px" y="0px"
	 width="845.22px" height="1001.5px" viewBox="0 0 845.22 1001.5" style="enable-background:new 0 0 845.22 1001.5;"
	 xml:space="preserve">
<style type="text/css">
	.st0{opacity:0.57;fill:#FFFFFF;}
	.st1{fill:#DC8480;}
</style>
<defs>
</defs>
<g>
	<rect class="st0" width="845.22" height="770"/>
	<g>
		<rect x="102.4" y="106.81" class="st1" width="10.86" height="146.86"/>
		<rect x="140.61" y="71.41" class="st1" width="68.35" height="6.31"/>
		<rect x="235.94" y="106.81" class="st1" width="10.86" height="146.86"/>
		<path class="st1" d="M156.73,222.48v31.2h36.1v-31.2C181.62,215.82,167.59,215.82,156.73,222.48z"/>
		<path class="st1" d="M136.4,175.52h14.72v22.43H136.4V175.52z M136.4,138.36h14.72v22.43H136.4V138.36z M136.4,101.21h14.72v22.43
			H136.4V101.21z M167.24,175.52h14.72v22.43h-14.72V175.52z M167.24,138.36h14.72v22.43h-14.72V138.36z M167.24,101.21h14.72v22.43
			h-14.72V101.21z M198.09,175.52h14.72v22.43h-14.72V175.52z M198.09,138.36h14.72v22.43h-14.72V138.36z M198.09,101.21h14.72
			v22.43h-14.72V101.21z M120.98,253.67h27.69v-33.3c0-1.4,0.7-2.46,1.75-3.15c14.37-10.17,34-10.17,48.37,0
			c1.05,0.7,1.75,1.75,1.75,3.15v33.3h27.69V85.78H120.98L120.98,253.67z"/>
	</g>
	<rect x="102.4" y="307.05" style="fill:none;" width="710.98" height="694.45"/>
	<text transform="matrix(1 0 0 1 102.3988 345.156)"><tspan x="0" y="0" style="fill:#333333; font-family:'Avenir-Roman'; font-size:50.4px;">Location:</tspan><tspan x="207.39" y="0" style="fill:#333333; font-family:'Avenir-Light'; font-size:50.4px;"> </tspan><tspan x="0" y="60.48" style="fill:#333333; font-family:'Avenir-Light'; font-size:50.4px;">865 Market St</tspan><tspan x="0" y="181.44" style="fill:#333333; font-family:'Avenir-Roman'; font-size:50.4px;">Time on Transportation:</tspan><tspan x="0" y="241.92" style="fill:#333333; font-family:'Avenir-Light'; font-size:50.4px;">36 min - from CCA</tspan><tspan x="0" y="302.4" style="fill:#333333; font-family:'Avenir-Light'; font-size:50.4px;">15 min - from Home</tspan></text>
	<rect x="275.97" y="139.28" style="fill:none;" width="494.98" height="131.16"/>
	<text transform="matrix(1 0 0 1 275.9701 182.8994)"><tspan x="0" y="0" style="fill:#333333; font-family:'Avenir-Black'; font-size:57.6948px; text-decoration: underline;">Westfield San </tspan><tspan x="0" y="69.23" style="fill:#333333; font-family:'Avenir-Black'; font-size:57.6948px; text-decoration: underline;">Francisco Centre</tspan></text>
</g>
</svg>
