<!-- Generator: Adobe Illustrator 23.0.0, SVG Export Plug-In  -->
<svg version="1.1" xmlns="http://www.w3.org/2000/svg" xmlns:xlink="http://www.w3.org/1999/xlink" x="0px" y="0px" width="348px"
	 height="711px" viewBox="0 0 348 711" style="enable-background:new 0 0 348 711;" xml:space="preserve">
<style type="text/css">
	.st0{fill:#CCCCCC;stroke:#FFFFFF;stroke-miterlimit:10;}
	.st1{fill:#E6E6E6;}
	.st2{fill:#CCCCCC;}
	.st3{fill:#EECA2E;}
	.st4{fill:none;stroke:#FFFFFF;stroke-width:1.152;stroke-miterlimit:10;}
</style>
<defs>
</defs>
<path class="st0" d="M276.5,212.5V0.5h62.42c4.74,0,8.58,3.84,8.58,8.58v194.85c0,4.74-3.84,8.58-8.58,8.58H276.5z"/>
<rect x="98.5" y="0.5" transform="matrix(-1 -1.224647e-16 1.224647e-16 -1 375 84)" class="st0" width="178" height="83"/>
<path class="st0" d="M9.08,0.5h96.42v185H0.5V9.08C0.5,4.34,4.34,0.5,9.08,0.5z"/>
<rect x="0.5" y="185.5" transform="matrix(-1 -1.224647e-16 1.224647e-16 -1 87 557)" class="st0" width="86" height="186"/>
<rect x="0.5" y="371.5" transform="matrix(-1 -1.224647e-16 1.224647e-16 -1 87 913)" class="st0" width="86" height="170"/>
<path class="st0" d="M0.5,541.5h86v169H9.08c-4.74,0-8.58-3.84-8.58-8.58V541.5z"/>
<g id="XMLID_1_">
	<g>
		<path class="st1" d="M242.42,710H53V500h26V272H53V83h224v67h-96.5H152l-0.5,62.5h17V331l75-0.91l2.79-0.03
			c2.6-0.03,4.72,2.05,4.73,4.65l0.41,117.79H251l-83-0.5v38h-11v27.17v20.33v54.91V659h85.88c0.21,0,0.41,0.01,0.62,0.02
			c4.19,0.32,7.5,3.83,7.5,8.1v34.3C251,706.16,247.16,710,242.42,710z"/>
		<path class="st2" d="M243.5,659v0.02c-0.21-0.01-0.41-0.02-0.62-0.02H157v-66.59h93.5v48.09l-7,9V659z"/>
		<polygon class="st2" points="250.5,592.41 157,592.41 157,537.5 168.47,537.5 168.5,517.08 243,516.5 243.5,516.5 243.5,542.5 
			250.5,552.5 		"/>
		<polygon class="st2" points="168.47,537.5 157,537.5 157,517.17 168.5,517.08 		"/>
		<polygon class="st3" points="168.5,517.08 157,517.17 157,490 168,490 168,452 251,452.5 251.43,452.5 251.5,472.5 243.5,487.5 
			243.5,516.5 243,516.5 		"/>
		<polygon class="st2" points="243.5,330.09 168.5,331 168.5,212.5 180.5,212.5 250.5,213.23 250.5,300.5 243.5,312.5 		"/>
		<polygon class="st1" points="277,213.5 250.5,213.23 180.5,212.5 180.5,150 277,150 		"/>
		<polygon class="st2" points="168.5,212.5 151.5,212.5 152,150 180.5,150 180.5,212.5 		"/>
	</g>
	<g>
		<path class="st4" d="M243.5,659v-9.5l7-9v-48.09V552.5l-7-10v-26v-29l8-15l-0.07-20l-0.41-117.79c-0.01-2.6-2.13-4.68-4.73-4.65
			l-2.79,0.03l-75,0.91V212.5h-17L152,150h28.5H277"/>
		<path class="st4" d="M251,452.5l-83-0.5v38h-11v27.17v20.33v54.91V659h85.88c0.21,0,0.41,0.01,0.62,0.02
			c4.19,0.32,7.5,3.83,7.5,8.1v34.3c0,4.74-3.84,8.58-8.58,8.58H53V500h26V272H53V83h224v67v63.5l-26.5-0.27l-70-0.73"/>
		<polyline class="st4" points="243,516.5 168.5,517.08 157,517.17 		"/>
		<polyline class="st4" points="168.5,516.84 168.5,517.08 168.47,537.5 157,537.5 		"/>
		<line class="st4" x1="250.5" y1="592.41" x2="157" y2="592.41"/>
		<polyline class="st4" points="168.5,212.5 180.5,212.5 180.5,150 		"/>
		<polyline class="st4" points="250.5,213.23 250.5,300.5 243.5,312.5 243.5,330.09 		"/>
	</g>
</g>
</svg>
