<!-- Generator: Adobe Illustrator 23.0.0, SVG Export Plug-In  -->
<svg version="1.1" xmlns="http://www.w3.org/2000/svg" xmlns:xlink="http://www.w3.org/1999/xlink" x="0px" y="0px"
	 width="859.95px" height="977.5px" viewBox="0 0 859.95 977.5" style="enable-background:new 0 0 859.95 977.5;"
	 xml:space="preserve">
<style type="text/css">
	.st0{opacity:0.57;fill:#FFFFFF;}
	.st1{fill-rule:evenodd;clip-rule:evenodd;fill:#225E54;}
</style>
<defs>
</defs>
<g>
	<rect class="st0" width="845.22" height="770"/>
	<g>
		<path class="st1" d="M344.52,133.4c-3.02-1.73-9.97-2.69-11.55-1.05c6.82,0.53,15.67,11.11,18.74,11.71
			c-4.63,2.25-19.78,1.59-21.55,1.1c1.8,3.25,4.91,5.73,8.71,6.19c-15.9,2.6-22.27-3.15-27.01-12.86l0.37,0.07
			c2.78,0.59,5.62,1.08,8.45,1.37c1.8,0.18,3.77,0.31,5.58,0.14c1.12-0.1,2.76-0.34,3.2-1.55c0.89-2.46-3.24-6.29-4.8-7.68
			c-2.13-1.91-4.47-3.66-6.85-5.26c-0.26-0.18-0.53-0.36-0.79-0.52C326.85,123.01,334.66,123.57,344.52,133.4L344.52,133.4z"/>
		<path class="st1" d="M214.89,123.93c28.15,3.99,57.39-21.93,92.14-3.27c15.71,8.44,21.87,15.54,21.18,17.43
			c-0.48,1.31-10.36,1.37-26.74-3.72c-27.6-8.59-54.73,28.03-97.75,14.54c-1.51-1.53-2.86-3.27-3.77-4.66
			c-1.49-2.23-3.71-6.35-3.9-9.61c1.89,1.06,4.2,1.84,6.03,2.26c5.76,1.32,7.55,0.44,12.08-2.46c-4.38-0.87-5.51-1.08-8.53-4.99
			c-1.02-1.31-2-2.89-2.58-4.45c-0.1-0.28-0.33-0.97-0.39-1.54C206.66,124.37,210.84,124.59,214.89,123.93L214.89,123.93z"/>
		<path class="st1" d="M161.71,112.98c1.86,0.04,4.55-4.82,8.63-4.52c5.23,0.37,4.63,6.25,6.87,7.23c-2.5-0.15-2.46,3.44-7.86,2.3
			C165.14,117.08,164.99,114.09,161.71,112.98L161.71,112.98z M146.84,113.85c-4.22-0.99-2.92-1.01-4.53-3.04
			c-0.6-0.76-1.14-1.19-1.61-1.39c-0.09-0.21-0.17-0.42-0.22-0.63c-0.17-0.74-0.02-1.54,0.49-2.46c1.26-2.32,5.35-1.9,9.41-1.49
			c3.45,0.34,6.89,0.7,9.03-0.58c0.31-0.19,0.41-0.59,0.22-0.9c-0.19-0.31-0.59-0.41-0.9-0.22c-1.76,1.05-4.99,0.73-8.23,0.4
			c-4.49-0.46-9.01-0.91-10.69,2.17c-0.67,1.22-0.85,2.32-0.62,3.38c0.04,0.17,0.08,0.35,0.15,0.52c-0.08,0.07-0.17,0.14-0.24,0.23
			c-0.37-0.2-0.73-0.59-1.06-1.07c-0.71-1.03-1.19-2.42-1.28-3.31c-0.48-4.74,2.4-5.79,5.64-6.99c1.39-0.51,2.84-1.04,4.19-1.88
			c0.31-0.19,0.4-0.59,0.21-0.9c-0.19-0.31-0.59-0.4-0.9-0.21c-1.23,0.76-2.63,1.27-3.96,1.76c-3.75,1.37-7.08,2.6-6.5,8.35
			c0.11,1.07,0.67,2.71,1.5,3.92c0.41,0.61,0.89,1.12,1.44,1.43c-0.95,2.04-1.28,5.41-1.34,6.37c-0.16,2.92,3.63,2.34,10.76,4.67
			c4.55,1.49,3.98,4.57,10.37,5c-1.86,0.03-5.23,4.78-7.5,5.07c-6.25,0.77-8.72,0.93-12.48-0.59c-2.11-0.85-1.49,1.97-0.64,3.09
			c2.74,3.63,8.04,5.29,16.72,6.63c4.16,0.64,11.19-2.5,13.98-0.88c2.37,8.33,7.51,15.25,16.55,20.49
			c-2.16-3.77-2.48-9.49-0.68-13.7c5.53,4.97,18.1,8.34,23.76,6.33c-6.13-2.11-14.74-14.97-12.92-21.11
			c2.89,2.56,11.7,5.35,15.72,2.78c-4.38-0.87-11-10.51-8.99-13.23c11.94,3.19,20.04-1.39,19.55-1.5
			c-5.91-1.33-15.71-10.09-25.68-10.45c3.54-3.33,8.26-6.18,11.02-9.93c-4.83-1.29-14.74,7.07-25.94,5.71
			c-3.92-0.47,8.01-9.05,11.92-12.79c1.3-1.25,1.72-1.96,0.35-1.66c-4.83,1.07-18.91,5.08-24.36,11.95
			C162.45,110.93,154.95,115.75,146.84,113.85L146.84,113.85z"/>
		<path class="st1" d="M202.81,162.1c8.49,2.26,4.66,16.58-3.81,14.32C190.51,174.16,194.33,159.83,202.81,162.1"/>
		<path class="st1" d="M207.26,218.54c-0.16,5.72-0.59,11.25-1.17,16.62c-0.23,2.17-2.16,3.74-4.33,3.51
			c-2.17-0.23-3.74-2.16-3.51-4.33c0.57-5.29,0.97-10.64,1.14-16.01c0.02-0.6,0.04-1.21,0.05-1.81c-0.36,1.58-0.77,3.06-1.18,4.45
			c-2.17,7.28-4.89,12.16-7.14,15.23c-1.28,1.76-3.75,2.14-5.51,0.86c-1.76-1.28-2.14-3.75-0.86-5.51c1.83-2.5,4.07-6.57,5.93-12.82
			c2.58-8.67,3.84-17.17,2.39-26.08c-0.22-1.32-0.48-2.59-0.81-3.7c-3.42,0.44-6.69,0.31-9.7-0.5c-4.69-1.24-8.67-4.04-11.47-8.65
			c-0.94-1.55-0.44-3.57,1.1-4.51c1.55-0.94,3.57-0.44,4.51,1.1c1.85,3.05,4.46,4.88,7.53,5.69c0.83,0.22,1.68,0.36,2.56,0.45
			c-0.85-0.52-1.66-1.12-2.44-1.78c-2.34-1.98-4.29-4.5-5.68-7.17l3.07-8.25c0.75,0.44,1.32,1.16,1.54,2.07
			c0.71,2.92,2.61,6.06,5.3,8.34c2.13,1.8,4.46,2.9,6.3,2.47c3.58-0.83,7.01-0.23,8.69,3.46c1.14,2.51,1.93,5.64,2.46,8.84
			C207.28,198.16,207.48,211.15,207.26,218.54L207.26,218.54z"/>
		<path class="st1" d="M171.68,182.92c0.08-0.22,0.22-0.4,0.38-0.54c0.58,0.73,1.2,1.42,1.86,2.04l-4.53,12.15
			c-0.25,0.68-1.01,1.02-1.69,0.77s-1.02-1.01-0.77-1.69L171.68,182.92z"/>
		<path class="st1" d="M182.88,160.39l-5.55,14.9c-0.07,0.17-0.16,0.32-0.28,0.45c-0.55-0.73-1.32-1.23-2.15-1.45l5.72-15.35
			C181.38,159.46,182.13,159.94,182.88,160.39L182.88,160.39z"/>
		<path class="st1" d="M186.82,149.83l-2.72,7.31c-0.56-2.27-0.61-4.79-0.17-7.07l0.66-1.77
			C185.28,148.86,186.03,149.36,186.82,149.83L186.82,149.83z"/>
		<path class="st1" d="M299.49,164.62c8.49,2.26,4.66,16.58-3.82,14.32C287.19,176.67,291.01,162.35,299.49,164.62"/>
		<path class="st1" d="M291.36,219.3c0.29,4.37,1.44,8.84,3.63,13.42c0.94,1.97,0.11,4.33-1.86,5.27c-1.97,0.94-4.33,0.11-5.27-1.86
			c-2.63-5.51-4.02-10.94-4.37-16.32c-0.1-1.5-0.12-2.99-0.05-4.49c-0.62,1.76-1.11,3.5-1.47,5.26c-0.88,4.36-0.94,8.78,0.01,13.28
			c0.44,2.13-0.92,4.22-3.06,4.67c-2.13,0.44-4.22-0.92-4.67-3.06c-1.18-5.58-1.11-11.07-0.02-16.46
			c2.03-9.98,7.01-15.04,9.48-23.86c0.49-1.75,0.89-3.51,1.21-5.3c-2.72-0.68-5.31-1.78-7.76-3.29c-4.16-2.57-7.88-6.33-11.14-11.33
			c-0.99-1.52-0.56-3.56,0.96-4.54c1.52-0.99,3.56-0.56,4.54,0.96c2.73,4.17,5.76,7.26,9.09,9.32c0.49,0.3,0.99,0.58,1.49,0.84
			c-1.33-1.25-2.51-2.7-3.45-4.36c-2.24-3.92-3.19-8.9-2.07-14.74c0.34-1.78,2.06-2.96,3.85-2.61c1.78,0.34,2.96,2.06,2.61,3.85
			c-0.8,4.19-0.18,7.64,1.32,10.27c1.7,2.98,4.8,5.38,8.26,5.71c3.61,0.33,6.26,3.54,5.93,7.15
			C297.37,199.07,290.68,208.85,291.36,219.3L291.36,219.3z"/>
		<path class="st1" d="M281.43,159.73l20.09-24.65c0.9,0.28,1.81,0.55,2.72,0.81l-20.91,25.66
			C282.93,160.75,282.26,160.1,281.43,159.73L281.43,159.73z"/>
		<path class="st1" d="M267.66,180.79c-0.46,0.56-1.29,0.65-1.85,0.19c-0.56-0.46-0.65-1.29-0.19-1.85l9.84-12.08
			c-0.03,1.29,0.05,2.58,0.25,3.86L267.66,180.79z"/>
	</g>
	<rect x="135.8" y="283.05" style="fill:none;" width="710.98" height="694.45"/>
	<text transform="matrix(1 0 0 1 135.8017 321.156)"><tspan x="0" y="0" style="fill:#333333; font-family:'Avenir-Roman'; font-size:50.4px;">Location:</tspan><tspan x="207.39" y="0" style="fill:#333333; font-family:'Avenir-Light'; font-size:50.4px;"> </tspan><tspan x="0" y="60.48" style="fill:#333333; font-family:'Avenir-Light'; font-size:50.4px;">Chinatown</tspan><tspan x="0" y="181.44" style="fill:#333333; font-family:'Avenir-Roman'; font-size:50.4px;">Time on Transportation:</tspan><tspan x="0" y="241.92" style="fill:#333333; font-family:'Avenir-Light'; font-size:50.4px;">29 min - from CCA</tspan><tspan x="0" y="302.4" style="fill:#333333; font-family:'Avenir-Light'; font-size:50.4px;">23 min - from Home</tspan></text>
	<rect x="364.97" y="185.28" style="fill:none;" width="494.98" height="62.22"/>
	
		<text transform="matrix(1 0 0 1 364.9701 228.8994)" style="fill:#333333; font-family:'Avenir-Black'; font-size:57.6948px; text-decoration: underline;">Chinatown</text>
</g>
</svg>
