<!-- Generator: Adobe Illustrator 23.0.0, SVG Export Plug-In  -->
<svg version="1.1" xmlns="http://www.w3.org/2000/svg" xmlns:xlink="http://www.w3.org/1999/xlink" x="0px" y="0px"
	 width="845.22px" height="998px" viewBox="0 0 845.22 998" style="enable-background:new 0 0 845.22 998;" xml:space="preserve">
<style type="text/css">
	.st0{opacity:0.57;fill:#FFFFFF;}
	.st1{fill:#C4742F;}
</style>
<defs>
</defs>
<g>
	<g>
		<rect class="st0" width="845.22" height="770"/>
		<rect x="89.37" y="303.55" style="fill:none;" width="710.98" height="694.45"/>
		<text transform="matrix(1 0 0 1 89.3674 341.656)"><tspan x="0" y="0" style="fill:#333333; font-family:'Avenir-Roman'; font-size:50.4px;">Location:</tspan><tspan x="207.39" y="0" style="fill:#333333; font-family:'Avenir-Light'; font-size:50.4px;"> </tspan><tspan x="0" y="60.48" style="fill:#333333; font-family:'Avenir-Light'; font-size:50.4px;">2555 Judah St</tspan><tspan x="0" y="181.44" style="fill:#333333; font-family:'Avenir-Roman'; font-size:50.4px;">Time on Transportation:</tspan><tspan x="0" y="241.92" style="fill:#333333; font-family:'Avenir-Light'; font-size:50.4px;">46 min - from CCA</tspan><tspan x="0" y="302.4" style="fill:#333333; font-family:'Avenir-Light'; font-size:50.4px;">40v min - from Home</tspan></text>
		<rect x="296.72" y="151" style="fill:none;" width="494.98" height="113"/>
		<text transform="matrix(1 0 0 1 296.717 194.6172)"><tspan x="0" y="0" style="fill:#333333; font-family:'Avenir-Black'; font-size:57.6948px; text-decoration: underline;">Terra Cotta War</tspan><tspan x="443.15" y="0" style="fill:#333333; font-family:'Avenir-Black'; font-size:57.6948px; text-decoration: underline;">-</tspan><tspan x="0" y="69.23" style="fill:#333333; font-family:'Avenir-Black'; font-size:57.6948px; text-decoration: underline;">rior</tspan></text>
	</g>
	<g>
		<path class="st1" d="M137.89,188.67l-2.53-3.99c0.15-0.1,15.13-9.71,15.13-20.68c0-4.02-1.84-4.61-5.67-6.74
			c-4.24-2.36-10-6.24-10.52-15.36h-0.04l0.04-2.16c0.52-10.41,6.27-13.9,10.52-16.26c3.83-2.13,5.67-3.48,5.67-7.5
			c0-10.58-11.28-14.39-11.39-14.42l1.44-4.54c5.08,1.62,14.68,7.64,14.68,18.83c0,6.98-4.31,9.36-8.1,11.47
			c-4.23,2.35-7.9,4.38-8.11,12.6c0.21,8.22,3.89,10.25,8.11,12.6c3.8,2.11,8.1,4.5,8.1,11.48
			C155.22,177.58,138.6,188.23,137.89,188.67L137.89,188.67z"/>
		<path class="st1" d="M155.54,181.8l-1.4-4.52c0.35-0.11,8.54-2.84,8.54-13.28c0-4-1.89-4.6-5.81-6.73
			c-4.35-2.36-10.22-6.26-10.75-15.37h-0.04l0.04-2.16c0.53-10.43,6.41-13.92,10.75-16.28c3.92-2.13,5.81-3.48,5.81-7.48
			c0-10.59-10.95-14.4-11.06-14.43l1.48-4.53c4.95,1.63,14.3,7.64,14.3,18.82c0,6.99-4.4,9.37-8.28,11.48
			c-4.33,2.35-8.09,4.39-8.31,12.59c0.22,8.21,3.98,10.24,8.31,12.59c3.88,2.11,8.28,4.49,8.28,11.48
			C167.41,175.21,159.64,180.55,155.54,181.8L155.54,181.8z"/>
		<path class="st1" d="M163.55,188.68l-2.51-4c0.16-0.1,15.23-9.71,15.23-20.68c0-4.21-2.1-4.78-5.59-6.75
			c-4.19-2.36-9.88-6.24-10.39-15.35h-0.04l0.04-2.16c0.51-10.4,6.19-13.9,10.38-16.25c3.49-1.96,5.59-3.3,5.59-7.5
			c0-10.5-11.13-14.27-11.6-14.42l1.42-4.54c5.15,1.62,14.9,7.63,14.9,18.84c0,6.97-4.25,9.35-8,11.46c-4.17,2.34-7.78,4.38-8,12.61
			c0.21,8.23,3.83,10.27,8,12.61c3.75,2.11,8,4.5,8,11.47C181,177.58,164.26,188.23,163.55,188.68L163.55,188.68z"/>
		<polygon class="st1" points="136.75,110.8 271.63,117.5 271.63,105.45 136.75,105.45 		"/>
		<polygon class="st1" points="136.75,98.98 271.63,105.68 271.63,94.51 136.75,94.51 		"/>
		<path class="st1" d="M155.75,226.11c-35.12,0-63.86-11.02-66.21-24.96c-0.11,1.08-0.18,2.16-0.18,3.26
			c0,26.09,17.87,57.45,66.38,57.45s66.38-31.36,66.38-57.45c0-1.1-0.07-2.18-0.18-3.25C219.61,215.1,190.87,226.11,155.75,226.11
			L155.75,226.11z"/>
		<path class="st1" d="M91.45,202.82c7.38-11.56,33.36-20.11,64.3-20.11s56.92,8.54,64.29,20.11c0.25,0.69,0.41,1.4,0.61,2.1
			c0.65-1.22,1.1-2.48,1.31-3.76c-0.28-2.93-0.92-5.8-1.92-8.55c-7.37-11.56-33.36-20.11-64.29-20.11
			c-30.94,0-56.92,8.54-64.29,20.11c-1,2.76-1.64,5.62-1.92,8.55c0.21,1.28,0.66,2.53,1.31,3.76
			C91.05,204.21,91.21,203.51,91.45,202.82L91.45,202.82z"/>
		<path class="st1" d="M98.23,216.59l-3.55-3.11c0.69-0.79,16.52-19.32,26.27-24.19c9.33-4.66,28.56-9.7,43.15-9.7v4.73
			c-12.76,0-32.18,4.78-41.04,9.21C114.13,197.98,98.39,216.4,98.23,216.59L98.23,216.59z"/>
		<path class="st1" d="M112.5,223.56l-3.74-2.88c0.73-0.95,18.22-23.4,28.61-29.3c9.98-5.67,30.37-11.79,46.77-11.79v4.73
			c-14.58,0-34.97,5.8-44.43,11.17C130.14,200.92,112.68,223.34,112.5,223.56L112.5,223.56z"/>
		<path class="st1" d="M129.04,228.29l-3.74-2.88c0.73-0.95,18.15-23.4,28.55-29.3c9.98-5.67,30.29-11.79,46.7-11.79v4.73
			c-14.58,0-34.9,5.8-44.36,11.17C146.62,205.65,129.22,228.06,129.04,228.29L129.04,228.29z"/>
		<path class="st1" d="M143.23,230.65l-3.74-2.88c0.73-0.95,18.35-23.4,28.75-29.3c9.98-5.67,30.49-11.79,46.9-11.79v4.73
			c-16.4,0-35.11,5.8-44.56,11.17C161,208.01,143.4,230.43,143.23,230.65L143.23,230.65z"/>
		<path class="st1" d="M215.01,225.8c-0.07-0.11-7.86-11.18-14.5-15.69c-6.54-4.45-18.2-9.26-30.96-9.26v-4.73
			c12.76,0,26.49,5.23,33.61,10.07c7.4,5.03,15.28,16.48,15.6,16.97L215.01,225.8z"/>
		<path class="st1" d="M218.93,206.87c-6.6-4.48-20.21-10.74-32.96-10.74v-4.73c12.76,0,28.47,6.83,35.42,11.56L218.93,206.87z"/>
		<path class="st1" d="M207.81,235.06c-0.06-0.11-6.17-11.39-13.35-15.7c-7.28-4.36-23.07-9.06-34.01-9.06v-4.73
			c12.76,0,28.61,5.05,36.43,9.73c8.31,4.97,14.84,16.98,15.13,17.49L207.81,235.06z"/>
		<path class="st1" d="M191.18,241.97c-0.05-0.11-5.06-11.38-10.83-15.65c-5.83-4.31-18.08-8.93-27.19-8.93v-4.73
			c10.94,0,23.59,5.12,30,9.86c6.78,5.02,12.12,17.04,12.34,17.55L191.18,241.97z"/>
	</g>
</g>
</svg>
