<!-- Generator: Adobe Illustrator 23.0.0, SVG Export Plug-In  -->
<svg version="1.1" xmlns="http://www.w3.org/2000/svg" xmlns:xlink="http://www.w3.org/1999/xlink" x="0px" y="0px"
	 width="845.54px" height="1005.33px" viewBox="0 0 845.54 1005.33" style="enable-background:new 0 0 845.54 1005.33;"
	 xml:space="preserve">
<style type="text/css">
	.st0{opacity:0.57;fill:#FFFFFF;}
	.st1{fill:#225E54;}
</style>
<defs>
</defs>
<g>
	<rect x="0.16" y="0.17" class="st0" width="845.22" height="770"/>
	<g>
		<path class="st1" d="M245.58,217.14l-0.01,13.82l-67.74-0.03l0.01-13.82L245.58,217.14z M177.83,249.02l0.01-14.43l67.74,0.02
			l-0.01,14.43L177.83,249.02z M174.18,252.66l75.03,0.03l0.02-39.19l-75.03-0.03L174.18,252.66z"/>
		<rect x="148.67" y="225.92" class="st1" width="3.65" height="7.9"/>
		<path class="st1" d="M168.87,260.71l0.02-54.1c2.2-0.76,3.8-2.82,3.8-5.29l0-7.9l1.52,0l0,7.9c0,3.1,2.52,5.63,5.62,5.63
			c3.1,0,5.63-2.53,5.63-5.62l0-7.9l1.52,0l0,7.9c0,3.1,2.52,5.63,5.62,5.63c3.1,0,5.62-2.52,5.62-5.62l0-7.9l1.52,0l0,7.9
			c0,3.1,2.52,5.63,5.62,5.63c3.1,0,5.63-2.53,5.63-5.62l0-7.9l1.52,0l0,7.9c0,3.1,2.52,5.63,5.62,5.63c3.1,0,5.63-2.53,5.63-5.62
			l0-7.9l1.52,0l0,7.9c0,3.1,2.52,5.63,5.62,5.63c3.1,0,5.63-2.53,5.63-5.62l0-7.9l1.52,0l0,7.9c0,3.1,2.52,5.63,5.62,5.63
			c3.1,0,5.63-2.53,5.63-5.62l0-7.9l1.52,0l0,7.9c0,2.46,1.59,4.53,3.79,5.29l-0.02,54.1L168.87,260.71z M130.61,206.59
			c2.2-0.76,3.8-2.82,3.8-5.29l0-7.9l1.52,0l0,7.9c0,2.46,1.59,4.53,3.79,5.29l-0.02,54.1l-9.11,0L130.61,206.59L130.61,206.59z
			 M143.37,206.59c2.2-0.76,3.8-2.82,3.8-5.29l0-7.9l1.52,0l0,7.9c0,3.1,2.52,5.63,5.62,5.63c3.1,0,5.63-2.53,5.63-5.62l0-7.9
			l1.52,0l0,7.9c0,2.46,1.59,4.53,3.79,5.29l-0.02,54.1l-21.87-0.01L143.37,206.59L143.37,206.59z M126.82,184.97l0.13-0.15
			l131.28,0.05l0.13,0.14l-0.01,16.33c0,1.09-0.88,1.98-1.98,1.98c-1.09,0-1.97-0.88-1.97-1.98l0-11.54l-8.81,0l0,11.54
			c0,1.09-0.88,1.98-1.98,1.98c-1.09,0-1.97-0.88-1.97-1.98l0-11.54l-8.81,0l0,11.54c0,1.09-0.88,1.98-1.98,1.98
			c-1.09,0-1.97-0.88-1.97-1.98l0-11.54l-8.81,0l0,11.54c0,1.09-0.88,1.98-1.98,1.98c-1.09,0-1.97-0.88-1.97-1.98l0-11.54l-8.81,0
			l0,11.54c0,1.09-0.88,1.98-1.98,1.98c-1.09,0-1.97-0.88-1.97-1.98l0-11.54l-8.81,0l0,11.54c0,1.09-0.88,1.98-1.97,1.98
			c-1.09,0-1.97-0.88-1.97-1.98l0-11.54l-8.81,0l0,11.54c0,1.09-0.88,1.98-1.97,1.98c-1.09,0-1.97-0.88-1.97-1.98l0-11.54l-8.81,0
			l0,11.54c0,1.09-0.88,1.98-1.97,1.98c-1.09,0-1.97-0.88-1.97-1.98l0-11.54l-8.81,0l0,11.54c0,1.09-0.88,1.98-1.97,1.98
			c-1.09,0-1.97-0.88-1.97-1.98l0-11.54l-8.81,0l0,11.54c0,1.09-0.88,1.98-1.97,1.98c-1.09,0-1.97-0.88-1.97-1.98l0-11.54l-8.81,0
			l0,11.54c0,1.09-0.88,1.98-1.97,1.98c-1.09,0-1.97-0.88-1.97-1.98L126.82,184.97L126.82,184.97z M146.2,162.73l92.96,0.04
			l5.51,6.38l-104.02-0.04L146.2,162.73z M176.54,152.39l9.37,2.22c1.43,2.29,3.96,3.74,6.69,3.74c2.73,0,5.26-1.44,6.69-3.73
			l10.6-2.5l-0.01,6.99l-33.34-0.01L176.54,152.39z M159.73,118.32l31.05,7.15l-0.01,23.61c0,1,0.82,1.82,1.82,1.82
			c1,0,1.82-0.82,1.82-1.82l0.01-23.61l31.06-7.12l-0.01,26.34l-27.83,6.56c-0.54,0.13-0.99,0.49-1.23,1
			c-0.71,1.51-2.18,2.46-3.84,2.45c-1.65,0-3.13-0.94-3.84-2.46c-0.23-0.51-0.69-0.87-1.23-1l-27.81-6.58L159.73,118.32z
			 M213.52,172.78l34.29,0.01l7.27,8.43l-41.57-0.02L213.52,172.78z M209.87,181.21l-33.34-0.01l0-8.43l33.34,0.01L209.87,181.21z
			 M172.88,181.19l-42.76-0.02l7.34-8.43l35.42,0.01L172.88,181.19L172.88,181.19z M118.83,227.08l-4.48,0l0-9.99l4.48,0
			L118.83,227.08z M270.49,240.2l0-3.65l-12.3-0.01l0.01-29.91c2.21-0.76,3.8-2.82,3.8-5.29l0.01-17.69l-21.18-24.54l-27.3-0.01
			l0-7.86l14.2-3.35c0.82-0.19,1.4-0.92,1.4-1.77l0.01-30.07c0-0.56-0.26-1.08-0.69-1.42c-0.43-0.35-1-0.48-1.54-0.35l-34.3,7.87
			l-34.29-7.9c-0.54-0.12-1.11,0.01-1.55,0.35c-0.43,0.34-0.69,0.87-0.69,1.42l-0.01,30.07c0,0.85,0.58,1.58,1.4,1.77l15.41,3.65
			l0,7.58l-28.36-0.01l-21.35,24.53l-0.01,17.69c0,2.46,1.59,4.53,3.79,5.29l0,6.86l-16.25-0.01l-0.01,17.28l11.77,0l0.01-13.63
			l4.48,0l-0.02,43.59l-14.42-0.01l0,3.65l157.96,0.06l0-3.65l-12.3-0.01l0-20.55L270.49,240.2z"/>
		<polygon class="st1" points="223.27,113.73 222.42,110.18 192.62,117.36 163.59,110.16 162.72,113.7 192.61,121.1 		"/>
		<rect x="179.51" y="219.47" class="st1" width="3.65" height="9.45"/>
		<rect x="184.98" y="219.47" class="st1" width="3.65" height="9.45"/>
		<rect x="190.45" y="219.48" class="st1" width="3.65" height="9.45"/>
		<rect x="195.91" y="219.48" class="st1" width="3.65" height="9.45"/>
		<rect x="201.38" y="219.48" class="st1" width="3.65" height="9.45"/>
		<rect x="206.85" y="219.48" class="st1" width="3.65" height="9.45"/>
		<rect x="212.32" y="219.49" class="st1" width="3.65" height="9.45"/>
		<rect x="179.5" y="237.02" class="st1" width="3.65" height="9.45"/>
		<rect x="184.97" y="237.02" class="st1" width="3.65" height="9.45"/>
		<rect x="190.44" y="237.02" class="st1" width="3.65" height="9.45"/>
		<rect x="195.91" y="237.02" class="st1" width="3.65" height="9.45"/>
		<rect x="201.38" y="237.02" class="st1" width="3.65" height="9.45"/>
		<rect x="206.84" y="237.03" class="st1" width="3.65" height="9.45"/>
		<rect x="212.31" y="237.03" class="st1" width="3.65" height="9.45"/>
	</g>
	<rect x="110.53" y="310.74" style="fill:none;" width="710.98" height="694.45"/>
	<text transform="matrix(1 4.070117e-04 -4.070117e-04 1 110.6566 348.701)"><tspan x="0" y="0" style="fill:#333333; font-family:'Avenir-Roman'; font-size:50.4px;">Location:</tspan><tspan x="207.39" y="0" style="fill:#333333; font-family:'Avenir-Light'; font-size:50.4px;"> </tspan><tspan x="0" y="60.48" style="fill:#333333; font-family:'Avenir-Light'; font-size:50.4px;">The Embarcadero</tspan><tspan x="0" y="181.44" style="fill:#333333; font-family:'Avenir-Roman'; font-size:50.4px;">Time on Transportation:</tspan><tspan x="0" y="241.92" style="fill:#333333; font-family:'Avenir-Light'; font-size:50.4px;">48 min - from CCA</tspan><tspan x="0" y="302.4" style="fill:#333333; font-family:'Avenir-Light'; font-size:50.4px;">22 min - from Home</tspan></text>
	<rect x="298.46" y="147.22" style="fill:none;" width="494.98" height="126"/>
	<text transform="matrix(1 4.070117e-04 -4.070117e-04 1 298.4677 190.7341)"><tspan x="0" y="0" style="fill:#333333; font-family:'Avenir-Black'; font-size:57.6948px; text-decoration: underline;">Green Apple </tspan><tspan x="0" y="69.23" style="fill:#333333; font-family:'Avenir-Black'; font-size:57.6948px; text-decoration: underline;">books</tspan></text>
</g>
</svg>
