<!-- Generator: Adobe Illustrator 23.0.0, SVG Export Plug-In  -->
<svg version="1.1" xmlns="http://www.w3.org/2000/svg" xmlns:xlink="http://www.w3.org/1999/xlink" x="0px" y="0px"
	 width="845.22px" height="977.5px" viewBox="0 0 845.22 977.5" style="enable-background:new 0 0 845.22 977.5;"
	 xml:space="preserve">
<style type="text/css">
	.st0{opacity:0.57;fill:#FFFFFF;}
	.st1{fill:#225E54;}
</style>
<defs>
</defs>
<g>
	<rect class="st0" width="845.22" height="770"/>
	<path class="st1" d="M248.86,136.73l-67.04-36.1c-0.54-0.29-1.19-0.29-1.73,0l-67.03,36.1c-0.83,0.45-0.51,1.72,0.43,1.72h134.94
		C249.37,138.45,249.69,137.18,248.86,136.73L248.86,136.73z M120.81,225.93h18.23v-5.47c0-1-0.82-1.82-1.82-1.82h-14.58
		c-1,0-1.82,0.82-1.82,1.82V225.93z M122.63,216.82h14.58v-52.86h-14.58V216.82z M139.03,160.32v-5.47h-18.23v5.47
		c0,1,0.82,1.82,1.82,1.82h14.58C138.22,162.14,139.03,161.32,139.03,160.32z M146.33,225.93h18.23v-5.47c0-1-0.82-1.82-1.82-1.82
		h-14.58c-1,0-1.82,0.82-1.82,1.82V225.93z M148.15,216.82h14.58v-52.86h-14.58V216.82z M164.55,160.32v-5.47h-18.23v5.47
		c0,1,0.82,1.82,1.82,1.82h14.58C163.73,162.14,164.55,161.32,164.55,160.32z M171.84,225.93h18.23v-5.47c0-1-0.82-1.82-1.82-1.82
		h-14.58c-1,0-1.82,0.82-1.82,1.82V225.93z M173.66,216.82h14.58v-52.86h-14.58V216.82z M190.07,160.32v-5.47h-18.23v5.47
		c0,1,0.82,1.82,1.82,1.82h14.58C189.25,162.14,190.07,161.32,190.07,160.32z M197.36,225.93h18.23v-5.47c0-1-0.82-1.82-1.82-1.82
		h-14.58c-1,0-1.82,0.82-1.82,1.82V225.93z M215.59,160.32v-5.47h-18.23v5.47c0,1,0.82,1.82,1.82,1.82h14.58
		C214.77,162.14,215.59,161.32,215.59,160.32z M199.18,216.82h14.58v-52.86h-14.58V216.82z M224.7,216.82h14.58v-52.86H224.7V216.82
		z M222.88,225.93h18.23v-5.47c0-1-0.82-1.82-1.82-1.82H224.7c-1,0-1.82,0.82-1.82,1.82V225.93z M241.1,160.32v-5.47h-18.23v5.47
		c0,1,0.82,1.82,1.82,1.82h14.58C240.28,162.14,241.1,161.32,241.1,160.32z M244.85,227.76H117.06c-0.95,0-1.72,0.82-1.72,1.82v7.29
		c0,1,0.78,1.82,1.72,1.82h127.78c0.95,0,1.73-0.82,1.73-1.82v-7.29C246.57,228.57,245.79,227.76,244.85,227.76L244.85,227.76z
		 M244.75,145.74H117.16c-1,0-1.82,0.82-1.82,1.82v3.65c0,1,0.82,1.82,1.82,1.82h127.58c1,0,1.82-0.82,1.82-1.82v-3.65
		C246.57,146.56,245.75,145.74,244.75,145.74z M244.75,143.91H117.16v-3.65h127.58V143.91z"/>
	<rect x="112.58" y="283.05" style="fill:none;" width="710.98" height="694.45"/>
	<text transform="matrix(1 0 0 1 112.577 321.156)"><tspan x="0" y="0" style="fill:#333333; font-family:'Avenir-Roman'; font-size:50.4px;">Location:</tspan><tspan x="207.39" y="0" style="fill:#333333; font-family:'Avenir-Light'; font-size:50.4px;"> </tspan><tspan x="0" y="60.48" style="fill:#333333; font-family:'Avenir-Light'; font-size:50.4px;">100 34th Ave</tspan><tspan x="0" y="181.44" style="fill:#333333; font-family:'Avenir-Roman'; font-size:50.4px;">Time on Transportation:</tspan><tspan x="0" y="241.92" style="fill:#333333; font-family:'Avenir-Light'; font-size:50.4px;">1 hr 5 min - from CCA</tspan><tspan x="0" y="302.4" style="fill:#333333; font-family:'Avenir-Light'; font-size:50.4px;">40 min - from Home</tspan></text>
	<rect x="277.23" y="185.28" style="fill:none;" width="494.98" height="62.22"/>
	
		<text transform="matrix(1 0 0 1 277.2293 228.8994)" style="fill:#333333; font-family:'Avenir-Black'; font-size:57.6948px; text-decoration: underline;">Legion of Honor</text>
</g>
</svg>
