<!-- Generator: Adobe Illustrator 23.0.0, SVG Export Plug-In  -->
<svg version="1.1" xmlns="http://www.w3.org/2000/svg" xmlns:xlink="http://www.w3.org/1999/xlink" x="0px" y="0px"
	 width="845.22px" height="1001.5px" viewBox="0 0 845.22 1001.5" style="enable-background:new 0 0 845.22 1001.5;"
	 xml:space="preserve">
<style type="text/css">
	.st0{opacity:0.57;fill:#FFFFFF;}
	.st1{fill-rule:evenodd;clip-rule:evenodd;fill:#F8D463;}
</style>
<defs>
</defs>
<g>
	<rect class="st0" width="845.22" height="770"/>
	<path class="st1" d="M228.49,215.23v-35.49h-14.42v35.49H228.49z M231.07,179.74v35.49h14.42v-35.49H231.07z M248.81,253.67
		c9.98,0,17.74-8.13,17.74-17.74v-70.61l27.36,0.37L202.6,77.7l-90.95,87.99l26.99-0.37v70.61c0,11.46,9.24,17.74,19.96,17.74
		v-73.94h39.56v73.94H248.81z"/>
	<rect x="111.65" y="307.05" style="fill:none;" width="710.98" height="694.45"/>
	<text transform="matrix(1 0 0 1 111.654 345.156)"><tspan x="0" y="0" style="fill:#333333; font-family:'Avenir-Roman'; font-size:50.4px;">Location:</tspan><tspan x="207.39" y="0" style="fill:#333333; font-family:'Avenir-Light'; font-size:50.4px;"> </tspan><tspan x="0" y="60.48" style="fill:#333333; font-family:'Avenir-Light'; font-size:50.4px;">888 O’farrell st</tspan><tspan x="325.07" y="60.48" style="fill:#333333; font-family:'Avenir-Roman'; font-size:50.4px;"> </tspan><tspan x="0" y="181.44" style="fill:#333333; font-family:'Avenir-Roman'; font-size:50.4px;">Time on Transportation:</tspan><tspan x="0" y="241.92" style="fill:#333333; font-family:'Avenir-Light'; font-size:50.4px;">23 min - from CCA</tspan></text>
	<rect x="335.1" y="205.34" style="fill:none;" width="309.98" height="96.16"/>
	
		<text transform="matrix(1 0 0 1 335.1023 248.9531)" style="fill:#333333; font-family:'Avenir-Black'; font-size:57.6948px; text-decoration: underline;">Home</text>
</g>
</svg>
