<!-- Generator: Adobe Illustrator 23.0.0, SVG Export Plug-In  -->
<svg version="1.1" xmlns="http://www.w3.org/2000/svg" xmlns:xlink="http://www.w3.org/1999/xlink" x="0px" y="0px"
	 width="845.22px" height="1005px" viewBox="0 0 845.22 1005" style="enable-background:new 0 0 845.22 1005;" xml:space="preserve"
	>
<style type="text/css">
	.st0{opacity:0.57;fill:#FFFFFF;}
	.st1{fill:#225E54;}
</style>
<defs>
</defs>
<g>
	<rect class="st0" width="845.22" height="770"/>
	<g>
		<path class="st1" d="M257.16,205.55c-5.22-20.4-20.85-20.84-20.85-20.84c10.42-5.65,13.47-3.05,13.47-3.05
			C262.8,189.49,257.16,205.55,257.16,205.55L257.16,205.55z M251.51,229.01c0.88-23.89-23.89-36.05-23.89-36.05
			c14.77-1.74,23.02,8.24,23.02,8.24C260.63,218.59,251.51,229.01,251.51,229.01L251.51,229.01z M243.7,235.96
			c-4.78,15.63-9.55,13.46-9.55,13.46c1.74-33.44-22.58-52.54-22.58-52.54C251.06,209.03,243.69,235.96,243.7,235.96L243.7,235.96z
			 M211.33,227.7c0,0,3.03,17.8-23.46-1.74v-2.17c0,0,18.68-1.3,0.88-3.47l-0.43-2.17c0,0,22.14-19.11,23.02-3.04
			C211.33,215.1,222.19,221.61,211.33,227.7L211.33,227.7z M186.79,252.66c-6.08,10.86-12.59,0-12.59,0
			c-16.07-0.88,3.04-23.03,3.04-23.03l2.16,0.43c2.18,17.81,3.48-0.88,3.48-0.88h2.17C204.6,255.7,186.79,252.66,186.79,252.66
			L186.79,252.66z M151.2,229.22c0,0-10.86-6.51,0-12.59c0,0-3.04-17.81,23.45,1.74v2.17c0,0-18.67,1.3-0.87,3.47l0.43,2.17
			C174.21,226.18,152.07,245.3,151.2,229.22L151.2,229.22z M121.97,231.61c0,0-7.38-26.93,32.15-39.08c0,0-24.33,19.11-22.58,52.55
			C131.53,245.08,126.76,247.25,121.97,231.61L121.97,231.61z M114.16,224.66c0,0-9.12-10.42,0.88-27.79c0,0,8.24-9.99,23.02-8.26
			C138.05,188.62,113.29,200.78,114.16,224.66L114.16,224.66z M115.9,177.33c0,0,3.04-2.6,13.46,3.04c0,0-15.64,0.43-20.85,20.85
			C108.51,201.21,102.87,185.14,115.9,177.33L115.9,177.33z M112.86,164.73c0,0,8.25-5.65,4.77,3.47c0,0-8.25,6.07-9.55,9.11
			C108.08,177.33,107.65,167.77,112.86,164.73z M185.93,222.49c0,2.63-2.24,4.78-4.99,4.78s-4.99-2.14-4.99-4.78
			s2.24-4.78,4.99-4.78S185.93,219.86,185.93,222.49z M185.06,216.85h-2.17c0,0-1.3-18.67-3.48-0.87l-2.16,0.43
			c0,0-19.11-22.15-3.04-23.02c0,0,6.51-10.86,12.59,0C186.8,193.39,204.6,190.35,185.06,216.85L185.06,216.85z M124.88,143.14
			c0,0,1.7-9.38,7.24-20.46c0,0,0-7.25,20.03-5.54c0,0,28.98,9.38,50.71,1.71c0,0,21.3-9.8,29.4,3.83c0,0,24.18,42.03,5.22,52.27
			l0.14-0.22l-9.55-3.04l0.43,3.47l-6.51-3.04l-1.31,1.74l-6.51-3.91l-0.43,3.47l-6.51-5.65l-1.74,3.04l-5.65-4.77l0.43,4.34
			l-6.08-5.65l-2.61,3.47l-3.47-3.04l-1.74,3.91l-2.61-3.47l-3.04,3.91l-2.18-3.91l-3.47,3.91l-0.87-4.78l-5.65,5.21l-1.3-3.91
			l-6.09,5.21l-0.87-3.47l-8.25,5.65l0.43-3.04l-10.42,5.65l-1.3-2.17l-5.65,2.61l2.6-6.51l-6.83,4.46
			C125.41,170.08,120.58,161.23,124.88,143.14L124.88,143.14z M252.81,169.07c5.21,3.04,4.78,12.59,4.78,12.59
			c-1.3-3.03-9.56-9.11-9.56-9.11C244.56,163.43,252.81,169.07,252.81,169.07z M261.06,196c0.88-76-33.44-93.37-33.44-93.37
			c-55.16-32.15-97.29,3.9-97.29,3.9c-30.83,26.49-29.52,86.43-29.52,86.43c3.91,56.02,29.96,62.1,29.96,62.1
			c45.6,19.54,89.47,7.38,89.47,7.38C266.71,247.24,261.06,196,261.06,196L261.06,196z"/>
		<path class="st1" d="M185.4,157.11c-1.12,0-2.33-0.03-3.76-0.08c-0.02,0-1.76,0.12-4.22,0.12c-8.95,0-15.01-1.53-16.47-4.12
			c0.81-1.58,3.67-6.33,8.48-6.33c1.25,0,2.56,0.31,3.92,0.93l-0.07,0.93c-0.06,0.74,0.48,1.39,1.22,1.47
			c0.72,0.09,1.4-0.45,1.5-1.18c0.35-2.68,1.62-10.15,3.23-12.42c0.04-0.05,0.08-0.11,0.11-0.18c0.01-0.01,0.84-1.57,2-1.57
			c0.72,0,1.57,0.56,2.51,1.62c0.44,1.5,2.54,8.71,2.91,12.08c0.07,0.68,0.65,1.2,1.33,1.22h0.03c0.68,0,1.25-0.5,1.35-1.17
			l0.19-1.34c0.65-0.33,1.87-0.82,3.35-0.82c3.19,0,6.07,2.34,8.34,6.77C200.67,154.08,197.62,157.11,185.4,157.11L185.4,157.11z
			 M229.98,146.5c-12.57-6.5-24.7-0.95-28.38,1.07c-0.22-0.01-0.43-0.04-0.67-0.05c-0.51-0.57-1.01-1.07-1.52-1.5
			c0.16,0.01,0.3,0.04,0.46,0.04c5.01,0,9.07-4.07,9.07-9.07c0-5.01-4.07-9.07-9.07-9.07c-5.01,0-9.07,4.06-9.07,9.07
			c0,2.59,1.1,4.91,2.85,6.57c-0.22-0.01-0.43-0.02-0.65-0.02c-1.75,0-3.23,0.49-4.19,0.93c-0.9-4.09-2.36-8.95-2.44-9.22
			c-0.05-0.18-0.14-0.34-0.26-0.48c-0.23-0.28-0.47-0.5-0.7-0.73c3.47-2.11,6.23-4.17,8.1-5.7c18.95-4.83,20.65,9.04,20.65,9.04
			c9.12,12.33,15.2,0.87,15.2,0.87c9.12-17.37-13.9-17.37-13.9-17.37c-23.89-2.17-30.4,10.42-30.4,10.42
			c1.48-0.65,2.88-1.19,4.21-1.66c-1.82,1.61-3.3,3.28-4.07,4.19c-1.27-1.21-2.56-1.86-3.87-1.86c-1.8,0-3.15,1.19-3.93,2.26
			c-0.97-1.15-2.53-2.88-4.34-4.44c1.22,0.44,2.49,0.94,3.84,1.52c0,0-6.51-12.59-30.41-10.42c0,0-23.02,0-13.9,17.37
			c0,0,7.74,10.59,15.2-0.87c0,0,1.74-14.11,21.15-8.91c1.72,1.53,4.5,3.81,8.17,6.19c-0.06,0.09-0.11,0.19-0.16,0.28
			c-1.45,2.12-2.49,6.69-3.08,9.95c-1.51-0.6-3-0.9-4.44-0.9c-0.65,0-1.26,0.08-1.85,0.19c2.16-1.66,3.58-4.24,3.58-7.18
			c0-5.01-4.07-9.07-9.08-9.07c-5.01,0-9.07,4.06-9.07,9.07c0,5.01,4.06,9.07,9.07,9.07c0.46,0,0.9-0.07,1.35-0.14
			c-0.86,0.6-1.6,1.3-2.24,1.99c-2.72-1.5-15.56-7.82-28.98-1.42c0,0-13.47,13.03,13.46,13.03c0,0,5.52-0.01,12.64-7.32
			c-0.06,0.14-0.11,0.25-0.13,0.28c-0.13,0.31-0.14,0.66-0.04,0.97c1.23,3.64,6.14,5.31,11.61,6.01c-9.9,1.1-22.82,3.74-28.13,10.05
			c0,0,0,6.09,5.65,1.74c0,0,3.47-9.55,34.74-9.13c0,0,21.71-1.3,35.18,4.78c0,0,5.65,7.82,8.25,1.74c0,0,4.01-6.25-32.56-9.28
			c10.08-1.41,11.21-5.55,11.32-6.11c0.05-0.28,0.01-0.58-0.11-0.84c7.01,7.08,12.42,7.1,12.42,7.1
			C243.45,159.53,229.98,146.5,229.98,146.5L229.98,146.5z"/>
	</g>
	<rect x="100.8" y="310.55" style="fill:none;" width="710.98" height="694.45"/>
	<text transform="matrix(1 0 0 1 100.7968 348.656)"><tspan x="0" y="0" style="fill:#333333; font-family:'Avenir-Roman'; font-size:50.4px;">Location:</tspan><tspan x="207.39" y="0" style="fill:#333333; font-family:'Avenir-Light'; font-size:50.4px;"> </tspan><tspan x="0" y="60.48" style="fill:#333333; font-family:'Avenir-Light'; font-size:50.4px;">1610 Geary Blvd</tspan><tspan x="0" y="181.44" style="fill:#333333; font-family:'Avenir-Roman'; font-size:50.4px;">Time on Transportation:</tspan><tspan x="0" y="241.92" style="fill:#333333; font-family:'Avenir-Light'; font-size:50.4px;">34 min - from CCA</tspan><tspan x="0" y="302.4" style="fill:#333333; font-family:'Avenir-Light'; font-size:50.4px;">7 min - from Home</tspan></text>
	<rect x="289.97" y="210.78" style="fill:none;" width="494.98" height="62.22"/>
	
		<text transform="matrix(1 0 0 1 289.9701 254.3994)" style="fill:#333333; font-family:'Avenir-Black'; font-size:57.6948px; text-decoration: underline;">Japantown</text>
</g>
</svg>
