<!-- Generator: Adobe Illustrator 23.0.0, SVG Export Plug-In  -->
<svg version="1.1" xmlns="http://www.w3.org/2000/svg" xmlns:xlink="http://www.w3.org/1999/xlink" x="0px" y="0px" width="854.7px"
	 height="1001.5px" viewBox="0 0 854.7 1001.5" style="enable-background:new 0 0 854.7 1001.5;" xml:space="preserve">
<style type="text/css">
	.st0{opacity:0.57;fill:#FFFFFF;}
	.st1{fill:#DC8480;}
</style>
<defs>
</defs>
<g>
	<rect class="st0" width="845.22" height="770"/>
	<path class="st1" d="M140.84,217.12l123.94-0.9l0.21,29.16l-123.94,0.9L140.84,217.12z M193.54,195.95
		c0.56,0.93,1.24,1.79,2.01,2.55l-3.99,0.03C192.33,197.76,192.99,196.88,193.54,195.95L193.54,195.95z M171.67,196.11
		c0.56,0.93,1.24,1.79,2.01,2.55l-3.99,0.03C170.46,197.92,171.12,197.04,171.67,196.11L171.67,196.11z M248.21,194.41
		c0.8,1.11,1.42,2.55,1.96,3.69l-3.87,0.03C246.85,196.78,247.57,195.49,248.21,194.41z M229.99,194.54
		c0.8,1.11,1.42,2.55,1.96,3.69l-3.87,0.03C228.62,196.91,229.35,195.62,229.99,194.54z M239.04,187.19
		c0.95,1.35,1.69,3.11,2.31,4.48c-0.79,1.49-1.6,3.14-2.3,4.8c-0.71-1.65-1.44-3.3-2.26-4.77
		C237.38,190.05,238.22,188.62,239.04,187.19z M204.39,183.91c3.06-0.02,5.49,2.37,5.51,5.43c0.02,3.06-2.37,5.43-5.43,5.45
		c-3.06,0.02-5.54-2.31-5.56-5.37C198.88,186.35,201.33,183.93,204.39,183.91z M182.52,184.07c3.06-0.02,5.49,2.37,5.51,5.43
		c0.02,3.06-2.37,5.43-5.43,5.45c-3.06,0.02-5.54-2.31-5.56-5.37C177.01,186.51,179.46,184.09,182.52,184.07z M160.65,184.23
		c3.06-0.02,5.49,2.37,5.51,5.43c0.02,3.06-2.37,5.43-5.43,5.45c-3.06,0.02-5.54-2.31-5.56-5.37
		C155.14,186.67,157.59,184.25,160.65,184.23z M194.94,169.62c2.28,0.65,3.89,2.7,3.91,5.21c-0.63,3.76-2.45,5.26-5.43,5.45
		c-1.96-0.1-3.01-0.71-4.23-1.91C192.21,176.45,194.37,173.29,194.94,169.62L194.94,169.62z M169.88,169.81
		c0.63,3.68,2.8,6.84,5.87,8.73c-1.08,1.3-3.18,1.99-4.2,1.91c-2.61,0.09-5.48-2.13-5.56-5.37
		C165.97,172.56,167.6,170.48,169.88,169.81L169.88,169.81z M182.36,162.2c3.06-0.02,5.49,2.37,5.51,5.43
		c0.02,3.06-2.37,5.43-5.43,5.45c-3.06,0.02-5.54-2.31-5.56-5.37C176.85,164.64,179.3,162.22,182.36,162.2z M147.54,143.94
		c2.45,2.45,6.29,3.83,11.02,3.79c4.72-0.03,8.44-1.49,10.85-3.95c2.45,2.45,6.29,3.83,11.02,3.79c4.72-0.03,8.44-1.49,10.85-3.95
		c2.45,2.45,6.29,3.83,11.02,3.79c4.72-0.03,8.44-1.49,10.85-3.95c2.45,2.45,6.29,3.83,11.02,3.79c4.72-0.03,8.44-1.49,10.85-3.95
		c2.45,2.45,6.29,3.83,11.02,3.79c4.72-0.03,8.44-1.49,10.85-3.95c1.79,1.79,4.3,2.96,7.37,3.48l0.37,51.37l-6.61,0.05
		c-1.46-3.76-3.2-7.08-5.43-10.1c-2.47-2.31-3.08-2.72-6.11-2.35c-1.33-2.75-3.39-5.46-5.69-7.19l-0.07-10.14
		c3.03-1.25,6.06-1.88,9.09-2.91c-3.05-1.49-6.1-3.02-9.14-3.46c-0.04-1.32-1.02-1.96-2.06-1.98c-0.88,0.03-1.62,0.99-1.58,1.89
		l0.12,16.63c-2.74,1.84-4.33,4.63-5.59,7.33c-2.5-0.69-4.63,0.54-6.13,2.38c-2.28,3.14-3.97,6.81-5.28,10.18l-6.72,0.05
		c2.32-2.34,3.72-5.55,3.69-9.08c-0.05-6.46-4.94-11.87-11.2-12.62c0.17-8.52-5.44-14.76-12.18-14.61
		c-2.1-4.26-6.43-7.24-11.44-7.21c-5.02,0.04-9.36,3.09-11.39,7.37c-6.85,0.19-12.29,6.2-11.97,14.78
		c-6.23,0.87-11.06,6.34-11.01,12.78c0.03,3.53,1.52,6.72,3.88,9.03l-11.11,0.08l-0.37-51.37
		C143.37,146.97,145.79,145.74,147.54,143.94L147.54,143.94z M260.31,103.25l14.58-0.11l0.16,21.93l-14.58,0.11L260.31,103.25z
		 M238.43,103.41l14.58-0.11l0.16,21.93l-14.58,0.11L238.43,103.41z M216.56,103.56l14.58-0.11l0.16,21.93l-14.58,0.11
		L216.56,103.56z M194.69,103.72l14.58-0.11l0.16,21.93l-14.58,0.11L194.69,103.72z M172.82,103.88l14.58-0.11l0.16,21.93
		l-14.58,0.11L172.82,103.88z M150.95,104.04l14.58-0.11l0.16,21.93l-14.58,0.11L150.95,104.04z M129.08,104.2l14.58-0.11
		l0.16,21.93l-14.58,0.11L129.08,104.2z M125.04,96.94c-1.79,0.18-3.3,1.87-3.28,3.67l0.24,32.81c0.14,10.84,7.38,13.51,11.04,14.16
		l0.37,51.37l-7.29,0.05c-1.91,0.01-3.63,1.76-3.62,3.67l0.08,10.94c0.01,1.91,1.76,3.63,3.67,3.62l7.29-0.05l0.21,29.16l-5.87,0.04
		c-1.91,0.12-3.54,1.96-3.42,3.87c0.12,1.91,1.96,3.54,3.87,3.42l149.45-1.09c1.92,0.01,3.68-1.74,3.67-3.67s-1.8-3.66-3.72-3.62
		l-5.47,0.04l-0.21-29.16l7.29-0.05c1.91-0.01,3.63-1.76,3.62-3.67l-0.08-10.94c-0.01-1.91-1.76-3.63-3.67-3.62l-7.29,0.05
		l-0.37-51.37c3.77-0.61,10.87-3.41,10.83-14.32l-0.24-32.81c-0.01-1.91-1.76-3.63-3.67-3.62L125.04,96.94L125.04,96.94z"/>
	<rect x="121.76" y="307.05" style="fill:none;" width="710.98" height="694.45"/>
	<text transform="matrix(1 0 0 1 121.7624 345.156)"><tspan x="0" y="0" style="fill:#333333; font-family:'Avenir-Roman'; font-size:50.4px;">Location:</tspan><tspan x="207.39" y="0" style="fill:#333333; font-family:'Avenir-Light'; font-size:50.4px;"> </tspan><tspan x="0" y="60.48" style="fill:#333333; font-family:'Avenir-Light'; font-size:50.4px;">1765 California St</tspan><tspan x="0" y="181.44" style="fill:#333333; font-family:'Avenir-Roman'; font-size:50.4px;">Time on Transportation:</tspan><tspan x="0" y="241.92" style="fill:#333333; font-family:'Avenir-Light'; font-size:50.4px;">27 min - from CCA</tspan><tspan x="0" y="302.4" style="fill:#333333; font-family:'Avenir-Light'; font-size:50.4px;">13 min - from Home</tspan></text>
	<rect x="310.72" y="205.34" style="fill:none;" width="543.98" height="86.16"/>
	
		<text transform="matrix(1 0 0 1 310.717 248.9531)" style="fill:#333333; font-family:'Avenir-Black'; font-size:57.6948px; text-decoration: underline;">Wholefoods</text>
</g>
</svg>
