<!-- Generator: Adobe Illustrator 23.0.0, SVG Export Plug-In  -->
<svg version="1.1" xmlns="http://www.w3.org/2000/svg" xmlns:xlink="http://www.w3.org/1999/xlink" x="0px" y="0px" width="100px"
	 height="100px" viewBox="0 0 100 100" style="enable-background:new 0 0 100 100;" xml:space="preserve">
<style type="text/css">
	.st0{fill:#CCCCCC;}
	.st1{fill-rule:evenodd;clip-rule:evenodd;fill:#CCCCCC;}
</style>
<defs>
</defs>
<path class="st0" d="M11.93,49.82h36.84l-4.56-4.56L11.93,49.82z M49.82,48.77V11.93l-4.56,32.28L49.82,48.77z M51.23,49.82h36.49
	l-31.93-4.56L51.23,49.82z M49.82,87.72V51.23l-4.56,4.56L49.82,87.72z M56.14,43.51L100,49.82l-43.86,6.32L49.82,100l-6.32-43.86
	L0,49.82l43.51-6.32L49.82,0L56.14,43.51z"/>
<polygon class="st1" points="24.56,24.56 42.81,37.54 42.46,42.46 37.54,42.81 "/>
<polygon class="st1" points="24.56,75.44 37.54,57.19 42.81,57.19 42.81,62.46 "/>
<polygon class="st1" points="75.44,75.09 57.19,62.46 56.84,56.49 62.46,57.19 "/>
<polygon class="st1" points="75.09,24.56 62.46,42.81 57.54,42.46 57.19,37.54 "/>
</svg>
