<!-- Generator: Adobe Illustrator 23.0.0, SVG Export Plug-In  -->
<svg version="1.1" xmlns="http://www.w3.org/2000/svg" xmlns:xlink="http://www.w3.org/1999/xlink" x="0px" y="0px"
	 width="845.22px" height="998px" viewBox="0 0 845.22 998" style="enable-background:new 0 0 845.22 998;" xml:space="preserve">
<style type="text/css">
	.st0{opacity:0.57;fill:#FFFFFF;}
	.st1{fill:#C4742F;}
</style>
<defs>
</defs>
<g>
	<rect class="st0" width="845.22" height="770"/>
	<g>
		<path class="st1" d="M141.61,244.59h52.06c13.67-6.78,24.16-18.63,29.25-32.92H112.36C117.45,225.96,127.93,237.81,141.61,244.59z
			 M194.29,249.95h-53.3c-0.41,0-0.8-0.09-1.17-0.26c-16.4-7.92-28.68-22.48-33.71-39.94c-0.23-0.81-0.07-1.68,0.43-2.35
			c0.51-0.67,1.3-1.07,2.14-1.07H226.6c0.84,0,1.63,0.4,2.14,1.07c0.51,0.67,0.66,1.54,0.43,2.35
			c-5.03,17.47-17.32,32.03-33.71,39.94C195.09,249.86,194.69,249.95,194.29,249.95L194.29,249.95z"/>
		<path class="st1" d="M195.51,234.62c-0.81,0-1.62-0.36-2.14-1.07c-0.89-1.18-0.66-2.86,0.52-3.75
			c7.43-5.61,13.48-12.99,17.53-21.34c0.65-1.33,2.25-1.89,3.58-1.25c1.33,0.65,1.89,2.24,1.25,3.58
			c-4.41,9.12-11.02,17.17-19.12,23.29C196.64,234.44,196.07,234.62,195.51,234.62L195.51,234.62z"/>
		<path class="st1" d="M120.83,210.46c-0.68,0-1.37-0.26-1.89-0.78l-20.13-20.13c-1.05-1.05-1.05-2.74,0-3.79
			c1.05-1.05,2.74-1.05,3.79,0l20.13,20.12c1.05,1.05,1.05,2.74,0,3.79C122.19,210.19,121.51,210.46,120.83,210.46L120.83,210.46z"
			/>
		<path class="st1" d="M135.41,210.46c-0.68,0-1.37-0.26-1.89-0.78l-20.13-20.13c-1.05-1.05-1.05-2.74,0-3.79
			c1.05-1.05,2.74-1.05,3.79,0l20.13,20.12c1.05,1.05,1.05,2.74,0,3.79C136.77,210.19,136.09,210.46,135.41,210.46L135.41,210.46z"
			/>
		<path class="st1" d="M148.79,184.76c-0.55,0-1.1-0.16-1.57-0.51c-3.52-2.56-5.63-6.68-5.63-11.03c0-4.31,2.08-8.42,5.57-10.98
			c1.19-0.88,2.87-0.62,3.74,0.57c0.88,1.19,0.62,2.87-0.57,3.74c-2.15,1.57-3.38,4-3.38,6.66c0,2.64,1.27,5.14,3.42,6.69
			c1.2,0.87,1.47,2.54,0.6,3.74C150.44,184.38,149.62,184.76,148.79,184.76L148.79,184.76z"/>
		<path class="st1" d="M180.31,184.76c-0.55,0-1.1-0.16-1.57-0.51c-3.52-2.56-5.63-6.68-5.63-11.03c0-4.31,2.08-8.42,5.57-10.98
			c1.19-0.88,2.87-0.62,3.74,0.57c0.88,1.19,0.62,2.87-0.57,3.74c-2.15,1.57-3.38,4-3.38,6.66c0,2.64,1.27,5.14,3.42,6.69
			c1.2,0.87,1.47,2.54,0.6,3.74C181.95,184.38,181.13,184.76,180.31,184.76L180.31,184.76z"/>
		<path class="st1" d="M149.79,166.23c-0.83,0-1.64-0.38-2.16-1.1c-0.88-1.19-0.62-2.87,0.57-3.74c2.15-1.57,3.38-4,3.38-6.66
			c0-2.64-1.27-5.14-3.42-6.69c-1.2-0.87-1.47-2.54-0.6-3.74c0.87-1.2,2.54-1.47,3.74-0.6c3.52,2.56,5.63,6.68,5.63,11.03
			c0,4.31-2.08,8.42-5.57,10.98C150.89,166.06,150.34,166.23,149.79,166.23L149.79,166.23z"/>
		<path class="st1" d="M132.77,184.76c-0.55,0-1.1-0.16-1.57-0.51c-3.52-2.56-5.63-6.68-5.63-11.03c0-4.31,2.08-8.42,5.57-10.98
			c1.19-0.88,2.87-0.62,3.74,0.57c0.88,1.19,0.62,2.87-0.57,3.74c-2.15,1.57-3.38,4-3.38,6.66c0,2.64,1.27,5.14,3.42,6.69
			c1.2,0.87,1.47,2.54,0.6,3.74C134.42,184.38,133.6,184.76,132.77,184.76L132.77,184.76z"/>
		<path class="st1" d="M133.77,166.23c-0.83,0-1.64-0.38-2.16-1.1c-0.88-1.19-0.62-2.87,0.57-3.74c2.15-1.57,3.38-4,3.38-6.66
			c0-2.64-1.27-5.14-3.42-6.69c-1.2-0.87-1.47-2.54-0.6-3.74c0.87-1.2,2.54-1.47,3.74-0.6c3.52,2.56,5.63,6.68,5.63,11.03
			c0,4.31-2.08,8.42-5.57,10.98C134.88,166.06,134.32,166.23,133.77,166.23L133.77,166.23z"/>
		<path class="st1" d="M195.28,184.76c-0.55,0-1.1-0.16-1.57-0.51c-3.52-2.56-5.63-6.68-5.63-11.03c0-4.31,2.08-8.42,5.57-10.98
			c1.2-0.88,2.87-0.62,3.74,0.57c0.88,1.19,0.62,2.87-0.57,3.74c-2.15,1.58-3.38,4.01-3.38,6.66c0,2.64,1.27,5.14,3.42,6.69
			c1.2,0.87,1.47,2.54,0.6,3.74C196.93,184.38,196.11,184.76,195.28,184.76L195.28,184.76z"/>
		<path class="st1" d="M196.28,166.23c-0.83,0-1.64-0.38-2.16-1.1c-0.88-1.19-0.62-2.87,0.57-3.74c2.15-1.58,3.38-4.01,3.38-6.66
			c0-2.64-1.27-5.14-3.42-6.69c-1.2-0.87-1.47-2.54-0.6-3.74c0.87-1.2,2.54-1.47,3.74-0.6c3.53,2.56,5.64,6.68,5.64,11.03
			c0,4.31-2.08,8.42-5.57,10.98C197.39,166.06,196.83,166.23,196.28,166.23L196.28,166.23z"/>
		<path class="st1" d="M148.79,148c-0.55,0-1.1-0.16-1.57-0.51c-3.52-2.56-5.63-6.68-5.63-11.03c0-4.32,2.08-8.42,5.57-10.99
			c1.19-0.88,2.87-0.62,3.74,0.58c0.88,1.19,0.62,2.87-0.57,3.74c-2.15,1.57-3.38,4-3.38,6.66c0,2.64,1.27,5.14,3.42,6.69
			c1.2,0.87,1.47,2.54,0.6,3.74C150.44,147.62,149.62,148,148.79,148L148.79,148z"/>
		<path class="st1" d="M164.05,184.76c-0.55,0-1.1-0.16-1.57-0.51c-3.52-2.56-5.63-6.68-5.63-11.03c0-4.31,2.08-8.42,5.57-10.98
			c1.19-0.88,2.87-0.62,3.74,0.57c0.88,1.19,0.62,2.87-0.57,3.74c-2.15,1.57-3.38,4-3.38,6.66c0,2.64,1.27,5.14,3.42,6.69
			c1.2,0.87,1.47,2.54,0.6,3.74C165.7,184.38,164.88,184.76,164.05,184.76L164.05,184.76z"/>
		<path class="st1" d="M165.05,166.23c-0.83,0-1.64-0.38-2.16-1.1c-0.88-1.19-0.62-2.87,0.57-3.74c2.15-1.57,3.38-4,3.38-6.66
			c0-2.64-1.27-5.14-3.42-6.69c-1.2-0.87-1.47-2.54-0.6-3.74c0.87-1.2,2.54-1.47,3.74-0.6c3.52,2.56,5.63,6.68,5.63,11.03
			c0,4.31-2.08,8.42-5.57,10.98C166.16,166.06,165.6,166.23,165.05,166.23L165.05,166.23z"/>
		<path class="st1" d="M164.05,148c-0.55,0-1.1-0.16-1.57-0.51c-3.52-2.56-5.63-6.68-5.63-11.03c0-4.32,2.08-8.42,5.57-10.99
			c1.19-0.88,2.87-0.62,3.74,0.58c0.88,1.19,0.62,2.87-0.57,3.74c-2.15,1.57-3.38,4-3.38,6.66c0,2.64,1.27,5.14,3.42,6.69
			c1.2,0.87,1.47,2.54,0.6,3.74C165.7,147.62,164.88,148,164.05,148L164.05,148z"/>
		<path class="st1" d="M149.79,129.48c-0.83,0-1.64-0.38-2.16-1.1c-0.88-1.19-0.62-2.87,0.57-3.74c2.15-1.57,3.38-4,3.38-6.66
			c0-2.64-1.27-5.14-3.42-6.69c-1.2-0.87-1.47-2.54-0.6-3.74c0.87-1.2,2.54-1.47,3.74-0.6c3.52,2.56,5.63,6.68,5.63,11.03
			c0,4.32-2.08,8.42-5.57,10.99C150.89,129.31,150.34,129.48,149.79,129.48L149.79,129.48z"/>
		<path class="st1" d="M178.53,148c-0.55,0-1.1-0.16-1.57-0.51c-3.53-2.56-5.64-6.68-5.64-11.03c0-4.31,2.08-8.42,5.57-10.99
			c1.2-0.88,2.87-0.62,3.74,0.58c0.88,1.19,0.62,2.87-0.57,3.74c-2.15,1.57-3.38,4.01-3.38,6.66c0,2.64,1.27,5.14,3.42,6.69
			c1.2,0.87,1.47,2.54,0.6,3.74C180.18,147.62,179.36,148,178.53,148L178.53,148z"/>
		<path class="st1" d="M179.53,129.48c-0.83,0-1.64-0.38-2.16-1.1c-0.88-1.19-0.62-2.87,0.57-3.74c2.15-1.57,3.38-4.01,3.38-6.66
			c0-2.64-1.27-5.14-3.42-6.69c-1.2-0.87-1.47-2.54-0.6-3.74c0.87-1.2,2.54-1.47,3.74-0.6c3.53,2.56,5.64,6.68,5.64,11.03
			c0,4.31-2.08,8.42-5.57,10.99C180.63,129.31,180.08,129.48,179.53,129.48L179.53,129.48z"/>
	</g>
	<rect x="100.75" y="303.55" style="fill:none;" width="710.98" height="694.45"/>
	<text transform="matrix(1 0 0 1 100.745 341.656)"><tspan x="0" y="0" style="fill:#333333; font-family:'Avenir-Roman'; font-size:50.4px;">Location:</tspan><tspan x="207.39" y="0" style="fill:#333333; font-family:'Avenir-Light'; font-size:50.4px;"> </tspan><tspan x="0" y="60.48" style="fill:#333333; font-family:'Avenir-Light'; font-size:50.4px;">825 Mission St</tspan><tspan x="0" y="181.44" style="fill:#333333; font-family:'Avenir-Roman'; font-size:50.4px;">Time on Transportation:</tspan><tspan x="0" y="241.92" style="fill:#333333; font-family:'Avenir-Light'; font-size:50.4px;">26 min - from CCA</tspan><tspan x="0" y="302.4" style="fill:#333333; font-family:'Avenir-Light'; font-size:50.4px;">13 min - from Home</tspan></text>
	<rect x="267.97" y="199" style="fill:none;" width="494.98" height="113"/>
	
		<text transform="matrix(1 0 0 1 267.9701 242.6172)" style="fill:#333333; font-family:'Avenir-Black'; font-size:57.6948px; text-decoration: underline;">Green Papaya</text>
</g>
</svg>
