<!-- Generator: Adobe Illustrator 23.0.0, SVG Export Plug-In  -->
<svg version="1.1" xmlns="http://www.w3.org/2000/svg" xmlns:xlink="http://www.w3.org/1999/xlink" x="0px" y="0px"
	 width="845.22px" height="1001.5px" viewBox="0 0 845.22 1001.5" style="enable-background:new 0 0 845.22 1001.5;"
	 xml:space="preserve">
<style type="text/css">
	.st0{opacity:0.57;fill:#FFFFFF;}
	.st1{fill:#DC8480;}
</style>
<defs>
</defs>
<g>
	<rect class="st0" width="845.22" height="770"/>
	<g>
		<path class="st1" d="M135.1,161.72c0,7.18,5.83,13.01,13.01,13.01s13.01-5.83,13.01-13.01c0,7.18,5.83,13.01,13.01,13.01
			c7.18,0,13.01-5.83,13.01-13.01c0,7.18,5.83,13.01,13.01,13.01c7.18,0,13.01-5.83,13.01-13.01c0,7.18,5.83,13.01,13.01,13.01
			c7.18,0,13.01-5.83,13.01-13.01c0,5.41,3.32,10.05,8.02,12.02v69.17H127.07v-69.17C131.77,171.78,135.1,167.13,135.1,161.72
			L135.1,161.72z M265.25,161.72v-9.08l-18.9-36.05H128.02l-18.95,36.05v9.08c0,5.41,3.32,10.05,8.03,12.02v69.17l-8.03-0.01v10.77
			h156.18V242.9h-8.02v-69.17C261.93,171.78,265.25,167.13,265.25,161.72L265.25,161.72z"/>
		<path class="st1" d="M198.78,186.8c-1.44,0-2.61-1.17-2.62-2.62c0-0.48-0.39-0.87-0.87-0.87s-0.87,0.39-0.87,0.87
			c0,1.44-1.17,2.61-2.62,2.62c-0.48,0-0.87,0.39-0.87,0.87c0,0.48,0.39,0.87,0.87,0.87c1.44,0,2.61,1.17,2.62,2.62
			c0,0.48,0.39,0.87,0.87,0.87s0.87-0.39,0.87-0.87c0-1.44,1.17-2.61,2.62-2.62c0.48,0,0.87-0.39,0.87-0.87
			C199.65,187.19,199.26,186.8,198.78,186.8z"/>
		<rect x="177.85" y="212.96" class="st1" width="12.21" height="3.49"/>
		<path class="st1" d="M185.7,194.65c-0.23,0-0.45-0.09-0.62-0.26c-0.16-0.16-0.26-0.39-0.26-0.62c0-1.42-0.8-2.62-1.74-2.62
			c-0.48,0-0.87-0.39-0.87-0.87s0.39-0.87,0.87-0.87c1.92,0,3.49,1.96,3.49,4.36c0,0.23-0.09,0.45-0.26,0.62
			C186.15,194.56,185.93,194.65,185.7,194.65L185.7,194.65z M188.55,191.34c-0.14-1.66-1.19-3.1-2.73-3.74l-5.24-2.29l0,0
			c-0.62-0.27-1.34-0.22-1.91,0.16c-0.51,0.32-0.82,0.87-0.82,1.47v24.28H190L188.55,191.34z"/>
		<path class="st1" d="M179.6,231.27c0,0.48-0.39,0.87-0.87,0.87c-0.48,0-0.87-0.39-0.87-0.87v-8.72c0-0.48,0.39-0.87,0.87-0.87
			c0.48,0,0.87,0.39,0.87,0.87V231.27z M176.11,218.19v15.7h15.7v-15.7H176.11z"/>
	</g>
	<rect x="109.06" y="307.05" style="fill:none;" width="710.98" height="694.45"/>
	<text transform="matrix(1 0 0 1 109.0634 345.156)"><tspan x="0" y="0" style="fill:#333333; font-family:'Avenir-Roman'; font-size:50.4px;">Location:</tspan><tspan x="207.39" y="0" style="fill:#333333; font-family:'Avenir-Light'; font-size:50.4px;"> </tspan><tspan x="0" y="60.48" style="fill:#333333; font-family:'Avenir-Light'; font-size:50.4px;">33 Powell St</tspan><tspan x="0" y="181.44" style="fill:#333333; font-family:'Avenir-Roman'; font-size:50.4px;">Time on Transportation:</tspan><tspan x="0" y="241.92" style="fill:#333333; font-family:'Avenir-Light'; font-size:50.4px;">35 min - from CCA</tspan><tspan x="0" y="302.4" style="fill:#333333; font-family:'Avenir-Light'; font-size:50.4px;">14 min - from Home</tspan></text>
	<rect x="294.23" y="205.34" style="fill:none;" width="504.98" height="96.16"/>
	
		<text transform="matrix(1 0 0 1 294.2319 248.9531)" style="fill:#333333; font-family:'Avenir-Black'; font-size:57.6948px; text-decoration: underline;">Sephora</text>
	<polygon style="fill:none;" points="171.56,588.18 525.71,588.18 525.71,588.18 171.56,588.18 	"/>
</g>
</svg>
