<!-- Generator: Adobe Illustrator 23.0.0, SVG Export Plug-In  -->
<svg version="1.1" xmlns="http://www.w3.org/2000/svg" xmlns:xlink="http://www.w3.org/1999/xlink" x="0px" y="0px"
	 width="1028.16px" height="837.04px" viewBox="0 0 1028.16 837.04" style="enable-background:new 0 0 1028.16 837.04;"
	 xml:space="preserve">
<style type="text/css">
	.st0{fill:#E6E6E6;}
	.st1{fill:#CCCCCC;}
	.st2{fill:none;stroke:#F2F2F2;stroke-width:4.536;stroke-linecap:round;stroke-linejoin:round;stroke-miterlimit:10;}
	.st3{fill:none;}
	
		.st4{fill-rule:evenodd;clip-rule:evenodd;fill:none;stroke:#F2F2F2;stroke-width:4.536;stroke-linecap:round;stroke-linejoin:round;stroke-miterlimit:10;}
</style>
<defs>
</defs>
<g id="XMLID_2_">
	<g>
		<path class="st0" d="M1027.91,773.27v32l-75.85,4.93c-0.47,0.03-0.71,0.59-0.4,0.95l11.25,13.12h-926c-9-62-19.34-110.94-18-131
			c0.33-5.02-1.01-13.97-2.88-27.07l14.43-3.98c2.29-0.63,4.65-1.01,7.02-1.13l364.34-18.76c0.68-0.04,1.36,0.13,1.94,0.48
			c4.39,2.66,25.2,13.65,49.15-0.54l-9-77L32.32,592.18c-0.79,0.05-1.49-0.52-1.6-1.31c-1.5-11.28-6.81-82.6-1.81-104.6
			c4.57-20.1,75-48,91.57-51.5c9.12,5.92,18.51,12.04,24.43,11.5c11-1,1-10,21-11c3.58-0.18,14.26-7.13,16.31-12.46
			c0.63-1.63,2.21-2.67,3.95-2.54c13.76,0.99,21.76-4.02,34.74-24c23.32,19.86,27.24,54.65,27.88,63.76
			c0.09,1.27,1.14,2.24,2.41,2.24h87.78c1.9,0,3.73-0.65,5.23-1.83c85.26-67.03,180.8-57.02,193.32-55.37
			c0.74,0.1,1.38-0.47,1.38-1.21V334c0-0.49-0.03-0.97-0.13-1.45c-2.82-13.49-28.73-46.57-20.87-62.28
			c8.05-3.35,59.34-37.24,67.46-15.76c0.41,1.09,1.4,1.86,2.55,2.07c2.65,0.49,6.99-1.31,6.99,3.69v4.48c0,1.92,1.23,3.63,3.07,4.19
			c1.27,0.39,2.96,0.65,5.12,0.49c0,0-1.19,9.84,5.81,14.84s51,7,57,0s2.52-28.02,2.52-28.02c7.74-1.77,16.42-7,25.32-18.45
			c0.66-0.85,1.84-1.09,2.78-0.55c24.94,14.39,26.02-16.68,56.69-10.36c0.87,0.18,1.69-0.5,1.69-1.39v-7.23l37-5l0.97,29.11
			c0.02,0.55,0.33,1.04,0.82,1.29l1.81,0.9c0.62,0.31,1.36-0.17,1.33-0.87l-0.93-19.43c0,0,7-4,8,0l-1.94,27.17
			c-0.03,0.47,0.3,0.89,0.77,0.97l4.4,0.73c0.44,0.08,0.88-0.19,1.02-0.62l5.75-17.25l6,2l-8.52,16.1
			c-0.26,0.48-0.04,1.08,0.47,1.28l3.31,1.32c0.42,0.17,0.91,0,1.14-0.39l7.6-13.31l7,4l-12.1,12.1c-0.44,0.44-0.32,1.19,0.24,1.47
			l6.25,3.12c0.36,0.19,0.8,0.11,1.08-0.19l15.53-16.5l3,4l-3.77,34.84c-0.01,0.07-0.01,0.14-0.01,0.21c0,1.06,0.86,1.95,1.95,1.95
			c0.54,0,1.05-0.2,1.44-0.56l12.39-11.44l3,2l-13.51,13.51c-0.31,0.31-0.41,0.75-0.27,1.16c0.59,1.7,1.78,6.33,4.78,4.33l15-12l2,3
			l-16.27,12.45c-0.29,0.21-0.44,0.54-0.44,0.87c0,0.17,0.04,0.34,0.12,0.5c0.31,0.61,1.1,0.8,1.65,0.39l14.94-11.21l8,11
			l-18.03,14.23c-0.51,0.41-0.56,1.18-0.09,1.65l1.43,1.43c0.39,0.39,1.02,0.43,1.46,0.09l17.23-13.4l4,4l-17.59,14.95
			c-1.45,1.23-1.41,3.52,0.12,4.63c21.56,15.64,52.53,96.41,93.47,88.42v6l-10.44,1.9c-0.32,0.06-0.56,0.34-0.56,0.67v3.6
			c0,0.43,0.39,0.75,0.81,0.67l9.19-1.84l1,6h-11.17c-0.43,0-0.75,0.39-0.67,0.81l0.73,3.64c0.06,0.32,0.34,0.55,0.67,0.55h16.44v18
			h-24.35c-0.36,0-0.66,0.29-0.68,0.65l-0.94,23.61c-0.02,0.4,0.31,0.73,0.71,0.71l22.26-0.97l-1,6h-22.32
			c-0.38,0-0.68,0.3-0.68,0.68v3.56c0,0.41,0.35,0.72,0.76,0.68l17.24-1.92v6l-16.2,0.95c-0.42,0.03-0.72,0.42-0.63,0.83l3.48,15.66
			c0.22,0.97-0.08,1.98-0.79,2.68l-47.31,46.34c-0.29,0.28-0.26,0.76,0.07,1l2.91,2.19c0.27,0.2,0.64,0.17,0.88-0.07l20.59-21.5
			c1.39-1.44,3.14-2.48,5.07-2.99c5.23-1.39,15.57-3.29,18.37,2.27c0.5,0.98,1.45,1.64,2.55,1.64h15.01v11.31
			c0,0.31-0.32,0.5-0.58,0.35c-3.02-1.69-16.66-8.65-15.51,4.54c0.04,0.45,0.44,0.79,0.89,0.78l40.2-0.98l1,27
			c0,0-15.52-19.4-40.83-16.16c-0.7,0.08-1.24,0.66-1.31,1.36c-0.54,5.04-1.87,24.09,9.66,18.6c0.92-0.44,1.48-1.39,1.48-2.4v-5.4h3
			c0,0,1.37,7.52,0.14,11.26c-0.35,1.07,0.16,2.23,1.22,2.63l12.2,4.57c0.95,0.36,1.64,1.19,1.82,2.19
			c0.47,2.59,0.76,7.33-3.32,7.42c-0.64,0.01-1.27-0.19-1.82-0.52l-13.39-8.04c-0.39-0.23-0.89,0.03-0.9,0.49
			c-0.07,2.5,0.12,8.99,3.94,10.67c0.76,0.34,1.28,1.05,1.46,1.87c0.85,4.05,2.7,14.84-1.35,16.46c0,0-9,5-9,12
			c0,0,3.39,15.25-2.31,20.79c-0.41,0.4-0.08,1.1,0.49,1.05l11.82-0.84v9.76c0,0.11,0.1,0.19,0.21,0.16
			c0.53-0.15,1.96-0.31,3.46,1.62c0.1,0.13,0.31,0.04,0.3-0.12l-0.97-17.42h3v16.62c0,0.21,0.17,0.38,0.38,0.38h6.22
			c0.22,0,0.39-0.18,0.38-0.4l-0.98-16.6h3l0.97,17.51c0.02,0.3,0.21,0.55,0.49,0.67c1.27,0.57,3.43,2.75,1.66,5.63
			c-0.06,0.1-0.04,0.23,0.07,0.29c1.2,0.67,7.87,4.78,8.8,13.83c0.01,0.04,0.04,0.07,0.08,0.07h10.85v3h-9.67
			c-0.13,0-0.23,0.12-0.2,0.25c0.49,2.59,4.6,25.12,0.05,36.5c-0.05,0.13,0.07,0.19,0.16,0.3c0.74,0.95,7.74,3.95,3.74,6.95
			c-2.26,1.69-14.92-0.98-26.88,1.97c-0.06,0.02-0.09,0.08-0.05,0.13c0.46,0.67,3.3,4.34,9.2,2.19c0.52-0.19,1.09-0.1,1.5,0.25
			c1.46,1.22,3.19,4.42,1.29,12.21c-0.03,0.12,0.06,0.25,0.19,0.25c1.59,0.03,10.22,0.34,10.73,3.69c0.02,0.15,0.19,0.25,0.33,0.2
			c2.21-0.75,13.53,1.08,11.73,7.96c-0.02,0.07,0.03,0.15,0.11,0.14L1027.91,773.27z M657.91,810.27c9-6,12-42,0-50
			c-11.32-7.54-67.1-5.31-73.42-5.03c-0.38,0.02-0.76,0.04-1.14,0.09c-20.5,2.57-23.86,37.63-9.44,50.94
			C586.91,818.27,649.22,816.06,657.91,810.27z"/>
		<path class="st1" d="M668.43,256.25c0,0,3.48,21.02-2.52,28.02s-50,5-57,0s-5.81-14.84-5.81-14.84
			c6.62-0.48,17.7-4.83,34.85-21.24c0.52-0.5,1.35-0.53,1.89-0.05C643.02,250.98,654.1,259.55,668.43,256.25z"/>
		<path class="st1" d="M657.91,760.27c12,8,9,44,0,50c-8.69,5.79-71,8-84-4c-14.42-13.31-11.06-48.37,9.44-50.94
			c0.38-0.05,0.76-0.07,1.14-0.09C590.81,754.96,646.59,752.73,657.91,760.27z"/>
		<path class="st1" d="M538.91,334v69.86c0,0.74-0.64,1.31-1.38,1.21c-12.52-1.65-108.06-11.66-193.32,55.37
			c-1.5,1.18-3.33,1.83-5.23,1.83H251.2c-1.27,0-2.32-0.97-2.41-2.24c-0.64-9.11-4.56-43.9-27.88-63.76c8.48-13.04,17-41,17-75
			c0-13.6,16-26,20-34s6-40,8-44s8-3,9-7c0.68-2.7,0.44-6.77,0.21-9.13c-0.09-0.96,0.75-1.76,1.71-1.62
			c4.32,0.62,6.2-0.31,16.75,6.63c0.98,0.65,2.73,0.99,3.89,0.75c9.62-2.06,26.05-4.89,41.44,5.37c12,8,15.85,32.37,37,34
			c52,4,70-21,106-15c6.22,1.04,11.79-1.42,14.29-6.31c0.55-1.07,1.67-1.72,2.87-1.74c8.3-0.11,36.85-2.99,35.84,2.05
			c-0.71,3.54-11,4-16,4c-5.1,0-21,1-23,6s10,14,22,9c-7.86,15.71,18.05,48.79,20.87,62.28C538.88,333.03,538.91,333.51,538.91,334z
			"/>
		<path class="st1" d="M443.91,565.27l9,77c-23.95,14.19-44.76,3.2-49.15,0.54c-0.58-0.35-1.26-0.52-1.94-0.48L37.48,661.09
			c-2.37,0.12-4.73,0.5-7.02,1.13l-14.43,3.98c-3.7-26.01-9.45-68.4-8.12-128.93c0.16-7.21-3.87-9.23-7-28c-2-12,0.87-11.66,4-13
			c7-3-5-9,11-22c4.18-3.4,3.97-7.16,15-9c6-1,7-20,28-28c7.93-3.02,14-3,19-5s11-9,22-8c5.08,0.46,12.73,5.41,20.57,10.5
			c-16.57,3.5-87,31.4-91.57,51.5c-5,22,0.31,93.32,1.81,104.6c0.11,0.79,0.81,1.36,1.6,1.31L443.91,565.27z"/>
	</g>
	<g>
	</g>
</g>
<path class="st2" d="M53.41,834.77c-14-14-28-282-28-282"/>
<path class="st2" d="M282.91,826.27c-6-9-38-236-28-253s40.28-6.57,51-8c15-2-44.06-151.88-36-168c10-20,83-9,87-12s0-103,0-103"/>
<path class="st2" d="M111.91,530.27c16,7,83,0,83,0l494-55"/>
<path class="st2" d="M134.91,2.27c0,0,175.32,225.34,187,236c11.69,10.66,49.94,76.44,79,72c32.38-4.95,23-20,49-22s84,52,102,52
	s66-26,88-23s35,25,43,56s6,243,24,259s70-3,85,16s9,25,9,25"/>
<path class="st2" d="M945.91,431.27c0,0-132,129-144,136s-22,20-17,40s32,31,31,41s-22,26-22,45s38,49,41,63s-15,78-15,78"/>
<polygon class="st3" points="318.28,518.79 321.93,518.79 321.93,518.79 318.28,518.79 "/>
<path class="st4" d="M115.41,530.77c-15-3-78-33-86-25s-4.5,54.5-4.5,54.5"/>
</svg>
