<!-- Generator: Adobe Illustrator 23.0.0, SVG Export Plug-In  -->
<svg version="1.1" xmlns="http://www.w3.org/2000/svg" xmlns:xlink="http://www.w3.org/1999/xlink" x="0px" y="0px"
	 width="845.22px" height="993.4px" viewBox="0 0 845.22 993.4" style="enable-background:new 0 0 845.22 993.4;"
	 xml:space="preserve">
<style type="text/css">
	.st0{opacity:0.57;fill:#FFFFFF;}
	.st1{fill-rule:evenodd;clip-rule:evenodd;fill:#225E54;}
</style>
<defs>
</defs>
<g>
	<rect class="st0" width="845.22" height="770"/>
	<rect x="83.61" y="298.95" style="fill:none;" width="710.98" height="694.45"/>
	<text transform="matrix(1 0 0 1 83.6101 337.056)"><tspan x="0" y="0" style="fill:#333333; font-family:'Avenir-Roman'; font-size:50.4px;">Location:</tspan><tspan x="207.39" y="0" style="fill:#333333; font-family:'Avenir-Light'; font-size:50.4px;"> </tspan><tspan x="0" y="60.48" style="fill:#333333; font-family:'Avenir-Light'; font-size:50.4px;">3601 Lyon St</tspan><tspan x="0" y="181.44" style="fill:#333333; font-family:'Avenir-Roman'; font-size:50.4px;">Time on Transportation:</tspan><tspan x="0" y="241.92" style="fill:#333333; font-family:'Avenir-Light'; font-size:50.4px;">35 min - from CCA</tspan><tspan x="0" y="302.4" style="fill:#333333; font-family:'Avenir-Light'; font-size:50.4px;">15 min - from Home</tspan></text>
	<rect x="296.72" y="197.4" style="fill:none;" width="494.98" height="131"/>
	
		<text transform="matrix(1 0 0 1 296.717 241.0172)" style="fill:#333333; font-family:'Avenir-Black'; font-size:57.6948px; text-decoration: underline;">Palace of Fin Arts</text>
	<g>
		<path class="st1" d="M90.25,232.13c-0.31,0-0.56,0.25-0.56,0.56v7.99c0,0.31,0.25,0.56,0.56,0.56H256.2
			c0.31,0,0.56-0.26,0.56-0.56v-7.99c0-0.31-0.25-0.56-0.56-0.56H90.25z M256.2,247.32H90.25c-3.66,0-6.64-2.98-6.64-6.64v-7.99
			c0-3.67,2.98-6.64,6.64-6.64H256.2c3.66,0,6.64,2.98,6.64,6.64v7.99C262.84,244.34,259.86,247.32,256.2,247.32z"/>
		<path class="st1" d="M102.41,128.85c-0.31,0-0.58,0.26-0.58,0.58v96.05c0,0.32,0.26,0.58,0.58,0.58h7.96
			c0.32,0,0.58-0.26,0.58-0.58v-96.05c0-0.32-0.26-0.58-0.58-0.58H102.41z M110.37,232.13h-7.96c-3.67,0-6.65-2.98-6.65-6.66v-96.05
			c0-3.67,2.98-6.65,6.65-6.65h7.96c3.67,0,6.66,2.98,6.66,6.65v96.05C117.03,229.15,114.05,232.13,110.37,232.13z"/>
		<path class="st1" d="M236.07,128.85c-0.31,0-0.57,0.26-0.57,0.58v96.05c0,0.32,0.26,0.58,0.57,0.58h7.97
			c0.31,0,0.58-0.26,0.58-0.58v-96.05c0-0.32-0.26-0.58-0.58-0.58H236.07z M244.04,232.13h-7.97c-3.67,0-6.65-2.98-6.65-6.66v-96.05
			c0-3.67,2.98-6.65,6.65-6.65h7.97c3.67,0,6.65,2.98,6.65,6.65v96.05C250.69,229.15,247.7,232.13,244.04,232.13z"/>
		<path class="st1" d="M202.66,128.85c-0.31,0-0.58,0.26-0.58,0.58v96.05c0,0.32,0.26,0.58,0.58,0.58h7.96
			c0.32,0,0.58-0.26,0.58-0.58v-96.05c0-0.32-0.26-0.58-0.58-0.58H202.66z M210.62,232.13h-7.96c-3.67,0-6.65-2.98-6.65-6.66v-96.05
			c0-3.67,2.98-6.65,6.65-6.65h7.96c3.67,0,6.66,2.98,6.66,6.65v96.05C217.28,229.15,214.29,232.13,210.62,232.13z"/>
		<path class="st1" d="M169.25,128.85c-0.32,0-0.58,0.26-0.58,0.58v96.05c0,0.32,0.26,0.58,0.58,0.58h7.96
			c0.32,0,0.58-0.26,0.58-0.58v-96.05c0-0.32-0.26-0.58-0.58-0.58H169.25z M177.21,232.13h-7.96c-3.67,0-6.65-2.98-6.65-6.66v-96.05
			c0-3.67,2.98-6.65,6.65-6.65h7.96c3.67,0,6.65,2.98,6.65,6.65v96.05C183.86,229.15,180.87,232.13,177.21,232.13z"/>
		<path class="st1" d="M135.83,128.85c-0.31,0-0.57,0.26-0.57,0.58v96.05c0,0.32,0.26,0.58,0.57,0.58h7.97
			c0.31,0,0.58-0.26,0.58-0.58v-96.05c0-0.32-0.26-0.58-0.58-0.58H135.83z M143.79,232.13h-7.97c-3.67,0-6.65-2.98-6.65-6.66v-96.05
			c0-3.67,2.98-6.65,6.65-6.65h7.97c3.67,0,6.65,2.98,6.65,6.65v96.05C150.44,229.15,147.46,232.13,143.79,232.13z"/>
		<path class="st1" d="M92.72,122.77h161v-9.11h-161V122.77z M256.76,128.85H89.69c-1.68,0-3.04-1.36-3.04-3.04v-15.19
			c0-1.68,1.36-3.04,3.04-3.04h167.07c1.68,0,3.04,1.36,3.04,3.04v15.19C259.8,127.49,258.44,128.85,256.76,128.85z"/>
		<path class="st1" d="M247.65,113.66c-1.68,0-3.03-1.36-3.03-3.04c0-22.6-37.69-39.49-71.39-39.49s-71.39,16.89-71.39,39.49
			c0,1.68-1.35,3.04-3.03,3.04c-1.68,0-3.04-1.36-3.04-3.04c0-24.27,36.2-45.57,77.46-45.57s77.46,21.3,77.46,45.57
			C250.69,112.3,249.33,113.66,247.65,113.66"/>
	</g>
</g>
</svg>
