<!-- Generator: Adobe Illustrator 23.0.0, SVG Export Plug-In  -->
<svg version="1.1" xmlns="http://www.w3.org/2000/svg" xmlns:xlink="http://www.w3.org/1999/xlink" x="0px" y="0px"
	 width="616.55px" height="441.33px" viewBox="0 0 616.55 441.33" style="enable-background:new 0 0 616.55 441.33;"
	 xml:space="preserve">
<style type="text/css">
	.st0{fill:none;}
	.st1{fill:#FFFFFF;stroke:#FFFFFF;stroke-miterlimit:10;}
	.st2{fill:#FFFFFF;stroke:#FFFFFF;stroke-width:0.1076;stroke-linecap:round;stroke-linejoin:round;stroke-miterlimit:10;}
	.st3{fill:#FFFFFF;stroke:#FFFFFF;stroke-width:0.5292;stroke-linejoin:round;stroke-miterlimit:10;}
	.st4{fill-rule:evenodd;clip-rule:evenodd;fill:#FFFFFF;stroke:#FFFFFF;stroke-miterlimit:10;}
	.st5{fill:#FFFFFF;stroke:#FFFFFF;stroke-width:0.2959;stroke-linejoin:round;stroke-miterlimit:10;}
</style>
<defs>
</defs>
<polygon class="st0" points="31.92,341.03 0,341.03 0,0 616.55,0 616.55,294.22 538.21,441.33 31.92,441.33 "/>
<polygon class="st1" points="210.33,395.84 210.33,392.06 124.22,392.06 124.22,395.84 126.99,395.84 126.99,431.24 125.44,431.24 
	125.44,434.27 131.72,434.27 131.72,431.24 130.19,431.24 130.19,417.42 204.34,417.42 204.34,431.24 202.8,431.24 202.8,434.27 
	209.07,434.27 209.07,431.24 207.54,431.24 207.54,395.84 "/>
<path class="st1" d="M210.49,68.25L210.49,68.25c-0.72,0.07-1.25,0.71-1.19,1.43s0.71,1.26,1.43,1.19h2.63
	c0.35,0.01,0.69-0.13,0.94-0.38c0.25-0.25,0.4-0.58,0.4-0.93c0-0.35-0.14-0.69-0.4-0.93c-0.25-0.25-0.59-0.38-0.94-0.38h-2.63
	C210.66,68.24,210.58,68.24,210.49,68.25L210.49,68.25z M202.86,59.05h36.79v21.02h-36.79V59.05z M210.49,44.6L210.49,44.6
	c-0.35,0.03-0.67,0.2-0.89,0.47c-0.23,0.27-0.33,0.62-0.3,0.96c0.07,0.73,0.71,1.26,1.44,1.19h2.63c0.35,0.01,0.69-0.13,0.94-0.37
	c0.25-0.25,0.39-0.59,0.39-0.94c0-0.35-0.14-0.69-0.39-0.93c-0.25-0.25-0.59-0.38-0.94-0.38h-2.63
	C210.66,44.59,210.58,44.59,210.49,44.6L210.49,44.6z M202.86,35.4h36.79v21.02h-36.79V35.4z M131.9,35.4h7.88v44.67h-7.88V35.4z
	 M131.9,22.26h107.74v10.51H131.9V22.26z M130.51,19.63c-0.69,0.04-1.23,0.62-1.23,1.31v12.98c-0.01,0.05-0.01,0.11,0,0.16
	c-0.01,0.08-0.01,0.16,0,0.25v47.05c0,0.72,0.59,1.31,1.31,1.31h10.51c0.72,0,1.31-0.59,1.31-1.31V35.4h57.81v45.99
	c0,0.72,0.59,1.31,1.31,1.31h39.42c0.73,0,1.31-0.59,1.31-1.31V34.25c0.01-0.06,0.01-0.11,0-0.16c0.01-0.04,0.01-0.08,0-0.12V20.95
	c0.02-0.64-0.44-1.2-1.07-1.31c-0.08-0.01-0.16-0.01-0.25,0H130.59L130.51,19.63L130.51,19.63z"/>
<g>
	<path class="st1" d="M83.07,245.19v16.28h-6.84v10.95h6.84v35.43c-0.03,1.37,0.93,2.57,2.28,2.85c0.8,0.13,1.61-0.09,2.23-0.61
		c0.62-0.52,0.97-1.29,0.97-2.09h27.37c0.76,0,1.37-0.61,1.37-1.37v-1.37c0-0.76-0.61-1.37-1.37-1.37H88.54v-58.84
		c0-0.8-0.35-1.57-0.97-2.09c-0.62-0.52-1.43-0.74-2.23-0.61C83.99,242.61,83.03,243.81,83.07,245.19L83.07,245.19z"/>
	<path class="st1" d="M99.48,254.62c0.76,0,1.37,0.61,1.37,1.37c0,0.76-0.62,1.37-1.37,1.37h-1.37v8.21h5.48v-19.16h-5.48v8.21
		L99.48,254.62z"/>
	<path class="st1" d="M107.7,254.62c0.76,0,1.37,0.61,1.37,1.37c0,0.76-0.61,1.37-1.37,1.37h-1.37v8.21h9.58v-19.16h-9.58v8.21
		L107.7,254.62z"/>
	<path class="st1" d="M91.28,254.62c0.76,0,1.37,0.61,1.37,1.37c0,0.76-0.61,1.37-1.37,1.37h-1.37v8.21h5.47v-19.16h-5.47v8.21
		L91.28,254.62z"/>
	<rect x="102.22" y="273.78" class="st1" width="13.68" height="23.26"/>
	<path class="st1" d="M96.75,275.15v20.53c0,0.75,0.62,1.36,1.37,1.37h1.37v-23.26h-1.37C97.36,273.78,96.75,274.39,96.75,275.15
		L96.75,275.15z"/>
	<path class="st1" d="M66.36,287.75l-8.89-8.89c-0.35-0.35-0.48-0.85-0.36-1.33c0.13-0.47,0.5-0.84,0.97-0.97
		c0.48-0.13,0.98,0.01,1.33,0.35l8.89,8.9c0.53,0.54,0.53,1.4,0,1.94C67.76,288.28,66.9,288.28,66.36,287.75L66.36,287.75z
		 M66.25,276.91l2.74,2.74c0.53,0.54,0.53,1.4,0,1.94c-0.54,0.53-1.4,0.53-1.94,0l-2.74-2.74c-0.54-0.54-0.54-1.41,0-1.94
		C64.84,276.37,65.71,276.37,66.25,276.91z M73.49,286.09c0-7.54-7.68-13.68-17.11-13.68c-9.43,0-17.11,6.14-17.11,13.68
		c0,7.54,7.68,13.68,17.11,13.68C65.81,299.78,73.49,293.63,73.49,286.09z"/>
	<path class="st1" d="M75.57,290.2h6.13v-8.21h-6.13C76.44,284.66,76.44,287.53,75.57,290.2z"/>
	<path class="st1" d="M66.64,262.83l1.37,5.47c2.74-2.74,8.21,0,8.21,0C72.12,260.1,66.64,262.83,66.64,262.83L66.64,262.83z"/>
	<path class="st1" d="M78.96,247.78c-1.75,0.01-3.31,1.12-3.87,2.78c-0.08-0.02-0.16-0.04-0.24-0.05h-2.74
		c-0.76,0-1.37,0.61-1.37,1.37c0,0.76,0.61,1.37,1.37,1.37h2.74c0.08-0.01,0.16-0.02,0.24-0.05c0.68,1.98,2.73,3.13,4.77,2.67
		c2.04-0.46,3.41-2.38,3.18-4.45C82.81,249.34,81.05,247.77,78.96,247.78L78.96,247.78z"/>
</g>
<path class="st2" d="M89.63,226.78"/>
<g>
	<path class="st1" d="M98.88,214l0.06-0.43l-2.53,0.14l-0.68,0.47L98.88,214z M96.32,212.76l2.57-0.23l0.33,1.6l-3.94,0.31
		L96.32,212.76z M99.38,214.42c-0.22-0.95-0.42-2.01-0.38-2.16l0.01-0.01c0.06-0.04,0.12-0.04,0.2-0.03c0.02,0,0.04,0.01,0.04,0
		l0.25,0.04c0.01-0.01,0.03,0,0.05,0.03c0.21,0.31,0.49,1.74,0.41,2.17c-0.01,0.07-0.03,0.08-0.04,0.09l-0.01,0.01
		c-0.2,0.06-0.43-0.07-0.52-0.12l-0.01-0.01L99.38,214.42z M100.08,212.27c0.12-0.08,0.4-0.13,0.78-0.14
		c0.36-0.01,0.74,0.02,0.84,0.05l0.01-0.01l0.03,0.04c0.2,0.29,0.33,1.88,0.34,2.23c0,0.05-0.04,0.07-0.09,0.11
		c-0.34,0.17-1.37,0.13-1.55,0.01l-0.02-0.03c-0.1-0.14-0.23-0.63-0.33-1.17C100.02,212.8,100,212.37,100.08,212.27L100.08,212.27z"
		/>
</g>
<g>
	<rect x="104.29" y="240.13" class="st3" width="1.85" height="2.12"/>
	<polygon class="st3" points="104.29,240.13 104.29,242.25 102.18,242.77 102.18,239.6 	"/>
	<polygon class="st3" points="104.29,240.13 104.29,242.25 102.18,242.77 102.18,239.6 	"/>
	<line class="st3" x1="102.7" y1="240.58" x2="103.76" y2="240.82"/>
	<path class="st3" d="M99.27,241.19c0-0.88,0.71-1.59,1.59-1.59h1.32v3.18h-1.32C99.98,242.77,99.27,242.06,99.27,241.19z"/>
	<rect x="104.29" y="234.31" class="st3" width="1.85" height="1.59"/>
	<polygon class="st3" points="104.29,234.31 104.29,235.9 102.18,236.42 102.18,233.78 	"/>
	<polygon class="st3" points="104.29,234.31 104.29,235.9 102.18,236.42 102.18,233.78 	"/>
	<line class="st3" x1="102.7" y1="234.76" x2="103.76" y2="235"/>
	<polygon class="st3" points="102.18,233.78 102.18,236.42 100.32,236.42 99.27,233.78 	"/>
	<rect x="104.29" y="227.96" class="st3" width="1.85" height="1.32"/>
	<polygon class="st3" points="104.29,227.96 104.29,229.28 102.18,229.81 102.18,227.43 	"/>
	<polygon class="st3" points="104.29,227.96 104.29,229.28 102.18,229.81 102.18,227.43 	"/>
	<line class="st3" x1="102.7" y1="228.41" x2="103.76" y2="228.65"/>
	<path class="st3" d="M99.27,228.62c0-0.66,0.53-1.19,1.19-1.19h1.72v2.38h-1.72C99.8,229.81,99.27,229.28,99.27,228.62z"/>
	<rect x="112.76" y="240.92" class="st3" width="1.85" height="0.79"/>
	<polygon class="st3" points="112.76,240.92 112.76,241.72 110.64,242.25 110.64,240.39 	"/>
	<polygon class="st3" points="112.76,240.92 112.76,241.72 110.64,242.25 110.64,240.39 	"/>
	<rect x="107.73" y="240.39" class="st3" width="2.91" height="1.85"/>
	<rect x="112.76" y="234.57" class="st3" width="1.85" height="1.59"/>
	<polygon class="st3" points="112.76,234.57 112.76,236.16 110.64,236.69 110.64,234.04 	"/>
	<polygon class="st3" points="112.76,234.57 112.76,236.16 110.64,236.69 110.64,234.04 	"/>
	<line class="st3" x1="111.17" y1="234.86" x2="112.23" y2="235.1"/>
	<path class="st3" d="M110.64,234.04v2.65l-1.56,0.39c-0.31,0.08-0.62-0.11-0.71-0.41l-0.65-2.38c-0.05-0.2,0-0.41,0.14-0.56
		c0.14-0.15,0.35-0.21,0.55-0.17L110.64,234.04z"/>
	<rect x="112.76" y="227.96" class="st3" width="1.85" height="1.06"/>
	<polygon class="st3" points="112.76,227.96 112.76,229.02 110.64,229.55 110.64,227.43 	"/>
	<polygon class="st3" points="112.76,227.96 112.76,229.02 110.64,229.55 110.64,227.43 	"/>
	<path class="st3" d="M110.64,227.43v2.12h-0.79c-0.83,0-1.62-0.39-2.12-1.06c0.5-0.67,1.28-1.06,2.12-1.06H110.64z"/>
</g>
<g>
	<polygon class="st1" points="110.29,212.37 110.29,214.39 111.03,214.67 111.03,212.1 	"/>
	<path class="st1" d="M113.85,214.43c0.14-0.02,0.24-0.14,0.24-0.28v-1.54c0-0.14-0.1-0.26-0.24-0.28l-2.45-0.3v2.69L113.85,214.43z
		"/>
	<path class="st1" d="M106.27,214.03v-0.46h0.33v0.37c0,0.1,0.08,0.19,0.19,0.19c0.1,0,0.19-0.08,0.19-0.19v-0.37h0.33v0.28
		c0,0.1,0.08,0.19,0.19,0.19s0.19-0.08,0.19-0.19v-0.28h2.41v-0.37h-2.41v-0.33c0-0.1-0.08-0.19-0.19-0.19s-0.19,0.08-0.19,0.19
		v0.33h-0.33v-0.42c0-0.1-0.08-0.19-0.19-0.19c-0.1,0-0.19,0.08-0.19,0.19v0.42h-0.33v-0.51c0-0.1-0.08-0.19-0.19-0.19
		c-0.1,0-0.19,0.08-0.19,0.19v0.51h-0.39v-0.42c0-0.1-0.08-0.19-0.19-0.19c-0.1,0-0.19,0.08-0.19,0.19v0.42h-0.33v-0.33
		c0-0.1-0.08-0.19-0.19-0.19s-0.19,0.08-0.19,0.19v0.98c0,0.1,0.08,0.19,0.19,0.19s0.19-0.08,0.19-0.19v-0.28h0.33v0.37
		c0,0.1,0.08,0.19,0.19,0.19c0.1,0,0.19-0.08,0.19-0.19v-0.37h0.39v0.46c0,0.1,0.08,0.19,0.19,0.19
		C106.19,214.22,106.27,214.14,106.27,214.03L106.27,214.03z"/>
</g>
<g>
	<path class="st1" d="M101.23,206.67c0.31,0,0.67-1.01,0.67-2.36c0-1.35-0.35-2.36-0.67-2.36c-0.31,0-0.87,0.97-0.87,2.36
		S100.92,206.67,101.23,206.67z"/>
	<path class="st1" d="M97.99,204.41c-0.06,0-0.1-0.05-0.1-0.1c0-0.15,0.01-0.31,0.03-0.46c0.02-0.14,0.04-0.28,0.07-0.42
		c0.01-0.05,0.06-0.08,0.11-0.08c0.05,0.01,0.09,0.05,0.09,0.1c0,0.01,0,0.02,0,0.02c-0.03,0.13-0.05,0.27-0.07,0.4
		c-0.02,0.15-0.03,0.29-0.03,0.44C98.1,204.36,98.05,204.41,97.99,204.41L97.99,204.41z M98.29,202.85
		c-0.02-0.01-0.04-0.03-0.05-0.06c-0.01-0.03-0.01-0.05,0.01-0.08c0.05-0.09,0.1-0.18,0.16-0.27c0.05-0.07,0.11-0.14,0.18-0.21
		c0.06-0.05,0.12-0.1,0.19-0.14c0.06-0.03,0.13-0.05,0.2-0.05c0.06,0,0.1,0.05,0.1,0.1c0,0.06-0.05,0.1-0.1,0.1
		c-0.04,0-0.07,0.01-0.11,0.03c-0.05,0.03-0.1,0.06-0.14,0.1c-0.06,0.05-0.11,0.11-0.15,0.18c-0.05,0.08-0.1,0.16-0.15,0.24
		c-0.01,0.02-0.03,0.04-0.06,0.05C98.34,202.87,98.31,202.86,98.29,202.85L98.29,202.85z M100.19,203.62
		c-0.17-1.02-0.69-1.78-1.23-1.78c-0.67,0-1.28,1.17-1.28,2.46c0,1.29,0.61,2.46,1.28,2.46c0.53,0,1.06-0.76,1.23-1.78
		C100.13,204.54,100.13,204.08,100.19,203.62z"/>
	<path class="st1" d="M100.39,205.85c-0.04-0.11-0.07-0.23-0.1-0.36c-0.26,0.88-0.77,1.48-1.32,1.48c-0.81,0-1.49-1.22-1.49-2.67
		s0.68-2.67,1.49-2.67c0.55,0,1.07,0.6,1.32,1.48c0.03-0.12,0.06-0.24,0.1-0.36c-0.31-0.82-0.85-1.33-1.42-1.33
		c-0.93,0-1.69,1.29-1.69,2.87s0.76,2.87,1.69,2.87C99.54,207.18,100.08,206.67,100.39,205.85L100.39,205.85z"/>
	<path class="st1" d="M101.16,201.75c0.02,0,0.05-0.01,0.07-0.01c0.57,0,0.87,1.32,0.87,2.57c0,1.24-0.31,2.57-0.87,2.57
		c-0.02,0-0.05,0-0.07-0.01c0.12,0.19,0.24,0.31,0.36,0.31c0.03,0,0.07-0.01,0.1-0.01c0.39-0.15,0.79-1.28,0.79-2.86
		c0-1.58-0.4-2.71-0.79-2.86c-0.03-0.01-0.07-0.01-0.1-0.01C101.4,201.44,101.27,201.55,101.16,201.75L101.16,201.75z"/>
	<path class="st1" d="M102.61,203.9c0.17,0,0.31,0.14,0.31,0.31v0.21c0,0.17-0.14,0.31-0.31,0.31h-0.01
		c-0.04,1.05-0.25,1.81-0.51,2.24c0.43-0.3,0.93-0.99,0.93-2.61c0-0.02,0-0.03,0-0.05c0-0.02,0-0.03,0-0.05
		c0-1.62-0.5-2.31-0.93-2.61C102.36,202.09,102.56,202.84,102.61,203.9L102.61,203.9z"/>
	<path class="st1" d="M102.71,204.2c0-0.06-0.05-0.1-0.1-0.1v0.41c0.06,0,0.1-0.05,0.1-0.1V204.2z"/>
</g>
<path class="st1" d="M111.1,205.28h-1.15c-0.14-0.94-0.14-1.89,0-2.83h1.15l0.96,1.42L111.1,205.28z M112.46,202.25
	c0,0.25,0.09,0.49,0.24,0.68l-0.51,0.76l-0.94-1.39c-0.02-0.03-0.05-0.05-0.09-0.05h-2.28c-0.05,0-0.1,0.03-0.11,0.08
	c-0.22,0.83-0.22,2.3,0,3.09c0.01,0.05,0.06,0.08,0.11,0.08h2.28c0.04,0,0.07-0.02,0.09-0.05l0.94-1.39l0.51,0.76
	c-0.23,0.29-0.3,0.68-0.18,1.04c0.12,0.35,0.42,0.62,0.79,0.7c0.37,0.08,0.75-0.03,1.01-0.3c0.26-0.27,0.37-0.65,0.28-1.01
	c-0.09-0.36-0.36-0.66-0.71-0.78c-0.35-0.12-0.75-0.05-1.03,0.19l-0.54-0.79l0.54-0.79c0.26,0.21,0.59,0.29,0.92,0.22
	c0.32-0.07,0.6-0.28,0.74-0.58c0.15-0.3,0.15-0.64,0.01-0.94s-0.41-0.52-0.73-0.59c-0.32-0.08-0.66,0-0.92,0.21
	C112.61,201.61,112.46,201.92,112.46,202.25L112.46,202.25z"/>
<g>
	<path class="st1" d="M294.75,79.6h-2.86v-0.52h0.43v-1.7c-0.23,0.16-0.49,0.28-0.77,0.35v0.62h-1.25v-0.62
		c-0.28-0.07-0.54-0.19-0.77-0.35v1.7h0.43v0.52h-2.86c-1.35,0-2.45,1.04-2.45,2.31h1.93c0-0.28,0.24-0.5,0.53-0.5h7.65
		c0.29,0,0.53,0.22,0.53,0.5h1.93C297.2,80.64,296.1,79.6,294.75,79.6L294.75,79.6z"/>
	<path class="st1" d="M299.95,69.3l-8.03,4.29c0.26,0.11,0.49,0.27,0.69,0.46l7.54-4.03C300.05,69.8,299.98,69.56,299.95,69.3
		L299.95,69.3z"/>
	<path class="st1" d="M293.21,75.09c0.04,0.16,0.07,0.34,0.07,0.51c0,0.1-0.01,0.2-0.02,0.3l8.63-4.6
		c-0.33-0.06-0.64-0.18-0.91-0.35L293.21,75.09z"/>
	<path class="st1" d="M290.92,76.45c-0.5,0-0.9-0.38-0.9-0.85c0-0.47,0.4-0.85,0.9-0.85c0.5,0,0.9,0.38,0.9,0.85
		C291.82,76.07,291.42,76.45,290.92,76.45z M290.92,73.74c-1.09,0-1.97,0.83-1.97,1.86c0,1.03,0.89,1.86,1.97,1.86
		c1.09,0,1.97-0.83,1.97-1.86C292.9,74.57,292.01,73.74,290.92,73.74z"/>
	<path class="st1" d="M279.26,57.45c1.05-1.85,3.06-3,5.3-3c0.92,0,1.81,0.2,2.65,0.58c1.44,0.67,2.51,1.82,3.03,3.25
		c0.49,1.37,0.42,2.84-0.22,4.16L279.26,57.45z M292.18,57.69c0.15,0.02,0.27,0.08,0.36,0.18c0.08,0.09,0.11,0.19,0.1,0.29
		l-0.51,3.13c-0.03,0.21-0.29,0.36-0.59,0.32l-0.78-0.11c0.27-1.09,0.23-2.23-0.16-3.31c-0.1-0.27-0.22-0.52-0.35-0.77L292.18,57.69
		z M293.02,58.21c0-0.03,0-0.06,0-0.09c0.49,0.26,0.86,0.71,0.97,1.26c0.1,0.49,0,0.98-0.3,1.4c-0.29,0.41-0.74,0.69-1.26,0.79
		c-0.01,0-0.02,0-0.02,0c0.04-0.07,0.08-0.15,0.09-0.24L293.02,58.21z M290.28,62.77c0.16-0.3,0.28-0.61,0.38-0.93l0.82,0.12
		c0.05,0.01,0.11,0.01,0.16,0.01c0.07,0,0.13-0.01,0.19-0.02c0.08,0.01,0.15,0.02,0.23,0.02c0.15,0,0.31-0.01,0.46-0.04
		c0.14-0.03,0.28-0.06,0.41-0.11l7.04,7.04c0.03-0.28,0.12-0.55,0.26-0.79l-6.63-6.62c0.16-0.13,0.3-0.28,0.42-0.45
		c0.13-0.18,0.22-0.37,0.29-0.56l6.78,6.78c0.24-0.13,0.5-0.23,0.78-0.28l-7.47-7.47c-0.01-0.04-0.01-0.09-0.02-0.13
		c-0.16-0.79-0.76-1.41-1.52-1.66c-0.01-0.01-0.01-0.02-0.02-0.02c-0.15-0.16-0.36-0.27-0.59-0.3l-2.22-0.32
		c-0.62-0.98-1.53-1.78-2.65-2.3c-0.89-0.41-1.84-0.62-2.82-0.62c-2.45,0-4.65,1.29-5.73,3.36l-0.08,0.16l11.45,5.32L290.28,62.77z"
		/>
	<path class="st1" d="M302.3,69.96c-0.5,0-0.9-0.38-0.9-0.85c0-0.47,0.4-0.85,0.9-0.85c0.5,0,0.9,0.38,0.9,0.85
		C303.2,69.58,302.8,69.96,302.3,69.96z M302.3,67.25c-1.09,0-1.97,0.83-1.97,1.86c0,1.03,0.89,1.86,1.97,1.86
		c1.09,0,1.97-0.83,1.97-1.86C304.27,68.08,303.39,67.25,302.3,67.25z"/>
</g>
<g>
	<path class="st1" d="M276.65,81.85l-0.44,0l-0.01-15.72l0.44,0L276.65,81.85z M275.82,66.04l0.01,15.93l1.21,0l-0.01-15.93
		L275.82,66.04z"/>
	<path class="st1" d="M258.57,81.36l-4.03,0l0-1.91l4.03,0L258.57,81.36z M254.25,66.75l0.01,15.19l4.61,0l-0.01-15.19L254.25,66.75
		z"/>
	<path class="st1" d="M253.31,65.69l-1.26,0l0-0.53l1.26,0L253.31,65.69z M251.87,64.55l0.01,17.4l1.68,0l-0.01-17.4L251.87,64.55z"
		/>
	<path class="st1" d="M269.62,66.86l1.7,0l0,0.62l-1.7,0L269.62,66.86z M269.62,67.74l1.7,0l0,0.24l-1.7,0L269.62,67.74z
		 M269.63,80.32l1.7,0l0,0.24l-1.7,0L269.63,80.32z M269.63,80.79l1.7,0l0,0.62l-1.7,0L269.63,80.79z M269.44,64.66l0.01,17.28
		l2.15,0l-0.01-17.28L269.44,64.66z"/>
	<path class="st1" d="M265.3,63.51l2.62,0l0,0.59l-2.62,0L265.3,63.51z M264.86,62.84l0.01,19.1l3.5,0l-0.01-19.1L264.86,62.84z"/>
	<path class="st1" d="M272.53,80.29l2.56,0l0,0.41l-2.56,0L272.53,80.29z M272.54,80.97l2.56,0l0,0.68l-2.56,0L272.54,80.97z
		 M272.38,61.16l0.01,20.81l2.82,0l-0.01-20.81L272.38,61.16z"/>
	<path class="st1" d="M251.1,65.87l-1.7,0l0-0.59l1.7,0L251.1,65.87z M251.1,66.34l-1.7,0l0-0.24l1.7,0L251.1,66.34z M251.11,80.57
		l-1.7,0l0-0.24l1.7,0L251.11,80.57z M251.11,81.42l-1.7,0l0-0.62l1.7,0L251.11,81.42z M249.1,63.05l0.01,18.9l2.15,0l-0.01-18.9
		L249.1,63.05z"/>
	<path class="st1" d="M260.04,66.13l0.44,0l0.01,15.72l-0.44,0L260.04,66.13z M259.65,66.04l0.01,15.93l1.21,0l-0.01-15.93
		L259.65,66.04z"/>
	<path class="st1" d="M262.68,69.19l1.5,0.12l-1.11,12.52l-1.5-0.12L262.68,69.19z M262.24,68.98l-1.14,12.84l2.38,0.12l1.14-12.84
		L262.24,68.98z"/>
</g>
<path class="st1" d="M452.96,17.47h23.03c-0.07,0.13-0.07,0.2-0.07,0.33v15.07h-10.91c0-0.13-0.07-0.2-0.13-0.33l-5.22-9.11
	c-0.33-0.6-1.07-0.8-1.67-0.47c-0.6,0.33-0.8,1.07-0.47,1.67l4.76,8.3h-5.56v-8.9c0-0.67-0.54-1.21-1.21-1.21s-1.21,0.54-1.21,1.21
	v8.91h-1.61V17.67C452.69,17.54,452.82,17.47,452.96,17.47L452.96,17.47z M501.57,17.67v15.2h-1.74v-8.84
	c0-0.67-0.54-1.21-1.21-1.21s-1.21,0.54-1.21,1.21v8.91h-1.67l0-8.91c0-0.67-0.54-1.21-1.21-1.21s-1.21,0.54-1.21,1.21v8.91l-15,0
	V17.81c0-0.13-0.07-0.27-0.07-0.33h23.03C501.44,17.47,501.57,17.61,501.57,17.67L501.57,17.67z M500.1,50.69v-8.44
	c0-0.67-0.54-1.21-1.21-1.21s-1.21,0.54-1.21,1.21v8.37h-1.67v-8.37c0-0.67-0.54-1.21-1.21-1.21s-1.21,0.54-1.21,1.21v8.37h-1.67
	l0-8.37c0-0.67-0.54-1.21-1.21-1.21s-1.21,0.54-1.21,1.21v8.37h-1.54v-8.37c0-0.67-0.54-1.21-1.21-1.21s-1.21,0.54-1.21,1.21v8.37
	h-7.23V35.35h23.17v15.33L500.1,50.69z M501.31,68.43h-1.27V68.3l0-9.11c0-0.67-0.54-1.21-1.21-1.21s-1.21,0.54-1.21,1.21v9.11v0.13
	h-1.74V68.3l0-9.11c0-0.67-0.54-1.21-1.21-1.21s-1.21,0.54-1.21,1.21v9.11v0.13l-1.61,0V68.3v-9.11c0-0.67-0.54-1.21-1.21-1.21
	c-0.67,0-1.21,0.54-1.21,1.21v9.11v0.13h-5.36l4.49-7.7c0.33-0.6,0.13-1.34-0.4-1.67c-0.6-0.33-1.34-0.13-1.67,0.4l-4.69,8.23
	c-0.13,0.27-0.2,0.54-0.13,0.74h-3.35V53.1h23.17v15.14C501.58,68.37,501.44,68.43,501.31,68.43L501.31,68.43z M452.69,53.1h23.17
	v15.33h-6.97V68.3v-9.11c0-0.67-0.54-1.21-1.21-1.21s-1.21,0.54-1.21,1.21v9.11v0.13h-1.74V68.3l0-9.11c0-0.67-0.54-1.21-1.21-1.21
	s-1.14,0.54-1.14,1.21v9.11v0.13h-1.74V68.3v-9.11c0-0.67-0.54-1.21-1.21-1.21s-1.21,0.54-1.21,1.21v9.11v0.13h-1.61V68.3v-9.11
	c0-0.67-0.54-1.21-1.21-1.21c-0.67,0-1.21,0.54-1.21,1.21v9.11v0.13h-1.41c-0.13,0-0.2-0.13-0.2-0.2l0-15.14L452.69,53.1z
	 M475.93,35.35v15.33h-11.12v-8.44c0-0.67-0.54-1.21-1.21-1.21s-1.21,0.54-1.21,1.21v8.37h-1.67v-8.37c0-0.67-0.54-1.21-1.21-1.21
	s-1.21,0.54-1.21,1.21v8.37h-1.54l0-8.37c0-0.67-0.54-1.21-1.21-1.21s-1.21,0.54-1.21,1.21v8.37h-1.61V35.35L475.93,35.35z
	 M499.36,72.65H454.9v-1.81h44.46V72.65z M501.31,15.06h-48.35c-1.47,0-2.61,1.21-2.61,2.61v50.56c0,1.27,0.94,2.34,2.21,2.61v2.41
	c0,0.07,0,0.2,0.07,0.27c0,0.13-0.07,0.2-0.07,0.33c0,0.67,0.54,1.21,1.21,1.21h46.88c0.67,0,1.21-0.54,1.21-1.21
	c0-0.13-0.07-0.2-0.07-0.33c0-0.07,0.07-0.2,0.07-0.27v-2.41c1.27-0.2,2.21-1.27,2.21-2.61l0-50.56
	C503.99,16.27,502.78,15.06,501.31,15.06L501.31,15.06z"/>
<path class="st1" d="M354.57,359.21h29.1c-0.09,0.17-0.09,0.25-0.09,0.42v19.03H369.8c0-0.17-0.09-0.25-0.17-0.42l-6.6-11.51
	c-0.42-0.76-1.35-1.01-2.11-0.59c-0.76,0.42-1.01,1.35-0.59,2.11l6.01,10.49h-7.02V367.5c0-0.85-0.68-1.52-1.52-1.52
	c-0.85,0-1.52,0.68-1.52,1.52v11.25h-2.03v-19.29C354.24,359.29,354.4,359.21,354.57,359.21L354.57,359.21z M415.99,359.47v19.2
	h-2.2V367.5c0-0.85-0.68-1.52-1.52-1.52s-1.52,0.68-1.52,1.52v11.25h-2.11l0-11.25c0-0.85-0.68-1.52-1.52-1.52
	c-0.85,0-1.52,0.68-1.52,1.52v11.25l-18.95,0v-19.12c0-0.17-0.09-0.34-0.09-0.42h29.1C415.82,359.21,415.99,359.38,415.99,359.47
	L415.99,359.47z M414.13,401.17v-10.66c0-0.85-0.68-1.52-1.52-1.52s-1.52,0.68-1.52,1.52v10.57h-2.11v-10.57
	c0-0.85-0.68-1.52-1.52-1.52c-0.85,0-1.52,0.68-1.52,1.52v10.57h-2.11l0-10.57c0-0.85-0.68-1.52-1.52-1.52s-1.52,0.68-1.52,1.52
	v10.57h-1.95v-10.57c0-0.85-0.68-1.52-1.52-1.52s-1.52,0.68-1.52,1.52v10.57h-9.13V381.8h29.27v19.37L414.13,401.17z M415.66,423.59
	h-1.61v-0.17l0-11.5c0-0.85-0.68-1.52-1.52-1.52c-0.85,0-1.52,0.68-1.52,1.52v11.51v0.17h-2.2v-0.17l0-11.51
	c0-0.85-0.68-1.52-1.52-1.52c-0.85,0-1.52,0.68-1.52,1.52v11.51v0.17l-2.03,0v-0.17v-11.5c0-0.85-0.68-1.52-1.52-1.52
	s-1.52,0.68-1.52,1.52v11.51v0.17h-6.77l5.67-9.73c0.42-0.76,0.17-1.69-0.51-2.11c-0.76-0.42-1.69-0.17-2.11,0.51l-5.92,10.4
	c-0.17,0.34-0.25,0.68-0.17,0.93h-4.23v-19.37h29.27v19.12C415.99,423.51,415.82,423.59,415.66,423.59L415.66,423.59z
	 M354.24,404.22h29.27v19.37h-8.8v-0.17v-11.5c0-0.85-0.68-1.52-1.52-1.52c-0.85,0-1.52,0.68-1.52,1.52v11.51v0.17h-2.2v-0.17
	l0-11.51c0-0.85-0.68-1.52-1.52-1.52c-0.85,0-1.44,0.68-1.44,1.52v11.51v0.17h-2.2v-0.17v-11.51c0-0.85-0.68-1.52-1.52-1.52
	c-0.85,0-1.52,0.68-1.52,1.52v11.51v0.17h-2.03v-0.17v-11.51c0-0.85-0.68-1.52-1.52-1.52c-0.85,0-1.52,0.68-1.52,1.52v11.51v0.17
	h-1.78c-0.17,0-0.25-0.17-0.25-0.25l0-19.12L354.24,404.22z M383.59,381.8v19.37h-14.04v-10.66c0-0.85-0.68-1.52-1.52-1.52
	s-1.52,0.68-1.52,1.52v10.57h-2.11v-10.57c0-0.85-0.68-1.52-1.52-1.52s-1.52,0.68-1.52,1.52v10.57h-1.95l0-10.57
	c0-0.85-0.68-1.52-1.52-1.52c-0.85,0-1.52,0.68-1.52,1.52v10.57h-2.03V381.8L383.59,381.8z M413.2,428.92h-56.17v-2.28h56.17V428.92
	z M415.65,356.16h-61.08c-1.86,0-3.3,1.52-3.3,3.3v63.87c0,1.61,1.18,2.96,2.79,3.3v3.05c0,0.09,0,0.25,0.09,0.34
	c0,0.17-0.09,0.25-0.09,0.42c0,0.85,0.68,1.52,1.52,1.52h59.22c0.85,0,1.52-0.68,1.52-1.52c0-0.17-0.09-0.25-0.09-0.42
	c0-0.09,0.09-0.25,0.09-0.34v-3.05c1.61-0.25,2.79-1.61,2.79-3.3l0-63.87C419.04,357.69,417.52,356.16,415.65,356.16L415.65,356.16z
	"/>
<g>
	<path class="st1" d="M330.72,18.67c-0.54,0-1.09,0.54-1.09,1.09v138.53c0,0.54,0.54,1.09,1.09,1.09h102.41
		c0.54,0,1.09-0.54,1.09-1.09V19.76c0-0.54-0.54-1.09-1.09-1.09H330.72z M433.31,163.16H330.72c-2.71,0-4.7-2.17-4.7-4.7V19.76
		c0-2.71,2.17-4.7,4.7-4.7h102.41c2.71,0,4.7,2.17,4.7,4.7v138.53C438,161,435.83,163.16,433.31,163.16L433.31,163.16z"/>
	<rect x="419.22" y="61.49" class="st1" width="6.68" height="3.61"/>
	<rect x="405.67" y="61.49" class="st1" width="6.68" height="3.61"/>
	<rect x="392.13" y="61.49" class="st1" width="6.68" height="3.61"/>
	<rect x="378.76" y="61.49" class="st1" width="6.68" height="3.61"/>
	<rect x="365.21" y="61.49" class="st1" width="6.68" height="3.61"/>
	<rect x="351.67" y="61.49" class="st1" width="6.68" height="3.61"/>
	<rect x="338.3" y="61.49" class="st1" width="6.68" height="3.61"/>
	<rect x="432.58" y="61.49" class="st1" width="1.81" height="3.61"/>
	<path class="st1" d="M360.16,25.18c-0.54,0-1.09,0.54-1.09,1.09v24.2c0,0.54,0.54,1.09,1.09,1.09h42.26c0.54,0,1.09-0.54,1.09-1.09
		v-24.2c0-0.54-0.54-1.09-1.09-1.09H360.16z M402.42,55.17h-42.26c-2.71,0-4.7-2.17-4.7-4.7v-24.2c0-2.71,2.17-4.7,4.7-4.7h42.26
		c2.71,0,4.7,2.17,4.7,4.7v24.2C407.3,53.18,405.13,55.17,402.42,55.17z"/>
</g>
<path class="st1" d="M431.1,423.01v-61.01c0-2.89,2.35-5.24,5.24-5.24h22.15c2.89,0,5.24,2.35,5.24,5.24v61.01H431.1z
	 M463.73,428.58c0,0.44,0.36,0.8,0.8,0.8c0.44,0,0.8-0.36,0.8-0.8v-66.59c0-3.77-3.07-6.83-6.83-6.83h-22.15
	c-3.77,0-6.83,3.07-6.83,6.83v66.59c0,0.44,0.36,0.8,0.8,0.8s0.8-0.36,0.8-0.8v-3.98h32.63V428.58z"/>
<path class="st1" d="M452.2,382.49c-0.31-0.31-0.81-0.31-1.13,0l-10.05,10.05c-0.31,0.31-0.31,0.81,0,1.13
	c0.16,0.16,0.36,0.23,0.56,0.23c0.2,0,0.41-0.08,0.56-0.23l10.05-10.05C452.51,383.3,452.51,382.8,452.2,382.49L452.2,382.49z"/>
<path class="st1" d="M453.07,387.51l-7.01,7.01c-0.31,0.31-0.31,0.81,0,1.13c0.16,0.16,0.36,0.23,0.56,0.23s0.41-0.08,0.56-0.23
	l7.01-7.01c0.31-0.31,0.31-0.81,0-1.13C453.88,387.2,453.38,387.2,453.07,387.51L453.07,387.51z"/>
<path class="st1" d="M232.28,416.59h-6.71c-0.01,0-0.03,0-0.04,0c-0.01,0-0.03,0-0.04,0h-6.71c-0.17,0-0.3-0.12-0.3-0.28
	c0-0.11,0.07-0.21,0.19-0.26l6.82-2.58h0.11l6.82,2.58c0.11,0.04,0.19,0.14,0.19,0.26C232.59,416.47,232.45,416.59,232.28,416.59
	L232.28,416.59z M232.88,414.98l-6.7-2.54v-1.87c0.74-0.24,1.28-0.89,1.28-1.66c0-0.97-0.86-1.75-1.91-1.75
	c-1.05,0-1.91,0.79-1.91,1.75c0,0.32,0.28,0.58,0.63,0.58s0.63-0.26,0.63-0.58c0-0.33,0.29-0.59,0.64-0.59s0.64,0.27,0.64,0.59
	c0,0.33-0.29,0.59-0.64,0.59c-0.35,0-0.63,0.26-0.63,0.58v2.33l-6.74,2.56c-0.59,0.22-0.97,0.75-0.97,1.33
	c0,0.79,0.7,1.44,1.57,1.44h6.71c0.01,0,0.03,0,0.04,0c0.01,0,0.03,0,0.04,0h6.71c0.86,0,1.57-0.65,1.57-1.44
	C233.85,415.73,233.47,415.2,232.88,414.98L232.88,414.98z"/>
<path class="st1" d="M232.28,428.62h-6.71c-0.01,0-0.03,0-0.04,0c-0.01,0-0.03,0-0.04,0h-6.71c-0.17,0-0.3-0.12-0.3-0.28
	c0-0.11,0.07-0.21,0.19-0.26l6.82-2.58h0.11l6.82,2.58c0.11,0.04,0.19,0.14,0.19,0.26C232.59,428.49,232.45,428.62,232.28,428.62
	L232.28,428.62z M232.88,427l-6.7-2.54v-1.87c0.74-0.24,1.28-0.89,1.28-1.66c0-0.97-0.86-1.75-1.91-1.75
	c-1.05,0-1.91,0.79-1.91,1.75c0,0.32,0.28,0.58,0.63,0.58s0.63-0.26,0.63-0.58c0-0.33,0.29-0.59,0.64-0.59s0.64,0.27,0.64,0.59
	c0,0.33-0.29,0.59-0.64,0.59c-0.35,0-0.63,0.26-0.63,0.58v2.33l-6.74,2.56c-0.59,0.22-0.97,0.75-0.97,1.33
	c0,0.79,0.7,1.44,1.57,1.44h6.71c0.01,0,0.03,0,0.04,0c0.01,0,0.03,0,0.04,0h6.71c0.86,0,1.57-0.65,1.57-1.44
	C233.85,427.75,233.47,427.23,232.88,427L232.88,427z"/>
<path class="st1" d="M253.22,416.59h-6.71c-0.01,0-0.03,0-0.04,0c-0.01,0-0.03,0-0.04,0h-6.71c-0.17,0-0.3-0.12-0.3-0.28
	c0-0.11,0.07-0.21,0.19-0.26l6.82-2.58h0.11l6.82,2.58c0.11,0.04,0.19,0.14,0.19,0.26C253.53,416.47,253.39,416.59,253.22,416.59
	L253.22,416.59z M253.82,414.98l-6.7-2.54v-1.87c0.74-0.24,1.28-0.89,1.28-1.66c0-0.97-0.86-1.75-1.91-1.75
	c-1.05,0-1.91,0.79-1.91,1.75c0,0.32,0.28,0.58,0.63,0.58s0.63-0.26,0.63-0.58c0-0.33,0.29-0.59,0.64-0.59s0.64,0.27,0.64,0.59
	c0,0.33-0.29,0.59-0.64,0.59c-0.35,0-0.63,0.26-0.63,0.58v2.33l-6.74,2.56c-0.59,0.22-0.97,0.75-0.97,1.33
	c0,0.79,0.7,1.44,1.57,1.44h6.71c0.01,0,0.03,0,0.04,0c0.01,0,0.03,0,0.04,0h6.71c0.86,0,1.57-0.65,1.57-1.44
	C254.79,415.73,254.41,415.2,253.82,414.98L253.82,414.98z"/>
<path class="st1" d="M253.22,428.62h-6.71c-0.01,0-0.03,0-0.04,0c-0.01,0-0.03,0-0.04,0h-6.71c-0.17,0-0.3-0.12-0.3-0.28
	c0-0.11,0.07-0.21,0.19-0.26l6.82-2.58h0.11l6.82,2.58c0.11,0.04,0.19,0.14,0.19,0.26C253.53,428.49,253.39,428.62,253.22,428.62
	L253.22,428.62z M253.82,427l-6.7-2.54v-1.87c0.74-0.24,1.28-0.89,1.28-1.66c0-0.97-0.86-1.75-1.91-1.75
	c-1.05,0-1.91,0.79-1.91,1.75c0,0.32,0.28,0.58,0.63,0.58s0.63-0.26,0.63-0.58c0-0.33,0.29-0.59,0.64-0.59s0.64,0.27,0.64,0.59
	c0,0.33-0.29,0.59-0.64,0.59c-0.35,0-0.63,0.26-0.63,0.58v2.33l-6.74,2.56c-0.59,0.22-0.97,0.75-0.97,1.33
	c0,0.79,0.7,1.44,1.57,1.44h6.71c0.01,0,0.03,0,0.04,0c0.01,0,0.03,0,0.04,0h6.71c0.86,0,1.57-0.65,1.57-1.44
	C254.79,427.75,254.41,427.23,253.82,427L253.82,427z"/>
<path class="st1" d="M275.22,417.59h-6.71c-0.01,0-0.03,0-0.04,0c-0.01,0-0.03,0-0.04,0h-6.71c-0.17,0-0.3-0.12-0.3-0.28
	c0-0.11,0.07-0.21,0.19-0.26l6.82-2.58h0.11l6.82,2.58c0.11,0.04,0.19,0.14,0.19,0.26C275.53,417.47,275.39,417.59,275.22,417.59
	L275.22,417.59z M275.82,415.98l-6.7-2.54v-1.87c0.74-0.24,1.28-0.89,1.28-1.66c0-0.97-0.86-1.75-1.91-1.75
	c-1.05,0-1.91,0.79-1.91,1.75c0,0.32,0.28,0.58,0.63,0.58s0.63-0.26,0.63-0.58c0-0.33,0.29-0.59,0.64-0.59
	c0.36,0,0.64,0.27,0.64,0.59c0,0.33-0.29,0.59-0.64,0.59c-0.35,0-0.63,0.26-0.63,0.58v2.33l-6.74,2.56
	c-0.59,0.22-0.97,0.75-0.97,1.33c0,0.79,0.7,1.44,1.57,1.44h6.71c0.01,0,0.03,0,0.04,0c0.01,0,0.03,0,0.04,0h6.71
	c0.86,0,1.57-0.65,1.57-1.44C276.79,416.73,276.41,416.2,275.82,415.98L275.82,415.98z"/>
<path class="st1" d="M275.22,429.62h-6.71c-0.01,0-0.03,0-0.04,0c-0.01,0-0.03,0-0.04,0h-6.71c-0.17,0-0.3-0.12-0.3-0.28
	c0-0.11,0.07-0.21,0.19-0.26l6.82-2.58h0.11l6.82,2.58c0.11,0.04,0.19,0.14,0.19,0.26C275.53,429.49,275.39,429.62,275.22,429.62
	L275.22,429.62z M275.82,428l-6.7-2.54v-1.87c0.74-0.24,1.28-0.89,1.28-1.66c0-0.97-0.86-1.75-1.91-1.75
	c-1.05,0-1.91,0.79-1.91,1.75c0,0.32,0.28,0.58,0.63,0.58s0.63-0.26,0.63-0.58c0-0.33,0.29-0.59,0.64-0.59
	c0.36,0,0.64,0.27,0.64,0.59c0,0.33-0.29,0.59-0.64,0.59c-0.35,0-0.63,0.26-0.63,0.58v2.33l-6.74,2.56
	c-0.59,0.22-0.97,0.75-0.97,1.33c0,0.79,0.7,1.44,1.57,1.44h6.71c0.01,0,0.03,0,0.04,0c0.01,0,0.03,0,0.04,0h6.71
	c0.86,0,1.57-0.65,1.57-1.44C276.79,428.75,276.41,428.23,275.82,428L275.82,428z"/>
<g>
	<path class="st1" d="M296.94,433.23c-1.06,0-1.78-0.71-1.78-1.78v-3.56c0-1.06,0.71-1.78,1.78-1.78c1.07,0,1.78,0.71,1.78,1.78
		v3.56C298.72,432.52,298.01,433.23,296.94,433.23z"/>
	<path class="st1" d="M332.48,433.23c-1.06,0-1.78-0.71-1.78-1.78v-3.56c0-1.06,0.71-1.78,1.78-1.78s1.78,0.71,1.78,1.78v3.56
		C334.26,432.52,333.55,433.23,332.48,433.23z"/>
	<path class="st1" d="M339.58,362.16h-49.74c-1.96,0-3.56,1.6-3.56,3.56v60.41c0,1.95,1.6,3.56,3.56,3.56h49.75
		c1.95,0,3.56-1.6,3.56-3.56v-60.41C343.14,363.76,341.55,362.16,339.58,362.16L339.58,362.16z M339.58,365.72v60.41h-49.74v-60.41
		H339.58"/>
	<path class="st1" d="M339.58,362.16h-49.74c-1.96,0-3.56,1.6-3.56,3.56v17.77h56.86v-17.77
		C343.14,363.76,341.55,362.16,339.58,362.16L339.58,362.16z M339.58,365.72v14.21h-49.74v-14.21H339.58"/>
	<path class="st1" d="M314.71,427.91c-1.06,0-1.78-0.71-1.78-1.78v-42.64c0-1.06,0.71-1.78,1.78-1.78c1.06,0,1.78,0.71,1.78,1.78
		v42.64C316.49,427.19,315.78,427.91,314.71,427.91z"/>
	<circle class="st1" cx="309.39" cy="403.03" r="1.78"/>
	<circle class="st1" cx="320.04" cy="403.03" r="1.78"/>
</g>
<g>
	<path class="st1" d="M554.46,96.29c-1.22,0-2.03-0.82-2.03-2.03v-4.07c0-1.22,0.81-2.03,2.03-2.03c1.22,0,2.03,0.82,2.03,2.03v4.07
		C556.5,95.47,555.69,96.29,554.46,96.29z"/>
	<path class="st1" d="M595.09,96.29c-1.22,0-2.03-0.82-2.03-2.03v-4.07c0-1.22,0.82-2.03,2.03-2.03c1.22,0,2.03,0.82,2.03,2.03v4.07
		C597.11,95.47,596.3,96.29,595.09,96.29z"/>
	<path class="st1" d="M603.2,15.06h-56.85c-2.24,0-4.07,1.82-4.07,4.07v69.05c0,2.23,1.82,4.07,4.07,4.07h56.86
		c2.23,0,4.07-1.82,4.07-4.07V19.13C607.27,16.89,605.44,15.06,603.2,15.06L603.2,15.06z M603.2,19.13v69.05h-56.85V19.13H603.2"/>
	<path class="st1" d="M603.2,15.06h-56.85c-2.24,0-4.07,1.82-4.07,4.07v20.31h64.98V19.13C607.27,16.89,605.44,15.06,603.2,15.06
		L603.2,15.06z M603.2,19.13v16.25h-56.85V19.13H603.2"/>
	<path class="st1" d="M574.78,90.2c-1.22,0-2.03-0.82-2.03-2.03V39.43c0-1.22,0.81-2.03,2.03-2.03c1.22,0,2.03,0.81,2.03,2.03v48.74
		C576.81,89.39,575.99,90.2,574.78,90.2z"/>
	<circle class="st1" cx="568.69" cy="61.77" r="2.03"/>
	<circle class="st1" cx="580.86" cy="61.77" r="2.03"/>
</g>
<path class="st4" d="M453.72,159.37v-52.74c0-0.81,0.66-1.47,1.47-1.47h76.17c0.81,0,1.47,0.66,1.47,1.47v52.74
	c0,0.81-0.66,1.47-1.47,1.47h-76.17C454.38,160.83,453.72,160.18,453.72,159.37z M456.65,108.1v49.8h73.25v-49.8H456.65z"/>
<path class="st4" d="M459.58,153.51v-41.01c0-0.81,0.66-1.47,1.46-1.47h64.46c0.81,0,1.46,0.66,1.46,1.47v41.01
	c0,0.81-0.66,1.47-1.46,1.47h-64.46C460.24,154.97,459.58,154.32,459.58,153.51z M462.51,113.95v38.09h61.53v-38.09H462.51z"/>
<path class="st4" d="M449.33,106.63c0-0.81,0.66-1.47,1.47-1.47h4.39c0.81,0,1.46,0.66,1.46,1.47s-0.66,1.47-1.46,1.47h-4.39
	C449.98,108.1,449.33,107.44,449.33,106.63"/>
<path class="st4" d="M449.33,112.49c0-0.81,0.66-1.47,1.47-1.47h4.39c0.81,0,1.46,0.66,1.46,1.47s-0.66,1.46-1.46,1.46h-4.39
	C449.98,113.95,449.33,113.3,449.33,112.49"/>
<path class="st4" d="M449.33,118.35c0-0.81,0.66-1.46,1.47-1.46h4.39c0.81,0,1.46,0.65,1.46,1.46s-0.66,1.47-1.46,1.47h-4.39
	C449.98,119.81,449.33,119.16,449.33,118.35"/>
<path class="st4" d="M449.33,124.21c0-0.81,0.66-1.47,1.47-1.47h4.39c0.81,0,1.46,0.66,1.46,1.47s-0.66,1.47-1.46,1.47h-4.39
	C449.98,125.67,449.33,125.02,449.33,124.21"/>
<path class="st4" d="M449.33,130.07c0-0.81,0.66-1.47,1.47-1.47h4.39c0.81,0,1.46,0.66,1.46,1.47c0,0.81-0.66,1.46-1.46,1.46h-4.39
	C449.98,131.53,449.33,130.88,449.33,130.07"/>
<path class="st4" d="M449.33,135.93c0-0.81,0.66-1.46,1.47-1.46h4.39c0.81,0,1.46,0.65,1.46,1.46c0,0.81-0.66,1.47-1.46,1.47h-4.39
	C449.98,137.39,449.33,136.74,449.33,135.93"/>
<path class="st4" d="M449.33,141.79c0-0.81,0.66-1.47,1.47-1.47h4.39c0.81,0,1.46,0.66,1.46,1.47c0,0.81-0.66,1.47-1.46,1.47h-4.39
	C449.98,143.25,449.33,142.6,449.33,141.79"/>
<path class="st4" d="M449.33,147.65c0-0.81,0.66-1.47,1.47-1.47h4.39c0.81,0,1.46,0.66,1.46,1.47c0,0.81-0.66,1.46-1.46,1.46h-4.39
	C449.98,149.11,449.33,148.46,449.33,147.65"/>
<path class="st4" d="M449.33,153.51c0-0.81,0.66-1.46,1.47-1.46h4.39c0.81,0,1.46,0.65,1.46,1.46c0,0.81-0.66,1.47-1.46,1.47h-4.39
	C449.98,154.97,449.33,154.32,449.33,153.51"/>
<path class="st4" d="M449.33,159.37c0-0.81,0.66-1.47,1.47-1.47h4.39c0.81,0,1.46,0.66,1.46,1.47c0,0.81-0.66,1.47-1.46,1.47h-4.39
	C449.98,160.83,449.33,160.18,449.33,159.37"/>
<path class="st4" d="M529.9,106.63c0-0.81,0.66-1.47,1.46-1.47h4.39c0.81,0,1.47,0.66,1.47,1.47s-0.66,1.47-1.47,1.47h-4.39
	C530.55,108.1,529.9,107.44,529.9,106.63"/>
<path class="st4" d="M529.9,112.49c0-0.81,0.66-1.47,1.46-1.47h4.39c0.81,0,1.47,0.66,1.47,1.47s-0.66,1.46-1.47,1.46h-4.39
	C530.55,113.95,529.9,113.3,529.9,112.49"/>
<path class="st4" d="M529.9,118.35c0-0.81,0.66-1.46,1.46-1.46h4.39c0.81,0,1.47,0.65,1.47,1.46s-0.66,1.47-1.47,1.47h-4.39
	C530.55,119.81,529.9,119.16,529.9,118.35"/>
<path class="st4" d="M529.9,124.21c0-0.81,0.66-1.47,1.46-1.47h4.39c0.81,0,1.47,0.66,1.47,1.47s-0.66,1.47-1.47,1.47h-4.39
	C530.55,125.67,529.9,125.02,529.9,124.21"/>
<path class="st4" d="M529.9,130.07c0-0.81,0.66-1.47,1.46-1.47h4.39c0.81,0,1.47,0.66,1.47,1.47c0,0.81-0.66,1.46-1.47,1.46h-4.39
	C530.55,131.53,529.9,130.88,529.9,130.07"/>
<path class="st4" d="M529.9,135.93c0-0.81,0.66-1.46,1.46-1.46h4.39c0.81,0,1.47,0.65,1.47,1.46c0,0.81-0.66,1.47-1.47,1.47h-4.39
	C530.55,137.39,529.9,136.74,529.9,135.93"/>
<path class="st4" d="M529.9,141.79c0-0.81,0.66-1.47,1.46-1.47h4.39c0.81,0,1.47,0.66,1.47,1.47c0,0.81-0.66,1.47-1.47,1.47h-4.39
	C530.55,143.25,529.9,142.6,529.9,141.79"/>
<path class="st4" d="M529.9,147.65c0-0.81,0.66-1.47,1.46-1.47h4.39c0.81,0,1.47,0.66,1.47,1.47c0,0.81-0.66,1.46-1.47,1.46h-4.39
	C530.55,149.11,529.9,148.46,529.9,147.65"/>
<path class="st4" d="M529.9,153.51c0-0.81,0.66-1.46,1.46-1.46h4.39c0.81,0,1.47,0.65,1.47,1.46c0,0.81-0.66,1.47-1.47,1.47h-4.39
	C530.55,154.97,529.9,154.32,529.9,153.51"/>
<path class="st4" d="M529.9,159.37c0-0.81,0.66-1.47,1.46-1.47h4.39c0.81,0,1.47,0.66,1.47,1.47c0,0.81-0.66,1.47-1.47,1.47h-4.39
	C530.55,160.83,529.9,160.18,529.9,159.37"/>
<path class="st4" d="M509.39,122.74c0-3.23,2.63-5.86,5.86-5.86c0.81,0,1.47,0.65,1.47,1.46s-0.66,1.47-1.47,1.47
	c-1.62,0-2.93,1.31-2.93,2.93c0,1.62,1.31,2.93,2.93,2.93s2.93-1.31,2.93-2.93c0-0.81,0.66-1.46,1.47-1.46s1.47,0.65,1.47,1.46
	c0,3.23-2.63,5.86-5.86,5.86S509.39,125.98,509.39,122.74"/>
<path class="st4" d="M509.39,143.25c0-3.23,2.63-5.86,5.86-5.86s5.86,2.63,5.86,5.86c0,0.81-0.66,1.46-1.47,1.46
	s-1.47-0.65-1.47-1.46c0-1.62-1.31-2.93-2.93-2.93s-2.93,1.31-2.93,2.93c0,1.61,1.31,2.93,2.93,2.93c0.81,0,1.47,0.66,1.47,1.47
	c0,0.81-0.66,1.46-1.47,1.46C512.02,149.11,509.39,146.48,509.39,143.25"/>
<path class="st4" d="M465.44,122.74c0-3.23,2.63-5.86,5.86-5.86c0.81,0,1.47,0.65,1.47,1.46s-0.66,1.47-1.47,1.47
	c-1.62,0-2.93,1.31-2.93,2.93c0,1.62,1.31,2.93,2.93,2.93c1.62,0,2.93-1.31,2.93-2.93c0-0.81,0.66-1.46,1.47-1.46
	c0.81,0,1.47,0.65,1.47,1.46c0,3.23-2.63,5.86-5.86,5.86S465.44,125.98,465.44,122.74"/>
<path class="st4" d="M465.44,143.25c0-3.23,2.63-5.86,5.86-5.86s5.86,2.63,5.86,5.86c0,0.81-0.66,1.46-1.47,1.46
	c-0.81,0-1.47-0.65-1.47-1.46c0-1.62-1.31-2.93-2.93-2.93c-1.62,0-2.93,1.31-2.93,2.93c0,1.61,1.31,2.93,2.93,2.93
	c0.81,0,1.47,0.66,1.47,1.47c0,0.81-0.66,1.46-1.47,1.46C468.07,149.11,465.44,146.48,465.44,143.25"/>
<path class="st4" d="M488.88,122.74c0-3.23,2.63-5.86,5.86-5.86c0.81,0,1.46,0.65,1.46,1.46s-0.66,1.47-1.46,1.47
	c-1.62,0-2.93,1.31-2.93,2.93c0,1.62,1.31,2.93,2.93,2.93c1.61,0,2.93-1.31,2.93-2.93c0-0.81,0.66-1.46,1.47-1.46
	c0.81,0,1.46,0.65,1.46,1.46c0,3.23-2.63,5.86-5.86,5.86C491.51,128.6,488.88,125.98,488.88,122.74"/>
<path class="st4" d="M488.88,143.25c0-3.23,2.63-5.86,5.86-5.86c3.23,0,5.86,2.63,5.86,5.86c0,0.81-0.66,1.46-1.46,1.46
	c-0.81,0-1.47-0.65-1.47-1.46c0-1.62-1.31-2.93-2.93-2.93c-1.62,0-2.93,1.31-2.93,2.93c0,1.61,1.31,2.93,2.93,2.93
	c0.81,0,1.46,0.66,1.46,1.47c0,0.81-0.66,1.46-1.46,1.46C491.51,149.11,488.88,146.48,488.88,143.25"/>
<path class="st1" d="M97.17,48.06h14.37v4.05c-5.49-1.01-10.43-0.72-14.37-0.01V48.06z M92.78,42.96l-0.89-13.22
	c-0.07-1.08,0.3-2.1,1.04-2.89c0.74-0.79,1.74-1.22,2.81-1.22h17.36c1.08,0,2.08,0.43,2.81,1.22c0.74,0.79,1.11,1.81,1.04,2.88
	l-0.89,13.23c-0.13,2.03-1.82,3.61-3.85,3.61l-15.58,0C94.6,46.58,92.91,45,92.78,42.96L92.78,42.96z M120.46,58.5
	c0,0.61-0.5,1.11-1.11,1.11l-29.99,0c-0.61,0-1.11-0.5-1.11-1.16c0-1.26,0.75-2.37,1.92-2.84c2.55-1.02,7.66-2.66,14.17-2.66
	c4.23,0,9.05,0.69,14.14,2.7C119.68,56.1,120.46,57.23,120.46,58.5L120.46,58.5z M90.25,63.99v-2.92h28.34l0,2.92H90.25z
	 M116.04,81.69h-3.14V65.46h3.14V81.69z M97.29,69.87v-4.4h14.13v4.4H97.29z M95.82,81.69h-3.14V65.46h3.14V81.69z M89.63,54.22
	c-1.73,0.69-2.85,2.35-2.85,4.27c0,1.22,0.86,2.24,2,2.51v3.73c0,0.41,0.33,0.74,0.74,0.74h1.69v16.96c0,0.41,0.33,0.74,0.74,0.74
	h4.61c0.41,0,0.74-0.33,0.74-0.74l0-11.09h14.13v11.09c0,0.41,0.33,0.74,0.74,0.74h4.61c0.41,0,0.74-0.33,0.74-0.74V65.46h1.81
	c0.41,0,0.74-0.33,0.74-0.74v-3.76c1.08-0.31,1.87-1.29,1.87-2.47c0-1.88-1.14-3.54-2.91-4.23c-2.05-0.81-4.06-1.41-6.01-1.85v-4.42
	c2.43-0.37,4.36-2.4,4.52-4.93l0.89-13.23c0.1-1.49-0.41-2.9-1.43-3.99c-1.02-1.08-2.4-1.68-3.89-1.68H95.74
	c-1.49,0-2.87,0.6-3.89,1.68c-1.02,1.09-1.53,2.5-1.43,3.99l0.89,13.22c0.16,2.48,2.02,4.49,4.39,4.91v4.41
	C93.08,52.96,91,53.68,89.63,54.22L89.63,54.22z"/>
<path class="st1" d="M55.17,48.06h14.37v4.05c-5.49-1.01-10.43-0.72-14.37-0.01V48.06z M50.78,42.96l-0.89-13.22
	c-0.07-1.08,0.3-2.1,1.04-2.89c0.74-0.79,1.74-1.22,2.81-1.22H71.1c1.08,0,2.08,0.43,2.81,1.22c0.74,0.79,1.11,1.81,1.04,2.88
	l-0.89,13.23c-0.13,2.03-1.82,3.61-3.85,3.61l-15.58,0C52.6,46.58,50.91,45,50.78,42.96L50.78,42.96z M78.46,58.5
	c0,0.61-0.5,1.11-1.11,1.11l-29.99,0c-0.61,0-1.11-0.5-1.11-1.16c0-1.26,0.75-2.37,1.92-2.84c2.55-1.02,7.66-2.66,14.17-2.66
	c4.23,0,9.05,0.69,14.14,2.7C77.68,56.1,78.46,57.23,78.46,58.5L78.46,58.5z M48.25,63.99v-2.92h28.34l0,2.92H48.25z M74.04,81.69
	H70.9V65.46h3.14V81.69z M55.29,69.87v-4.4h14.13v4.4H55.29z M53.82,81.69h-3.14V65.46h3.14V81.69z M47.63,54.22
	c-1.73,0.69-2.85,2.35-2.85,4.27c0,1.22,0.86,2.24,2,2.51v3.73c0,0.41,0.33,0.74,0.74,0.74h1.69v16.96c0,0.41,0.33,0.74,0.74,0.74
	h4.61c0.41,0,0.74-0.33,0.74-0.74l0-11.09h14.13v11.09c0,0.41,0.33,0.74,0.74,0.74h4.61c0.41,0,0.74-0.33,0.74-0.74V65.46h1.81
	c0.41,0,0.74-0.33,0.74-0.74v-3.76c1.08-0.31,1.87-1.29,1.87-2.47c0-1.88-1.14-3.54-2.91-4.23c-2.05-0.81-4.06-1.41-6.01-1.85v-4.42
	c2.43-0.37,4.36-2.4,4.52-4.93l0.89-13.23c0.1-1.49-0.41-2.9-1.43-3.99c-1.02-1.08-2.4-1.68-3.89-1.68H53.74
	c-1.49,0-2.87,0.6-3.89,1.68c-1.02,1.09-1.53,2.5-1.43,3.99l0.89,13.22c0.16,2.48,2.02,4.49,4.39,4.91v4.41
	C51.08,52.96,49,53.68,47.63,54.22L47.63,54.22z"/>
<g>
	<path class="st1" d="M252.94,41.46c0.03-0.03,0.06-0.03,0.09,0l0.32,0.76h-0.72L252.94,41.46z M253.36,51.89h-0.77
		c-0.26,0-0.48-0.21-0.48-0.48v-0.45h1.73v0.45C253.84,51.67,253.63,51.89,253.36,51.89L253.36,51.89z M253.84,43.59v6.21h-1.73
		v-6.21H253.84z M252.12,50.08h1.73v0.61h-1.73V50.08z M252.51,42.49C252.51,42.49,252.51,42.49,252.51,42.49l0.94,0
		c0,0,0.01,0,0.01,0l0.35,0.83h-1.64L252.51,42.49z M252.6,52.16h0.77c0.42,0,0.75-0.34,0.75-0.75V43.4c0-0.02,0-0.04-0.01-0.05
		l-0.84-2.01c0-0.01-0.01-0.02-0.02-0.03c-0.06-0.09-0.16-0.13-0.27-0.13c-0.11,0-0.21,0.05-0.27,0.13
		c-0.01,0.01-0.01,0.02-0.02,0.03l-0.84,2.01c-0.01,0.02-0.01,0.03-0.01,0.05v8.01C251.84,51.83,252.18,52.16,252.6,52.16
		L252.6,52.16z"/>
	<path class="st1" d="M251.16,41.44v10.45h-2.11v-1.02h0.59c0.08,0,0.14-0.06,0.14-0.14c0-0.08-0.06-0.14-0.14-0.14h-0.59V49.5h0.59
		c0.08,0,0.14-0.06,0.14-0.14s-0.06-0.14-0.14-0.14h-0.59v-1.09h0.59c0.08,0,0.14-0.06,0.14-0.14c0-0.08-0.06-0.14-0.14-0.14h-0.59
		v-1.09h0.59c0.08,0,0.14-0.06,0.14-0.14s-0.06-0.14-0.14-0.14h-0.59V45.4h0.59c0.08,0,0.14-0.06,0.14-0.14
		c0-0.08-0.06-0.14-0.14-0.14l-0.59,0v-1.09h0.59c0.08,0,0.14-0.06,0.14-0.14c0-0.08-0.06-0.14-0.14-0.14h-0.59v-1.09h0.59
		c0.08,0,0.14-0.06,0.14-0.14c0-0.08-0.06-0.14-0.14-0.14h-0.59v-0.95L251.16,41.44z M248.91,52.16h2.38c0.08,0,0.14-0.06,0.14-0.14
		V41.3c0-0.08-0.06-0.14-0.14-0.14h-2.38c-0.08,0-0.14,0.06-0.14,0.14v10.73C248.77,52.1,248.84,52.16,248.91,52.16z"/>
	<path class="st1" d="M254.8,41.44h4.12c0.32,0,0.57,0.26,0.57,0.57v9.3c0,0.32-0.26,0.57-0.57,0.57h-4.12L254.8,41.44z
		 M254.66,52.16h4.26c0.47,0,0.85-0.38,0.85-0.85v-9.3c0-0.47-0.38-0.85-0.85-0.85h-4.26c-0.08,0-0.14,0.06-0.14,0.14v10.73
		C254.53,52.1,254.59,52.16,254.66,52.16L254.66,52.16z"/>
	<path class="st1" d="M255.47,42.03c-0.08,0-0.14,0.06-0.14,0.14v0.44c0,0.08,0.06,0.14,0.14,0.14c0.08,0,0.14-0.06,0.14-0.14v-0.44
		C255.6,42.1,255.54,42.03,255.47,42.03z"/>
	<path class="st1" d="M255.47,43.1c-0.08,0-0.14,0.06-0.14,0.14v0.44c0,0.08,0.06,0.14,0.14,0.14c0.08,0,0.14-0.06,0.14-0.14v-0.44
		C255.6,43.17,255.54,43.1,255.47,43.1z"/>
	<path class="st1" d="M255.47,44.17c-0.08,0-0.14,0.06-0.14,0.14v0.44c0,0.08,0.06,0.14,0.14,0.14c0.08,0,0.14-0.06,0.14-0.14v-0.44
		C255.6,44.23,255.54,44.17,255.47,44.17z"/>
	<path class="st1" d="M255.47,45.24c-0.08,0-0.14,0.06-0.14,0.14v0.44c0,0.08,0.06,0.14,0.14,0.14c0.08,0,0.14-0.06,0.14-0.14v-0.44
		C255.6,45.3,255.54,45.24,255.47,45.24z"/>
	<path class="st1" d="M255.47,46.31c-0.08,0-0.14,0.06-0.14,0.14v0.44c0,0.08,0.06,0.14,0.14,0.14c0.08,0,0.14-0.06,0.14-0.14v-0.44
		C255.6,46.37,255.54,46.31,255.47,46.31z"/>
	<path class="st1" d="M255.47,47.38c-0.08,0-0.14,0.06-0.14,0.14v0.44c0,0.08,0.06,0.14,0.14,0.14c0.08,0,0.14-0.06,0.14-0.14v-0.44
		C255.6,47.44,255.54,47.38,255.47,47.38z"/>
	<path class="st1" d="M257.04,48.44c-0.08,0-0.14,0.06-0.14,0.14v0.44c0,0.08,0.06,0.14,0.14,0.14c0.08,0,0.14-0.06,0.14-0.14v-0.44
		C257.18,48.51,257.11,48.44,257.04,48.44z"/>
	<path class="st1" d="M257.04,49.51c-0.08,0-0.14,0.06-0.14,0.14v0.44c0,0.08,0.06,0.14,0.14,0.14c0.08,0,0.14-0.06,0.14-0.14v-0.44
		C257.18,49.57,257.11,49.51,257.04,49.51z"/>
	<path class="st1" d="M257.04,50.58c-0.08,0-0.14,0.06-0.14,0.14v0.44c0,0.08,0.06,0.14,0.14,0.14c0.08,0,0.14-0.06,0.14-0.14v-0.44
		C257.18,50.64,257.11,50.58,257.04,50.58z"/>
</g>
<path class="st1" d="M271.57,49.84c0,1.06-0.45,1.74-0.77,1.74l-5.04,0c-0.31,0-0.77-0.68-0.77-1.74V38.79c0-0.64,0.6-2,1.17-2.9
	h4.23c0.57,0.9,1.17,2.26,1.17,2.9L271.57,49.84L271.57,49.84z M266.28,34.16c0-0.25,0.08-0.41,0.12-0.46h3.77
	c0.04,0.05,0.12,0.2,0.12,0.46v1.19h-4.02L266.28,34.16z M270.91,35.57c0.01-0.06,0.01-0.12,0.01-0.17v-1.23c0-0.58-0.3-1-0.7-1
	l-3.86,0c-0.41,0-0.7,0.42-0.7,1v1.23c0,0.06,0,0.11,0.01,0.17c-0.63,0.97-1.29,2.45-1.29,3.22v11.04c0,1.3,0.6,2.28,1.39,2.28h5.04
	c0.79,0,1.39-0.98,1.39-2.28V38.79C272.2,38.02,271.54,36.54,270.91,35.57L270.91,35.57z"/>
<g>
	<path class="st1" d="M51.44,92.99c0-0.11,0.09-0.2,0.2-0.2h21.71c0.11,0,0.2,0.09,0.2,0.2v13.91c0,0.11-0.09,0.2-0.2,0.2H51.64
		c-0.11,0-0.2-0.09-0.2-0.2L51.44,92.99L51.44,92.99z M51.64,108.73h21.71c1.01,0,1.83-0.82,1.83-1.83l0-13.91
		c0-1.01-0.82-1.83-1.83-1.83H51.64c-1.01,0-1.83,0.82-1.83,1.83v13.91C49.81,107.91,50.63,108.73,51.64,108.73L51.64,108.73z"/>
	<path class="st1" d="M76.71,109.62H66.64l-1.16,0.85h-5.98l-1.16-0.85H48.28c-1.19,0-0.51,2.88,2.03,2.88h24.36
		C77.22,112.5,77.9,109.62,76.71,109.62L76.71,109.62z"/>
</g>
<path class="st1" d="M105.62,110.72c0,0.41-0.33,0.74-0.74,0.74H93.67c-0.41,0-0.74-0.33-0.74-0.74V93.11
	c0-0.41,0.33-0.74,0.74-0.74h11.21c0.41,0,0.74,0.33,0.74,0.74V110.72z M104.88,92.16H93.67c-0.52,0-0.94,0.42-0.94,0.94v17.62
	c0,0.52,0.42,0.94,0.94,0.94h11.21c0.52,0,0.94-0.42,0.94-0.94V93.11C105.82,92.59,105.4,92.16,104.88,92.16L104.88,92.16z"/>
<rect x="93.29" y="94.11" class="st1" width="11.96" height="15.68"/>
<path class="st1" d="M99.27,110.99c-0.17,0-0.3-0.14-0.3-0.3s0.14-0.3,0.3-0.3s0.3,0.14,0.3,0.3S99.44,110.99,99.27,110.99z
	 M99.27,110.18c-0.28,0-0.51,0.23-0.51,0.51s0.23,0.51,0.51,0.51s0.51-0.23,0.51-0.51S99.55,110.18,99.27,110.18z"/>
<path class="st1" d="M99.41,93.26c0,0.18-0.28,0.18-0.28,0C99.14,93.07,99.41,93.07,99.41,93.26"/>
<g>
	<path class="st1" d="M121.44,110.09h-6.34V98.83h6.34V110.09z M118.28,111.36c-0.21,0-0.39-0.12-0.47-0.31
		c-0.08-0.19-0.04-0.41,0.11-0.55c0.14-0.15,0.36-0.19,0.55-0.11c0.19,0.08,0.31,0.26,0.31,0.47
		C118.78,111.13,118.55,111.36,118.28,111.36L118.28,111.36z M117.04,97.96c0.03,0,0.05,0.01,0.07,0.03s0.03,0.04,0.03,0.07
		c0,0.06-0.05,0.1-0.1,0.1c-0.06,0-0.1-0.05-0.1-0.1c0-0.03,0.01-0.05,0.03-0.07C116.99,97.97,117.01,97.96,117.04,97.96
		L117.04,97.96z M117.65,98.03h1.22c0.02,0,0.04,0.02,0.04,0.04c0,0.02-0.02,0.04-0.04,0.04h-1.22c-0.02,0-0.04-0.02-0.04-0.04
		C117.61,98.04,117.63,98.03,117.65,98.03z M121.88,99.98h-0.01l0-1.79c0-0.27-0.11-0.54-0.3-0.73c-0.19-0.19-0.46-0.3-0.73-0.3
		h-5.12c-0.57,0-1.03,0.46-1.03,1.03v0.72h-0.02c-0.02,0-0.04,0.02-0.04,0.04v0.44c0,0.02,0.02,0.04,0.04,0.04c0.01,0,0.01,0,0.02,0
		v0.56h-0.02c-0.02,0-0.04,0.02-0.04,0.04v0.88c0,0.02,0.02,0.04,0.04,0.04h0.02v0.21v0c-0.01,0-0.01,0-0.02,0
		c-0.02,0-0.04,0.02-0.04,0.04v0.88c0,0.02,0.02,0.04,0.04,0.04c0.01,0,0.01,0,0.02,0v8.64c0,0.57,0.46,1.03,1.03,1.03h5.12
		c0.57,0,1.03-0.46,1.03-1.03v-9.83c0,0,0.01,0,0.01,0c0.01,0,0.02,0,0.03-0.01c0.01-0.01,0.01-0.02,0.01-0.02v-0.88
		C121.92,100,121.9,99.98,121.88,99.98L121.88,99.98z"/>
</g>
<g>
	<path class="st1" d="M113.68,192.49v0.81c0,0.1,0.08,0.19,0.19,0.19h0.81c0.1,0,0.19-0.08,0.19-0.19v-0.81
		c0-0.1-0.08-0.19-0.19-0.19h-0.81C113.77,192.29,113.68,192.38,113.68,192.49z"/>
	<path class="st1" d="M111.9,192.49v0.81c0,0.1,0.08,0.19,0.19,0.19h0.81c0.1,0,0.19-0.08,0.19-0.19v-0.81
		c0-0.1-0.08-0.19-0.19-0.19h-0.83C111.99,192.29,111.9,192.38,111.9,192.49z"/>
	<path class="st1" d="M111.9,194.27v0.8c0,0.1,0.08,0.19,0.19,0.19h0.81c0.1,0,0.19-0.08,0.19-0.19v-0.8c0-0.1-0.08-0.19-0.19-0.19
		h-0.83C111.99,194.08,111.9,194.16,111.9,194.27z"/>
	<path class="st1" d="M113.68,194.27v0.8c0,0.1,0.08,0.19,0.19,0.19h0.81c0.1,0,0.19-0.08,0.19-0.19v-0.8c0-0.1-0.08-0.19-0.19-0.19
		h-0.81C113.77,194.08,113.68,194.16,113.68,194.27z"/>
	<path class="st1" d="M112.9,190.38c0.17,0,0.32,0.14,0.32,0.32v0.81c0,0.17-0.14,0.32-0.32,0.32l-0.81,0
		c-0.17,0-0.32-0.14-0.32-0.32v-0.81c0-0.17,0.14-0.32,0.32-0.32L112.9,190.38z M114.69,190.38c0.17,0,0.32,0.14,0.32,0.32v0.81
		c0,0.17-0.14,0.32-0.32,0.32h-0.81c-0.17,0-0.32-0.14-0.32-0.32v-0.81c0-0.17,0.14-0.32,0.32-0.32H114.69z M112.9,192.17
		c0.17,0,0.32,0.14,0.32,0.32v0.81c0,0.17-0.14,0.32-0.32,0.32l-0.81,0c-0.17,0-0.32-0.14-0.32-0.32v-0.81
		c0-0.17,0.14-0.32,0.32-0.32L112.9,192.17z M114.69,192.17c0.17,0,0.32,0.14,0.32,0.32v0.81c0,0.17-0.14,0.32-0.32,0.32h-0.81
		c-0.17,0-0.32-0.14-0.32-0.32v-0.81c0-0.17,0.14-0.32,0.32-0.32H114.69z M112.9,193.95c0.17,0,0.32,0.14,0.32,0.32l0,0.8
		c0,0.17-0.14,0.32-0.32,0.32h-0.81c-0.17,0-0.32-0.14-0.32-0.32v-0.8c0-0.17,0.14-0.32,0.32-0.32H112.9z M114.69,193.95
		c0.17,0,0.32,0.14,0.32,0.32v0.8c0,0.17-0.14,0.32-0.32,0.32h-0.81c-0.17,0-0.32-0.14-0.32-0.32l0-0.8c0-0.17,0.14-0.32,0.32-0.32
		H114.69z M111.23,194.3v-2.81h0.25v2.81H111.23z M110.78,195.58h-3.06c-0.17,0-0.32-0.14-0.32-0.31v-4.74
		c0-0.17,0.14-0.31,0.32-0.31h3.05c0.17,0,0.32,0.14,0.32,0.31v4.73C111.1,195.43,110.95,195.58,110.78,195.58L110.78,195.58z
		 M111.48,190.47v0.26h-0.25v-0.21c0-0.24-0.19-0.44-0.45-0.44h-3.06c-0.24,0-0.45,0.19-0.45,0.44v4.73c0,0.24,0.19,0.44,0.45,0.44
		h3.05c0.24,0,0.45-0.19,0.45-0.44v-0.21h0.25v0.26c0,0.21,0.17,0.38,0.38,0.38h3.05c0.21,0,0.38-0.17,0.38-0.38v-4.85
		c0-0.21-0.17-0.38-0.38-0.38h-3.04C111.65,190.08,111.48,190.25,111.48,190.47L111.48,190.47z"/>
	<path class="st1" d="M113.68,190.7v0.81c0,0.1,0.08,0.19,0.19,0.19h0.81c0.1,0,0.19-0.08,0.19-0.19v-0.81
		c0-0.1-0.08-0.19-0.19-0.19h-0.81C113.77,190.51,113.68,190.59,113.68,190.7z"/>
	<path class="st1" d="M111.9,190.7v0.81c0,0.1,0.08,0.19,0.19,0.19h0.81c0.1,0,0.19-0.08,0.19-0.19v-0.81c0-0.1-0.08-0.19-0.19-0.19
		h-0.83C111.99,190.51,111.9,190.59,111.9,190.7z"/>
</g>
<g>
	<path class="st1" d="M107.49,175.76v0.29c2.74,0,4.97,2.23,4.97,4.97s-2.23,4.97-4.97,4.97v0.29c2.85,0,5.18-2.28,5.25-5.11l2.09,0
		v1.65h0.29v-3.59h-0.29v1.65h-2.09C112.67,178.04,110.34,175.76,107.49,175.76L107.49,175.76z"/>
	<path class="st1" d="M103.56,181.02c0-2.17,1.76-3.93,3.93-3.93c2.17,0,3.93,1.76,3.93,3.93s-1.76,3.93-3.93,3.93
		C105.33,184.95,103.56,183.18,103.56,181.02z M111.71,181.02c0-2.33-1.89-4.22-4.22-4.22c-2.33,0-4.22,1.89-4.22,4.22
		c0,2.33,1.89,4.22,4.22,4.22C109.82,185.24,111.71,183.34,111.71,181.02z"/>
	
		<rect x="104.91" y="179.31" transform="matrix(0.7071 -0.7071 0.7071 0.7071 -95.8201 127.5721)" class="st1" width="2.35" height="0.29"/>
	
		<rect x="104.54" y="180.5" transform="matrix(0.7035 -0.7107 0.7107 0.7035 -96.6998 129.5086)" class="st1" width="4.64" height="0.29"/>
</g>
<path class="st1" d="M96.79,217.21c0.08,0.04,0.14,0.13,0.13,0.22l-0.02,2.72c0,0.17,0.06,0.33,0.18,0.45
	c0.12,0.12,0.28,0.19,0.45,0.19l0.21,0c0.17,0,0.33-0.06,0.45-0.18c0.12-0.12,0.19-0.28,0.19-0.45l0.03-2.72
	c0-0.09,0.05-0.18,0.13-0.21c0.07-0.02,0.14-0.01,0.2,0.03c0.06,0.04,0.09,0.1,0.09,0.17l-0.04,2.74c0,0.35,0.28,0.64,0.63,0.64
	c0.35,0,0.64-0.28,0.64-0.63l0.03-2.74c0-0.07,0.03-0.13,0.09-0.17c0.06-0.04,0.13-0.05,0.2-0.03c0.09,0.04,0.14,0.13,0.13,0.22
	l-0.03,2.72c0,0.17,0.06,0.33,0.18,0.45c0.12,0.12,0.28,0.19,0.45,0.19l0.21,0c0.17,0,0.33-0.06,0.45-0.18
	c0.12-0.12,0.19-0.28,0.19-0.45l0.03-2.74c0-0.07,0.03-0.13,0.09-0.17c0.06-0.04,0.13-0.05,0.2-0.03c0.08,0.04,0.14,0.13,0.13,0.22
	l-0.06,3.78c0,0.17,0.06,0.33,0.18,0.45c0.12,0.12,0.28,0.19,0.45,0.19l0.43,0c0.75,0.01,2.12-0.11,2.78-0.45
	c0.18-0.1,0.39-0.14,0.6-0.14c0.38,0,0.73,0.18,0.97,0.47c0.24,0.3,0.34,0.69,0.25,1.07c-0.11,0.5-0.51,0.88-1.01,0.97
	c-0.26,0.04-0.52,0-0.76-0.11c-0.66-0.31-2-0.54-2.77-0.55l-0.49-0.01c-0.17,0-0.33,0.06-0.45,0.18c-0.12,0.12-0.19,0.28-0.19,0.45
	c0,0.06-0.02,0.11-0.06,0.15c-0.04,0.04-0.09,0.06-0.15,0.06l-5.48-0.07c-0.06,0-0.11-0.02-0.15-0.06
	c-0.04-0.04-0.06-0.09-0.06-0.15l0.02-1.27l5.06,0.06l0.01-0.42l-5.06-0.06l0.06-4.64c0-0.07,0.03-0.13,0.09-0.17
	C96.66,217.18,96.73,217.18,96.79,217.21L96.79,217.21z M96.09,217.4l-0.08,6.33c0,0.17,0.06,0.33,0.18,0.45
	c0.12,0.12,0.28,0.19,0.45,0.19l5.48,0.07c0.17,0,0.33-0.06,0.45-0.18c0.12-0.12,0.19-0.28,0.19-0.45c0-0.06,0.02-0.11,0.06-0.15
	c0.04-0.04,0.09-0.06,0.15-0.06l0.49,0.01c0.73,0.01,2,0.23,2.6,0.51c0.53,0.25,1.15,0.21,1.64-0.11c0.49-0.32,0.78-0.86,0.77-1.45
	c-0.01-0.58-0.32-1.12-0.82-1.42c-0.5-0.3-1.12-0.32-1.64-0.05c-0.56,0.29-1.85,0.41-2.58,0.4l-0.43,0c-0.06,0-0.11-0.02-0.15-0.06
	s-0.06-0.09-0.06-0.15l0.06-3.78c0.01-0.28-0.16-0.53-0.42-0.63c-0.19-0.07-0.41-0.04-0.57,0.08c-0.17,0.12-0.27,0.31-0.27,0.51
	l-0.03,2.74c0,0.06-0.02,0.11-0.06,0.15c-0.04,0.04-0.09,0.06-0.15,0.06l-0.21,0c-0.06,0-0.11-0.02-0.15-0.06
	c-0.04-0.04-0.06-0.1-0.06-0.15l0.03-2.72c0.01-0.28-0.17-0.53-0.43-0.62c-0.19-0.07-0.41-0.04-0.57,0.08
	c-0.17,0.12-0.27,0.31-0.27,0.51l-0.03,2.74c0,0.06-0.02,0.11-0.06,0.15c-0.04,0.04-0.1,0.06-0.15,0.06c-0.06,0-0.11-0.02-0.15-0.07
	c-0.04-0.04-0.06-0.1-0.06-0.16l0.03-2.74c0-0.2-0.09-0.4-0.26-0.52c-0.16-0.12-0.38-0.16-0.57-0.09c-0.26,0.09-0.44,0.34-0.44,0.61
	l-0.03,2.72c0,0.06-0.02,0.11-0.06,0.15c-0.04,0.04-0.09,0.06-0.15,0.06l-0.21,0c-0.06,0-0.11-0.02-0.15-0.06
	c-0.04-0.04-0.06-0.09-0.06-0.15l0.03-2.72c0.01-0.28-0.16-0.53-0.42-0.63c-0.19-0.07-0.41-0.04-0.57,0.08
	C96.19,217,96.09,217.19,96.09,217.4L96.09,217.4z"/>
<g>
	<path class="st1" d="M102.41,193.8l-0.55,0.55l0.15,0.15l0.55-0.55l0.68,0.68l-1,1l-0.16-0.16l0.55-0.55l-0.15-0.15l-0.55,0.55
		l-0.68-0.68l1-1L102.41,193.8z M100.17,195.05c-0.17,0-0.32-0.1-0.38-0.26c-0.06-0.16-0.03-0.33,0.09-0.45
		c0.12-0.12,0.3-0.15,0.45-0.09c0.16,0.06,0.26,0.22,0.26,0.38C100.59,194.86,100.4,195.05,100.17,195.05L100.17,195.05z
		 M99.13,194.73v-0.21h0.42c-0.01,0.07-0.01,0.14,0,0.21H99.13z M101.06,194.53h-0.28c-0.04-0.26-0.24-0.46-0.5-0.51
		c-0.26-0.05-0.52,0.07-0.65,0.3h-0.6c-0.03,0-0.05,0.01-0.07,0.03c-0.02,0.02-0.03,0.05-0.03,0.07v0.1h-0.31
		c-0.03,0-0.05,0.01-0.07,0.03s-0.03,0.05-0.03,0.07c0,0.06-0.03,0.12-0.08,0.16c-0.05,0.04-0.11,0.06-0.17,0.04
		c-0.08-0.02-0.15-0.08-0.17-0.17c-0.01-0.06,0-0.12,0.04-0.17c0.04-0.05,0.1-0.08,0.16-0.07c0.03,0,0.05-0.01,0.07-0.03l0.13-0.13
		c0.13-0.14,0.13-0.36,0-0.5l-0.13-0.13l-0.15,0.15l0.13,0.13c0.06,0.06,0.06,0.15,0,0.21l-0.11,0.11h0
		c-0.15,0.02-0.28,0.12-0.34,0.26c-0.06,0.14-0.03,0.31,0.07,0.42c0.1,0.12,0.26,0.17,0.41,0.13c0.15-0.04,0.27-0.15,0.31-0.3h0.22
		v0.1c0,0.06,0.05,0.1,0.1,0.1h0.6c0.13,0.23,0.39,0.35,0.65,0.3c0.26-0.05,0.46-0.25,0.5-0.51h0.28l1.11,1.11
		c0.04,0.04,0.11,0.04,0.15,0l1.14-1.14c0.04-0.04,0.04-0.11,0-0.15l-1.14-1.14c-0.04-0.04-0.11-0.04-0.15,0L101.06,194.53z"/>
	<path class="st1" d="M101.58,191.31l-0.55,0.55l0.15,0.15l0.55-0.55l0.68,0.68l-1,1l-0.16-0.16l0.55-0.55l-0.15-0.15l-0.55,0.55
		l-0.68-0.68l1-1L101.58,191.31z M99.34,192.55c-0.17,0-0.32-0.1-0.38-0.26c-0.06-0.16-0.03-0.33,0.09-0.45
		c0.12-0.12,0.3-0.15,0.45-0.09c0.16,0.06,0.26,0.22,0.26,0.38C99.76,192.37,99.57,192.55,99.34,192.55L99.34,192.55z M98.3,192.24
		v-0.21h0.42c-0.01,0.07-0.01,0.14,0,0.21H98.3z M101.34,190.92l-1.11,1.11h-0.28c-0.04-0.26-0.24-0.46-0.5-0.51
		c-0.26-0.05-0.52,0.07-0.65,0.3h-0.6c-0.03,0-0.05,0.01-0.07,0.03c-0.02,0.02-0.03,0.05-0.03,0.07v0.1h-0.31
		c-0.03,0-0.05,0.01-0.07,0.03s-0.03,0.05-0.03,0.07c0,0.06-0.03,0.12-0.08,0.16c-0.05,0.04-0.11,0.06-0.17,0.04
		c-0.08-0.02-0.15-0.08-0.17-0.17c-0.01-0.06,0-0.12,0.04-0.17c0.04-0.05,0.1-0.08,0.16-0.07c0.03,0,0.05-0.01,0.07-0.03l0.13-0.13
		c0.13-0.14,0.13-0.36,0-0.5l-0.13-0.13l-0.15,0.15l0.13,0.13c0.06,0.06,0.06,0.15,0,0.21l-0.11,0.11
		c-0.15,0.02-0.28,0.12-0.34,0.26c-0.06,0.14-0.03,0.31,0.07,0.42c0.1,0.12,0.26,0.17,0.41,0.13c0.15-0.04,0.27-0.15,0.31-0.3h0.22
		v0.1c0,0.06,0.05,0.1,0.1,0.1h0.6c0.13,0.23,0.39,0.35,0.65,0.3c0.26-0.05,0.46-0.25,0.5-0.51h0.28l1.11,1.11
		c0.04,0.04,0.11,0.04,0.15,0l1.14-1.14c0.04-0.04,0.04-0.11,0-0.15l-1.14-1.14C101.45,190.88,101.38,190.88,101.34,190.92
		L101.34,190.92z"/>
</g>
<path class="st1" d="M110.65,172.8v0.26l-2.98,0v-0.26H110.65z M110.65,172.44v0.25h-2.98v-0.25H110.65z M107.67,171.96v-0.24h2.98
	v0.24H107.67z M110.65,172.07v0.25h-2.98v-0.25H110.65z M110.76,172.87v-0.92h0.33v0.92H110.76z M114.73,173.56l-2.88,0.21
	c-0.35,0-0.64-0.29-0.64-0.64v-1.5c0-0.35,0.29-0.64,0.63-0.64l2.89,0.21L114.73,173.56z M111,171.63v0.12h-0.15v-0.23l-3.39,0v1.75
	h3.39v-0.19H111v0.06c0,0.46,0.38,0.84,0.85,0.84l3.08-0.22v-2.73l-3.09-0.22C111.38,170.79,111,171.17,111,171.63L111,171.63z"/>
<path class="st1" d="M114.69,164.04c0.2,0,0.36,0.16,0.36,0.36v2.1c0,0.2-0.16,0.36-0.36,0.36h-2.29c-0.35,0-0.68-0.19-0.86-0.49
	v-1.84c0.18-0.31,0.51-0.49,0.86-0.49L114.69,164.04z M111.09,165h0.33v0.92h-0.33V165z M110.98,166.25h-1.17
	c0.3-0.33,0.51-0.74,0.6-1.18c0.03-0.13,0.04-0.27,0.05-0.4h0.53L110.98,166.25z M108,166.01c0.91-0.02,1.73-0.53,2.15-1.34h0.17
	c-0.01,0.13-0.02,0.25-0.04,0.38c-0.09,0.46-0.31,0.87-0.64,1.2l-1.64,0L108,166.01z M110.03,164.66c-0.41,0.74-1.17,1.2-2.02,1.22
	v-1.22H110.03z M111.35,164.44l-0.02,0.03v0.31h-0.15v-0.33h-3.39v1.99h3.39v-0.33h0.15v0.31l0.02,0.03
	c0.21,0.38,0.61,0.61,1.05,0.61h2.29c0.31,0,0.57-0.26,0.57-0.57v-2.1c0-0.31-0.26-0.57-0.57-0.57l-2.29,0
	C111.97,163.83,111.57,164.07,111.35,164.44L111.35,164.44z"/>
<g>
	<path class="st4" d="M114.94,218.56v4.53c0,0.13-0.1,0.23-0.23,0.23h-2.87c-0.13,0-0.23-0.1-0.23-0.23v-4.53
		c0-0.13,0.1-0.23,0.23-0.23h2.87C114.84,218.33,114.94,218.43,114.94,218.56z M111.77,223.1c0,0.04,0.03,0.07,0.07,0.07h2.87
		c0.04,0,0.07-0.03,0.07-0.07v-4.53c0-0.04-0.03-0.07-0.07-0.07h-2.87c-0.04,0-0.07,0.03-0.07,0.07V223.1z"/>
	<path class="st4" d="M113.52,221.96c0,0.48-0.39,0.88-0.88,0.88c-0.27,0-0.52-0.12-0.68-0.33c-0.03-0.04-0.02-0.09,0.01-0.12
		c0.04-0.03,0.09-0.02,0.12,0.01c0.14,0.17,0.34,0.27,0.55,0.27c0.39,0,0.71-0.32,0.71-0.71c0-0.39-0.32-0.71-0.71-0.71
		c-0.22,0-0.42,0.1-0.55,0.27c-0.03,0.04-0.08,0.04-0.12,0.01c-0.04-0.03-0.04-0.08-0.01-0.12c0.17-0.21,0.42-0.33,0.68-0.33
		C113.13,221.08,113.52,221.47,113.52,221.96"/>
	<path class="st4" d="M113.19,222.5c0.05,0,0.08-0.04,0.08-0.08c0-0.05-0.04-0.08-0.08-0.08c-0.05,0-0.08,0.04-0.08,0.08
		C113.11,222.46,113.15,222.5,113.19,222.5"/>
	<path class="st4" d="M112.94,222.33c0.05,0,0.08-0.04,0.08-0.08c0-0.05-0.04-0.08-0.08-0.08c-0.05,0-0.08,0.04-0.08,0.08
		C112.86,222.29,112.9,222.33,112.94,222.33"/>
	<path class="st4" d="M112.94,222.66c0.05,0,0.08-0.04,0.08-0.08c0-0.05-0.04-0.08-0.08-0.08c-0.05,0-0.08,0.04-0.08,0.08
		C112.86,222.63,112.9,222.66,112.94,222.66"/>
	<path class="st4" d="M112.94,221.66c0.05,0,0.08-0.04,0.08-0.08c0-0.05-0.04-0.08-0.08-0.08c-0.05,0-0.08,0.04-0.08,0.08
		C112.86,221.63,112.9,221.66,112.94,221.66"/>
	<path class="st4" d="M112.94,221.33c0.05,0,0.08-0.04,0.08-0.08c0-0.05-0.04-0.08-0.08-0.08c-0.05,0-0.08,0.04-0.08,0.08
		C112.86,221.29,112.9,221.33,112.94,221.33"/>
	<path class="st4" d="M112.44,222.33c0.05,0,0.08-0.04,0.08-0.08c0-0.05-0.04-0.08-0.08-0.08c-0.05,0-0.08,0.04-0.08,0.08
		C112.36,222.29,112.4,222.33,112.44,222.33"/>
	<path class="st4" d="M112.44,222.66c0.05,0,0.08-0.04,0.08-0.08c0-0.05-0.04-0.08-0.08-0.08c-0.05,0-0.08,0.04-0.08,0.08
		C112.36,222.63,112.4,222.66,112.44,222.66"/>
	<path class="st4" d="M112.44,221.66c0.05,0,0.08-0.04,0.08-0.08c0-0.05-0.04-0.08-0.08-0.08c-0.05,0-0.08,0.04-0.08,0.08
		C112.36,221.63,112.4,221.66,112.44,221.66"/>
	<path class="st4" d="M112.44,221.33c0.05,0,0.08-0.04,0.08-0.08c0-0.05-0.04-0.08-0.08-0.08c-0.05,0-0.08,0.04-0.08,0.08
		C112.36,221.29,112.4,221.33,112.44,221.33"/>
	<path class="st4" d="M112.94,222c0.05,0,0.08-0.04,0.08-0.08c0-0.05-0.04-0.08-0.08-0.08c-0.05,0-0.08,0.04-0.08,0.08
		C112.86,221.96,112.9,222,112.94,222"/>
	<path class="st4" d="M113.19,222.16c0.05,0,0.08-0.04,0.08-0.08c0-0.05-0.04-0.08-0.08-0.08c-0.05,0-0.08,0.04-0.08,0.08
		C113.11,222.13,113.15,222.16,113.19,222.16"/>
	<path class="st4" d="M113.19,221.83c0.05,0,0.08-0.04,0.08-0.08c0-0.05-0.04-0.08-0.08-0.08c-0.05,0-0.08,0.04-0.08,0.08
		C113.11,221.79,113.15,221.83,113.19,221.83"/>
	<path class="st4" d="M113.19,221.5c0.05,0,0.08-0.04,0.08-0.08c0-0.05-0.04-0.08-0.08-0.08c-0.05,0-0.08,0.04-0.08,0.08
		C113.11,221.46,113.15,221.5,113.19,221.5"/>
	<path class="st4" d="M112.44,222c0.05,0,0.08-0.04,0.08-0.08c0-0.05-0.04-0.08-0.08-0.08c-0.05,0-0.08,0.04-0.08,0.08
		C112.36,221.96,112.4,222,112.44,222"/>
	<path class="st4" d="M112.69,222.16c0.05,0,0.08-0.04,0.08-0.08c0-0.05-0.04-0.08-0.08-0.08c-0.05,0-0.08,0.04-0.08,0.08
		C112.61,222.13,112.65,222.16,112.69,222.16"/>
	<path class="st4" d="M112.69,222.5c0.05,0,0.08-0.04,0.08-0.08c0-0.05-0.04-0.08-0.08-0.08c-0.05,0-0.08,0.04-0.08,0.08
		C112.61,222.46,112.65,222.5,112.69,222.5"/>
	<path class="st4" d="M112.69,221.83c0.05,0,0.08-0.04,0.08-0.08c0-0.05-0.04-0.08-0.08-0.08c-0.05,0-0.08,0.04-0.08,0.08
		C112.61,221.79,112.65,221.83,112.69,221.83"/>
	<path class="st4" d="M112.2,222.16c0.05,0,0.08-0.04,0.08-0.08c0-0.05-0.04-0.08-0.08-0.08c-0.05,0-0.08,0.04-0.08,0.08
		C112.11,222.13,112.15,222.16,112.2,222.16"/>
	<path class="st4" d="M112.2,222.5c0.05,0,0.08-0.04,0.08-0.08c0-0.05-0.04-0.08-0.08-0.08c-0.05,0-0.08,0.04-0.08,0.08
		C112.11,222.46,112.15,222.5,112.2,222.5"/>
	<path class="st4" d="M112.2,221.83c0.05,0,0.08-0.04,0.08-0.08c0-0.05-0.04-0.08-0.08-0.08c-0.05,0-0.08,0.04-0.08,0.08
		C112.11,221.79,112.15,221.83,112.2,221.83"/>
	<path class="st4" d="M112.2,221.5c0.05,0,0.08-0.04,0.08-0.08c0-0.05-0.04-0.08-0.08-0.08c-0.05,0-0.08,0.04-0.08,0.08
		C112.11,221.46,112.15,221.5,112.2,221.5"/>
	<path class="st4" d="M112.69,221.5c0.05,0,0.08-0.04,0.08-0.08c0-0.05-0.04-0.08-0.08-0.08c-0.05,0-0.08,0.04-0.08,0.08
		C112.61,221.46,112.65,221.5,112.69,221.5"/>
	<path class="st4" d="M113.52,219.7c0,0.48-0.39,0.88-0.88,0.88c-0.27,0-0.52-0.12-0.68-0.33c-0.03-0.04-0.02-0.09,0.01-0.12
		c0.04-0.03,0.09-0.02,0.12,0.01c0.14,0.17,0.34,0.27,0.55,0.27c0.39,0,0.71-0.32,0.71-0.71c0-0.39-0.32-0.71-0.71-0.71
		c-0.22,0-0.42,0.1-0.55,0.27c-0.03,0.04-0.08,0.04-0.12,0.01c-0.04-0.03-0.04-0.08-0.01-0.12c0.17-0.21,0.42-0.33,0.68-0.33
		C113.13,218.83,113.52,219.22,113.52,219.7"/>
	<path class="st4" d="M113.19,220.33c0.05,0,0.08-0.04,0.08-0.08c0-0.05-0.04-0.08-0.08-0.08c-0.05,0-0.08,0.04-0.08,0.08
		C113.11,220.29,113.15,220.33,113.19,220.33"/>
	<path class="st4" d="M112.94,220.16c0.05,0,0.08-0.04,0.08-0.08c0-0.05-0.04-0.08-0.08-0.08c-0.05,0-0.08,0.04-0.08,0.08
		C112.86,220.12,112.9,220.16,112.94,220.16"/>
	<path class="st4" d="M112.94,220.5c0.05,0,0.08-0.04,0.08-0.08c0-0.05-0.04-0.08-0.08-0.08c-0.05,0-0.08,0.04-0.08,0.08
		C112.86,220.46,112.9,220.5,112.94,220.5"/>
	<path class="st4" d="M112.94,219.5c0.05,0,0.08-0.04,0.08-0.08c0-0.05-0.04-0.08-0.08-0.08c-0.05,0-0.08,0.04-0.08,0.08
		C112.86,219.46,112.9,219.5,112.94,219.5"/>
	<path class="st4" d="M112.94,219.25c0.05,0,0.08-0.04,0.08-0.08c0-0.05-0.04-0.08-0.08-0.08c-0.05,0-0.08,0.04-0.08,0.08
		C112.86,219.21,112.9,219.25,112.94,219.25"/>
	<path class="st4" d="M112.44,220.16c0.05,0,0.08-0.04,0.08-0.08c0-0.05-0.04-0.08-0.08-0.08c-0.05,0-0.08,0.04-0.08,0.08
		C112.36,220.12,112.4,220.16,112.44,220.16"/>
	<path class="st4" d="M112.44,220.5c0.05,0,0.08-0.04,0.08-0.08c0-0.05-0.04-0.08-0.08-0.08c-0.05,0-0.08,0.04-0.08,0.08
		C112.36,220.46,112.4,220.5,112.44,220.5"/>
	<path class="st4" d="M112.44,219.5c0.05,0,0.08-0.04,0.08-0.08c0-0.05-0.04-0.08-0.08-0.08c-0.05,0-0.08,0.04-0.08,0.08
		C112.36,219.46,112.4,219.5,112.44,219.5"/>
	<path class="st4" d="M112.44,219.25c0.05,0,0.08-0.04,0.08-0.08c0-0.05-0.04-0.08-0.08-0.08c-0.05,0-0.08,0.04-0.08,0.08
		C112.36,219.21,112.4,219.25,112.44,219.25"/>
	<path class="st4" d="M112.94,219.83c0.05,0,0.08-0.04,0.08-0.08c0-0.05-0.04-0.08-0.08-0.08c-0.05,0-0.08,0.04-0.08,0.08
		C112.86,219.79,112.9,219.83,112.94,219.83"/>
	<path class="st4" d="M113.19,220c0.05,0,0.08-0.04,0.08-0.08c0-0.05-0.04-0.08-0.08-0.08c-0.05,0-0.08,0.04-0.08,0.08
		C113.11,219.96,113.15,220,113.19,220"/>
	<path class="st4" d="M113.19,219.66c0.05,0,0.08-0.04,0.08-0.08c0-0.05-0.04-0.08-0.08-0.08c-0.05,0-0.08,0.04-0.08,0.08
		C113.11,219.62,113.15,219.66,113.19,219.66"/>
	<path class="st4" d="M113.19,219.33c0.05,0,0.08-0.04,0.08-0.08c0-0.05-0.04-0.08-0.08-0.08c-0.05,0-0.08,0.04-0.08,0.08
		C113.11,219.29,113.15,219.33,113.19,219.33"/>
	<path class="st4" d="M112.44,219.83c0.05,0,0.08-0.04,0.08-0.08c0-0.05-0.04-0.08-0.08-0.08c-0.05,0-0.08,0.04-0.08,0.08
		C112.36,219.79,112.4,219.83,112.44,219.83"/>
	<path class="st4" d="M112.69,220c0.05,0,0.08-0.04,0.08-0.08c0-0.05-0.04-0.08-0.08-0.08c-0.05,0-0.08,0.04-0.08,0.08
		C112.61,219.96,112.65,220,112.69,220"/>
	<path class="st4" d="M112.69,220.33c0.05,0,0.08-0.04,0.08-0.08c0-0.05-0.04-0.08-0.08-0.08c-0.05,0-0.08,0.04-0.08,0.08
		C112.61,220.29,112.65,220.33,112.69,220.33"/>
	<path class="st4" d="M112.69,219.66c0.05,0,0.08-0.04,0.08-0.08c0-0.05-0.04-0.08-0.08-0.08c-0.05,0-0.08,0.04-0.08,0.08
		C112.61,219.62,112.65,219.66,112.69,219.66"/>
	<path class="st4" d="M112.2,220c0.05,0,0.08-0.04,0.08-0.08c0-0.05-0.04-0.08-0.08-0.08c-0.05,0-0.08,0.04-0.08,0.08
		C112.11,219.96,112.15,220,112.2,220"/>
	<path class="st4" d="M112.2,220.33c0.05,0,0.08-0.04,0.08-0.08c0-0.05-0.04-0.08-0.08-0.08c-0.05,0-0.08,0.04-0.08,0.08
		C112.11,220.29,112.15,220.33,112.2,220.33"/>
	<path class="st4" d="M112.2,219.66c0.05,0,0.08-0.04,0.08-0.08c0-0.05-0.04-0.08-0.08-0.08c-0.05,0-0.08,0.04-0.08,0.08
		C112.11,219.62,112.15,219.66,112.2,219.66"/>
	<path class="st4" d="M112.2,219.33c0.05,0,0.08-0.04,0.08-0.08c0-0.05-0.04-0.08-0.08-0.08c-0.05,0-0.08,0.04-0.08,0.08
		C112.11,219.29,112.15,219.33,112.2,219.33"/>
	<path class="st4" d="M112.69,219.33c0.05,0,0.08-0.04,0.08-0.08c0-0.05-0.04-0.08-0.08-0.08c-0.05,0-0.08,0.04-0.08,0.08
		C112.61,219.29,112.65,219.33,112.69,219.33"/>
	<path class="st4" d="M114.61,222.41c0,0.33-0.18,0.58-0.42,0.58c-0.23,0-0.42-0.26-0.42-0.58c0-0.33,0.18-0.58,0.42-0.58
		C114.42,221.83,114.61,222.09,114.61,222.41 M113.94,222.41c0,0.23,0.11,0.42,0.25,0.42c0.14,0,0.25-0.19,0.25-0.42
		c0-0.23-0.11-0.42-0.25-0.42C114.06,222,113.94,222.19,113.94,222.41"/>
	<path class="st4" d="M114.61,219.25c0,0.33-0.18,0.58-0.42,0.58c-0.23,0-0.42-0.26-0.42-0.58c0-0.33,0.18-0.58,0.42-0.58
		C114.42,218.66,114.61,218.92,114.61,219.25 M113.94,219.25c0,0.23,0.11,0.42,0.25,0.42c0.14,0,0.25-0.19,0.25-0.42
		c0-0.23-0.11-0.42-0.25-0.42C114.06,218.83,113.94,219.02,113.94,219.25"/>
	<path class="st4" d="M114.44,219.5v2.67l-0.14-0.12c-0.04-0.03-0.07-0.05-0.11-0.05c-0.04,0-0.08,0.02-0.11,0.05l-0.14,0.12v-2.67
		l0.14,0.12c0.04,0.03,0.07,0.05,0.11,0.05c0.04,0,0.08-0.02,0.11-0.05L114.44,219.5z M114.27,221.84v-2.02
		c-0.03,0.01-0.06,0.01-0.08,0.01c-0.03,0-0.06,0-0.08-0.01v2.02c0.03-0.01,0.06-0.01,0.08-0.01
		C114.22,221.83,114.25,221.83,114.27,221.84z"/>
</g>
<g>
	<path class="st1" d="M86.5,222.39v2.62c0,0.29,0.23,0.52,0.52,0.52h3.47c0.29,0,0.52-0.23,0.52-0.52v-2.62
		c0-0.29-0.23-0.52-0.52-0.52h-3.47C86.73,221.87,86.5,222.11,86.5,222.39z"/>
	<rect x="82.1" y="222.65" class="st1" width="3.84" height="2.11"/>
</g>
<path class="st4" d="M90.36,227.65c0.3,0,0.49,0.55,0.49,1.06c0,0.51-0.19,1.06-0.47,1.06h-0.21c0.16-0.28,0.25-0.67,0.25-1.06
	c0-0.38-0.08-0.78-0.25-1.07H90.36z M89.49,227.65c0.01,0,0.01,0,0.02,0c0.3,0,0.49,0.55,0.49,1.06c0,0.49-0.17,1.02-0.44,1.06
	h-1.78c0.09-0.22,0.16-0.55,0.16-1.04c0-0.52-0.08-0.86-0.18-1.09H89.49z M87.22,227.67c0.09,0,0.29,0.27,0.29,1.07
	c0,0.67-0.14,0.96-0.24,1.04c-0.03,0-0.05,0.01-0.07,0.02c-0.1-0.04-0.27-0.32-0.27-1.06C86.93,227.94,87.13,227.67,87.22,227.67
	L87.22,227.67z M87.22,230.23c0.04,0,0.1-0.01,0.16-0.03h2.13c0.01,0,0.01,0,0.02,0c0.02,0,0.03,0,0.05,0h0.8
	c0.59,0,0.89-0.75,0.89-1.49c0-0.72-0.28-1.49-0.91-1.49h-3.07c-0.03,0-0.06,0.01-0.09,0.02c-0.22,0.01-0.7,0.18-0.7,1.49
	C86.5,230.08,87,230.23,87.22,230.23L87.22,230.23z M90.05,232.75c0-0.12-0.1-0.21-0.21-0.21h-1.91c-0.12,0-0.21,0.09-0.21,0.21
	s0.09,0.21,0.21,0.21h1.91C89.96,232.96,90.05,232.87,90.05,232.75z M90.24,235.3c0.57,0,0.94-0.74,0.94-1.85
	c0-1.09-0.4-1.84-0.98-1.84l-3.73,0c-0.05-0.02-0.11-0.03-0.16-0.03c-0.41,0-0.57,0.28-0.66,0.45c-0.01,0.03-0.03,0.05-0.05,0.08
	h-2.98c-0.02,0-0.04,0.01-0.06,0.01c-0.17-0.03-0.32,0-0.44,0.09c-0.37,0.27-0.31,0.98,0.14,1.65c0.29,0.44,0.67,0.73,1.01,0.79
	c0.07,0.01,0.13,0.01,0.19,0c0.01,0,0.01,0,0.01,0h2.11c0,0.01,0.01,0.02,0.01,0.03c0.02,0.03,0.04,0.07,0.07,0.11
	c0.09,0.16,0.23,0.39,0.48,0.47c0.03,0.02,0.06,0.03,0.1,0.03h0.04c0.01,0,0.02,0,0.04,0c0.01,0,0.03,0,0.04,0L90.24,235.3z
	 M85.87,232.54c0.08,0.04,0.23,0.38,0.23,0.85c0,0.48-0.15,0.81-0.21,0.85h-1.98c0.02-0.08,0.03-0.16,0.03-0.24
	c0-0.32-0.13-0.7-0.38-1.08c-0.1-0.14-0.2-0.27-0.31-0.38L85.87,232.54z M83.33,234.24c-0.18-0.03-0.48-0.23-0.73-0.61
	c-0.22-0.33-0.31-0.64-0.31-0.85c0-0.11,0.02-0.19,0.07-0.22c0.03-0.02,0.07-0.03,0.12-0.02c0.18,0.03,0.48,0.23,0.73,0.61
	c0.33,0.5,0.37,0.98,0.24,1.07C83.42,234.24,83.38,234.25,83.33,234.24L83.33,234.24z M86.29,234.88c-0.09-0.01-0.17-0.11-0.25-0.25
	c0.31-0.14,0.48-0.69,0.48-1.24c0-0.54-0.16-1.08-0.46-1.23c0.06-0.1,0.12-0.15,0.24-0.15c0.22,0,0.55,0.56,0.55,1.44
	c0,0.84-0.3,1.39-0.53,1.43L86.29,234.88z M86.94,234.88c0.21-0.34,0.34-0.84,0.34-1.43c0-0.58-0.12-1.07-0.33-1.41l3.25,0
	c0.27,0,0.55,0.57,0.55,1.42c0,0.88-0.27,1.43-0.52,1.43L86.94,234.88z"/>
<path class="st1" d="M101.51,129.65h-0.66c-0.01,0-0.02,0-0.04,0l1.05-0.88l-0.27-0.32l-1.25,1.04l0.03,0.04
	c-0.32-0.17-0.52-0.51-0.52-0.87v-0.52c0-0.55,0.44-0.99,0.99-0.99h0.66h0.06l-1.23,1.09l0.27,0.31l1.4-1.23
	c0.21,0.16,0.34,0.41,0.34,0.68v0.81c0,0.22-0.09,0.44-0.25,0.6C101.95,129.56,101.73,129.65,101.51,129.65L101.51,129.65z
	 M102.02,135.31l-1.4-1.23l-0.27,0.31l1.23,1.09h-0.06h-0.66c-0.55,0-0.99-0.44-0.99-0.99v-0.52c0-0.36,0.2-0.7,0.52-0.87
	l-0.03,0.04l1.25,1.04l0.27-0.32l-1.05-0.88c0.01,0,0.02,0,0.04,0h0.66c0.22,0,0.44,0.09,0.6,0.25c0.16,0.16,0.25,0.37,0.25,0.6
	v0.81C102.35,134.9,102.23,135.15,102.02,135.31L102.02,135.31z M99.02,126.11v2.55c0,0.58,0.28,1.12,0.75,1.46
	c0.05,0.04,0.09,0.1,0.09,0.17v2.05c0,0.07-0.03,0.13-0.09,0.17c-0.47,0.34-0.74,0.88-0.75,1.46v2.56c0,0.12,0.09,0.21,0.21,0.21
	h0.62c0.06,0,0.11-0.02,0.15-0.06c0.04-0.04,0.06-0.09,0.06-0.15v-0.08c0-0.07,0.03-0.13,0.08-0.17s0.12-0.05,0.18-0.03
	c0.17,0.05,0.34,0.07,0.51,0.07h0.66c0.93,0,1.68-0.75,1.68-1.68v-0.81c0-0.93-0.75-1.68-1.68-1.68h-0.66h-0.14
	c-0.06,0-0.12-0.02-0.16-0.05s-0.07-0.1-0.07-0.15v-1.25c0-0.06,0.02-0.11,0.07-0.15s0.1-0.06,0.16-0.05h0.14h0.66
	c0.93,0,1.68-0.75,1.68-1.68V128c0-0.93-0.75-1.68-1.68-1.68h-0.66c-0.17,0-0.35,0.03-0.51,0.07c-0.06,0.02-0.13,0.01-0.18-0.03
	c-0.05-0.04-0.08-0.1-0.08-0.17v-0.08c0-0.06-0.02-0.11-0.06-0.15c-0.04-0.04-0.09-0.06-0.15-0.06h-0.62
	c-0.06,0-0.11,0.02-0.15,0.06C99.04,126,99.02,126.06,99.02,126.11L99.02,126.11z"/>
<g>
	<path class="st1" d="M87.06,238.09v2.02c0,0.22,0.18,0.4,0.4,0.4h2.67c0.22,0,0.4-0.18,0.4-0.4v-2.02c0-0.22-0.18-0.4-0.4-0.4
		h-2.67C87.24,237.69,87.06,237.87,87.06,238.09z"/>
	<path class="st1" d="M90.68,237.33c0.25,0,0.45,0.2,0.45,0.45v2.62c0,0.25-0.2,0.45-0.45,0.45h-3.47c-0.25,0-0.45-0.2-0.45-0.45
		v-2.62c0-0.25,0.2-0.45,0.45-0.45H90.68z M86.2,238.53h0.42v1.14H86.2V238.53z M86.06,240.08h-3.01v-1.97l3.01,0V240.08z
		 M82.36,239.16l0.45,0.45l-0.45,0.45l0.02,0.02h-0.02V239.16z M82.36,238.11L82.36,238.11L82.36,238.11L82.36,238.11z
		 M82.91,238.11v0.37l-0.37-0.37H82.91z M82.36,239.02v-0.88l0.44,0.44L82.36,239.02z M82.91,238.68v0.82l-0.41-0.41L82.91,238.68z
		 M82.55,240.08l0.36-0.36v0.36H82.55z M86.5,237.79v0.48h-0.19v-0.41l-4.21,0v2.48h4.21v-0.41h0.19v0.48
		c0,0.39,0.32,0.71,0.71,0.71h3.47c0.39,0,0.71-0.32,0.71-0.71v-2.62c0-0.39-0.32-0.71-0.71-0.71h-3.47
		C86.82,237.08,86.5,237.4,86.5,237.79L86.5,237.79z"/>
</g>
<g>
	<path class="st1" d="M98.38,160.32c0.01,0.06,0.04,0.11,0.08,0.15l0.04,0.04l-0.04,0.04c-0.11,0.12-0.11,0.3,0,0.42l0.04,0.04
		l-0.04,0.04c-0.11,0.12-0.11,0.3,0,0.42l0.04,0.04l-0.04,0.04c-0.04,0.04-0.07,0.1-0.08,0.15h0.42l0-1.39L98.38,160.32z"/>
	<rect x="98.91" y="160.53" class="st1" width="0.35" height="0.96"/>
	<path class="st1" d="M98.34,161.01c-0.11-0.15-0.11-0.36,0-0.5c-0.04-0.06-0.07-0.12-0.08-0.19H95.7v1.39h2.56
		c0.01-0.07,0.04-0.14,0.08-0.19C98.23,161.37,98.23,161.16,98.34,161.01L98.34,161.01z"/>
	<path class="st1" d="M102.49,159.97l0.04,0.01v2.04l-0.04,0.01c-0.82,0.2-1.53,0.28-2.18,0.23c-0.25-0.05-0.54-0.28-0.66-0.52
		l0-0.02l0-1.45c0.13-0.25,0.41-0.48,0.65-0.52C100.95,159.69,101.67,159.77,102.49,159.97L102.49,159.97z M100.2,159.41
		c-0.3,0.05-0.67,0.35-0.83,0.66v1.86c0.16,0.31,0.52,0.6,0.83,0.66c0.84,0.07,1.77-0.03,2.83-0.3v-2.59
		C101.97,159.44,101.04,159.34,100.2,159.41L100.2,159.41z"/>
	<path class="st1" d="M99.73,160.3v1.4c0.11,0.22,0.38,0.42,0.59,0.46c0.62,0.05,1.31-0.02,2.11-0.22v-1.9
		c-0.79-0.19-1.49-0.26-2.12-0.21C100.11,159.88,99.85,160.08,99.73,160.3L99.73,160.3z"/>
</g>
<g>
	<path class="st1" d="M100.99,172.98c0.53,0,1.01-0.24,1.33-0.61v-2.28c-0.32-0.38-0.8-0.61-1.33-0.61c-0.69,0-1.29,0.4-1.58,0.99
		v1.53C99.7,172.57,100.3,172.98,100.99,172.98L100.99,172.98z"/>
	<path class="st1" d="M97.73,171.72c0.18,0,0.32,0.12,0.36,0.29h-0.71C97.41,171.85,97.56,171.72,97.73,171.72L97.73,171.72z
		 M97.73,170.86c0.2,0,0.36,0.16,0.36,0.36s-0.16,0.36-0.36,0.36c-0.2,0-0.36-0.16-0.36-0.36
		C97.37,171.02,97.53,170.86,97.73,170.86z M97.38,170.43h0.72c-0.03,0.17-0.18,0.31-0.36,0.31
		C97.55,170.73,97.4,170.6,97.38,170.43L97.38,170.43z M97.25,170.43c0.02,0.16,0.11,0.29,0.25,0.37c-0.15,0.08-0.26,0.24-0.26,0.43
		c0,0.19,0.11,0.35,0.27,0.43c-0.14,0.07-0.24,0.2-0.26,0.36l-1.77,0v-1.59L97.25,170.43z M98.21,172.01
		c-0.02-0.16-0.13-0.29-0.26-0.36c0.16-0.08,0.27-0.24,0.27-0.43c0-0.18-0.1-0.34-0.26-0.43c0.14-0.07,0.23-0.21,0.25-0.37h0.37
		v1.58L98.21,172.01z M98.7,171.7v-0.96h0.35v0.96H98.7z M102.83,172.68c-0.42,0.48-1.03,0.76-1.67,0.76
		c-0.85,0-1.61-0.48-1.99-1.24v-1.96c0.38-0.77,1.14-1.24,1.99-1.24c0.64,0,1.25,0.28,1.67,0.76V172.68z M98.97,170.16l-0.02,0.03
		v0.34H98.8v-0.31h-3.52v2.01h3.52v-0.31h0.15v0.34l0.02,0.03c0.41,0.85,1.25,1.37,2.19,1.37c0.71,0,1.38-0.31,1.85-0.85l0.04-0.04
		v-3.08l-0.04-0.04c-0.46-0.54-1.14-0.85-1.85-0.85C100.22,168.79,99.38,169.31,98.97,170.16L98.97,170.16z"/>
</g>
<path class="st1" d="M98.96,165.78h-1.33l-1.24-0.71v1.67l1.24-0.71h1.33v0.83h3.93c0.1-0.27,0.15-0.6,0.15-0.96
	s-0.06-0.69-0.15-0.96h-3.93V165.78z"/>
<g>
	<path class="st1" d="M95.76,155.49c0,0.36,0.06,0.69,0.15,0.96h3.93v-1.92h-3.93C95.82,154.8,95.76,155.14,95.76,155.49z"/>
	<path class="st1" d="M102.34,154.77c0.16,0,0.3,0.14,0.3,0.3v0.85c0,0.16-0.14,0.3-0.3,0.3h-1.73c-0.16,0-0.3-0.14-0.3-0.3v-0.85
		c0-0.16,0.14-0.3,0.3-0.3H102.34z M99.92,154.49v2l0.16,0.16h2.8l0.16-0.16v-2l-0.16-0.16h-2.8
		C100.02,154.39,99.98,154.43,99.92,154.49z"/>
</g>
<g>
	<path class="st1" d="M113.8,126.54v5.63h-5.1v-5.63H113.8z M107.21,126.52v1.41h-0.48v-0.04c0-0.1-0.08-0.18-0.18-0.18h-0.05
		c-0.1,0-0.18,0.08-0.18,0.18v0.04l-0.19,0v-0.44c0-0.21-0.16-0.36-0.36-0.36h-0.52c-0.21,0-0.36,0.16-0.36,0.36v3.73
		c0,0.21,0.16,0.36,0.36,0.36h0.52c0.21,0,0.36-0.16,0.36-0.36v-0.44h0.18v0.04c0,0.1,0.08,0.18,0.18,0.18h0.05
		c0.1,0,0.18-0.08,0.18-0.18v-0.04h0.48v1.41c0,0.21,0.16,0.36,0.36,0.36h7.34c0.21,0,0.36-0.16,0.36-0.36v-5.66
		c0-0.21-0.16-0.36-0.36-0.36h-7.32C107.37,126.15,107.21,126.32,107.21,126.52L107.21,126.52z"/>
</g>
<g>
	<path class="st1" d="M106.78,155.54v5.38c0,0.09-0.04,0.15-0.1,0.15s-0.1-0.06-0.1-0.15v-5.38c0-0.09,0.04-0.15,0.1-0.15
		S106.78,155.45,106.78,155.54z"/>
	<g>
		<path class="st1" d="M106.23,160.87l6.26-0.96c0.11-0.02,0.19-0.11,0.19-0.22v-3.04c0-0.11-0.08-0.19-0.19-0.22l-6.26-0.96V160.87
			z M112.96,156.67v3.03c0,0.26-0.19,0.48-0.45,0.51l-6.43,0.99c-0.05,0-0.09,0-0.12-0.03c-0.03-0.03-0.05-0.08-0.05-0.12v-5.72
			c0-0.05,0.02-0.09,0.05-0.12c0.03-0.03,0.08-0.05,0.12-0.03l6.44,0.97C112.78,156.19,112.96,156.41,112.96,156.67L112.96,156.67z"
			/>
		<path class="st1" d="M112.96,159.65h1.75c0.14,0,0.25-0.11,0.25-0.25v-2.46c0-0.14-0.11-0.25-0.25-0.25h-1.75V159.65z
			 M115.26,156.95v2.47c0,0.31-0.25,0.56-0.56,0.56h-1.9c-0.09,0-0.15-0.06-0.15-0.15v-3.26c0-0.09,0.06-0.15,0.15-0.15h1.9
			C115.02,156.41,115.26,156.65,115.26,156.95L115.26,156.95z"/>
		<path class="st1" d="M114.46,157.61v1.14c0,0.09-0.06,0.15-0.15,0.15s-0.15-0.06-0.15-0.15v-1.14c0-0.09,0.06-0.15,0.15-0.15
			S114.46,157.52,114.46,157.61z"/>
	</g>
</g>
<g>
	<path class="st1" d="M89.64,215.91c0,0.35-0.28,0.63-0.63,0.63c-0.35,0-0.63-0.28-0.63-0.63c0-0.35,0.28-0.63,0.63-0.63
		C89.36,215.29,89.64,215.57,89.64,215.91z M88.11,215.91c0,0.5,0.41,0.91,0.91,0.91c0.5,0,0.91-0.41,0.91-0.91
		c0-0.5-0.41-0.91-0.91-0.91C88.51,215.01,88.11,215.41,88.11,215.91z"/>
	<path class="st1" d="M85.52,214.75c0.31,0,0.31,0.46,0,0.46C85.22,215.21,85.22,214.75,85.52,214.75"/>
	<path class="st1" d="M86.32,214.96c0.31,0,0.31,0.46,0,0.46C86.01,215.42,86.01,214.96,86.32,214.96"/>
	<path class="st1" d="M87.15,206.19c0.23,0.14,0.4,0.35,0.47,0.61l2.39,8.91c0.02,0.09,0.03,0.17,0.03,0.26
		c0,0.46-0.31,0.86-0.75,0.98c-0.54,0.14-1.1-0.18-1.24-0.72L87,212.28l0.61-0.16c0.06-0.02,0.1-0.07,0.1-0.14c0-0.01,0-0.02,0-0.04
		l-1.56-5.8l0.23-0.06C86.64,206.01,86.92,206.05,87.15,206.19L87.15,206.19z M90.14,216.84l-0.33,0.33l-0.12-0.08
		c0.15-0.09,0.28-0.21,0.38-0.35L90.14,216.84z M90.39,217.2l-0.21,0.21l-0.13-0.09l0.25-0.25L90.39,217.2z M90.72,217.68
		l-0.06,0.06l-0.24-0.16l0.14-0.14L90.72,217.68z M79.9,214.52c-0.26-0.07-0.48-0.24-0.61-0.47c-0.13-0.23-0.17-0.51-0.1-0.77
		l0.06-0.23l5.8,1.56c0.07,0.02,0.15-0.02,0.17-0.1l0.16-0.61l1.88,0.5l0.51,1.91c0.04,0.13,0.09,0.26,0.16,0.37L79.9,214.52z
		 M79.39,212.54c0.03-0.13,0.17-0.21,0.3-0.17h0l2.34,0.63l3.09,0.83l-0.13,0.47l-5.67-1.52L79.39,212.54z M85.47,206.58
		c-0.01-0.02-0.01-0.04-0.01-0.06c0-0.11,0.07-0.21,0.18-0.24l0.24-0.06l1.52,5.67l-0.47,0.13L85.47,206.58z M86.31,205.81
		l-0.37,0.1h0l0,0l-0.37,0.1c-0.23,0.06-0.39,0.27-0.39,0.51c0,0.05,0.01,0.09,0.02,0.14l1.99,7.43l-1.86-0.5c0,0,0,0,0,0
		l-3.55-0.95l-2.02-0.54c-0.28-0.07-0.57,0.09-0.64,0.37l-0.2,0.74c-0.09,0.33-0.04,0.68,0.13,0.98s0.45,0.51,0.79,0.6l8.54,2.29
		c0.29,0.17,0.65,0.24,1,0.14c0.01,0,0.01,0,0.02-0.01l1.21,0.82c0.06,0.04,0.13,0.03,0.18-0.02l0.23-0.23
		c0.03-0.03,0.04-0.06,0.04-0.1c0-0.03-0.01-0.06-0.02-0.08l-0.79-1.15c0.06-0.15,0.1-0.32,0.1-0.49c0-0.11-0.01-0.23-0.04-0.34
		l-2.39-8.91c-0.09-0.33-0.3-0.61-0.6-0.79C86.99,205.77,86.64,205.72,86.31,205.81L86.31,205.81z"/>
	
		<rect x="86.99" y="212.29" transform="matrix(0.5001 -0.866 0.866 0.5001 -139.9629 182.4138)" class="st1" width="2.04" height="0.28"/>
	
		<rect x="87.46" y="212.92" transform="matrix(0.4998 -0.8662 0.8662 0.4998 -140.4222 182.9849)" class="st1" width="1.5" height="0.28"/>
	
		<rect x="87.94" y="213.56" transform="matrix(0.5003 -0.8659 0.8659 0.5003 -140.854 183.3486)" class="st1" width="0.96" height="0.28"/>
	<path class="st1" d="M81.04,212.23c0.03,0.07,0.11,0.11,0.18,0.08c0.07-0.03,0.11-0.11,0.08-0.18l-0.06-0.14
		c0-0.01,0.01-0.06,0.05-0.08c0.15-0.1,0.2-0.3,0.12-0.46c-0.02-0.04-0.01-0.09,0-0.09l0.12-0.1c0.03-0.03,0.05-0.07,0.05-0.11
		c0-0.03-0.01-0.06-0.03-0.09c-0.05-0.06-0.14-0.07-0.2-0.02l-0.12,0.1c-0.12,0.09-0.15,0.28-0.07,0.44c0.01,0.03,0,0.08-0.03,0.1
		c-0.14,0.1-0.21,0.28-0.16,0.42L81.04,212.23z"/>
	<path class="st1" d="M82.17,211.21c-0.05-0.06-0.14-0.07-0.2-0.02l-0.12,0.1c-0.12,0.09-0.15,0.28-0.07,0.44
		c0.01,0.03,0,0.08-0.03,0.1c-0.14,0.1-0.21,0.28-0.15,0.42l0.06,0.14c0.03,0.07,0.11,0.11,0.18,0.08c0.07-0.03,0.11-0.11,0.08-0.18
		l-0.06-0.14c0-0.01,0.01-0.06,0.05-0.08c0.15-0.1,0.2-0.3,0.12-0.46c-0.02-0.04-0.01-0.09,0-0.09l0.12-0.1
		c0.03-0.03,0.05-0.07,0.05-0.11C82.2,211.26,82.19,211.23,82.17,211.21L82.17,211.21z"/>
	<path class="st1" d="M82.86,211.4c-0.05-0.06-0.14-0.07-0.2-0.02l-0.12,0.1c-0.12,0.09-0.15,0.28-0.07,0.44
		c0.01,0.03,0,0.08-0.03,0.1c-0.14,0.1-0.21,0.28-0.16,0.42l0.06,0.14c0.03,0.07,0.11,0.11,0.18,0.08c0.07-0.03,0.11-0.11,0.08-0.18
		l-0.06-0.14c0-0.01,0.01-0.06,0.05-0.08c0.15-0.1,0.2-0.3,0.12-0.46c-0.02-0.04-0.01-0.09,0-0.09l0.12-0.1
		c0.03-0.03,0.05-0.07,0.05-0.11C82.89,211.46,82.88,211.42,82.86,211.4L82.86,211.4z"/>
	<path class="st1" d="M83.08,212.06c0.01,0.03,0,0.08-0.03,0.1c-0.14,0.1-0.21,0.28-0.15,0.42l0.06,0.14
		c0.03,0.07,0.11,0.11,0.18,0.08c0.07-0.03,0.11-0.11,0.08-0.18l-0.06-0.14c0-0.01,0.01-0.06,0.05-0.08c0.15-0.1,0.2-0.3,0.12-0.46
		c-0.02-0.04-0.01-0.09,0-0.09l0.12-0.1c0.03-0.03,0.05-0.07,0.05-0.11c0-0.03-0.01-0.06-0.03-0.09c-0.05-0.06-0.14-0.07-0.2-0.02
		l-0.12,0.1C83.04,211.72,83.01,211.9,83.08,212.06L83.08,212.06z"/>
	<path class="st1" d="M84.37,208.42c0.01-0.01,0.05-0.02,0.09,0c0.16,0.08,0.36,0.02,0.46-0.12c0.03-0.04,0.07-0.05,0.08-0.05
		l0.14,0.06c0.07,0.03,0.15-0.01,0.18-0.08c0.01-0.02,0.01-0.03,0.01-0.05c0-0.06-0.03-0.11-0.09-0.13l-0.14-0.06
		c-0.14-0.06-0.32,0.01-0.42,0.16c-0.02,0.03-0.07,0.04-0.1,0.03c-0.16-0.08-0.34-0.04-0.44,0.07l-0.1,0.12
		c-0.05,0.06-0.04,0.15,0.02,0.2c0.06,0.05,0.15,0.04,0.2-0.02L84.37,208.42z"/>
	<path class="st1" d="M84.55,209.02c0.01-0.01,0.05-0.02,0.09,0c0.16,0.08,0.36,0.02,0.46-0.12c0.03-0.04,0.07-0.05,0.08-0.05
		l0.14,0.06c0.07,0.03,0.15-0.01,0.18-0.08c0.01-0.02,0.01-0.03,0.01-0.05c0-0.06-0.03-0.11-0.09-0.13l-0.14-0.06
		c-0.14-0.06-0.32,0.01-0.42,0.16c-0.02,0.03-0.07,0.04-0.1,0.03c-0.16-0.08-0.34-0.04-0.44,0.07l-0.1,0.12
		c-0.05,0.06-0.04,0.15,0.02,0.2c0.06,0.05,0.15,0.04,0.2-0.02L84.55,209.02z"/>
	<path class="st1" d="M84.73,209.72c0.01-0.01,0.05-0.02,0.09,0c0.16,0.08,0.36,0.02,0.46-0.12c0.03-0.04,0.07-0.05,0.08-0.05
		l0.14,0.06c0.07,0.03,0.15-0.01,0.18-0.08c0.01-0.02,0.01-0.03,0.01-0.05c0-0.06-0.03-0.11-0.09-0.13l-0.14-0.06
		c-0.14-0.06-0.32,0.01-0.42,0.16c-0.02,0.03-0.07,0.04-0.1,0.03c-0.15-0.08-0.34-0.04-0.44,0.07l-0.1,0.12
		c-0.05,0.06-0.04,0.15,0.02,0.2c0.06,0.05,0.15,0.04,0.2-0.02L84.73,209.72z"/>
	<path class="st1" d="M84.91,210.32c0.01-0.01,0.05-0.02,0.09,0c0.16,0.08,0.36,0.02,0.46-0.12c0.03-0.04,0.07-0.05,0.08-0.05
		l0.14,0.06c0.07,0.03,0.15-0.01,0.18-0.08c0.01-0.02,0.01-0.03,0.01-0.05c0-0.06-0.03-0.11-0.09-0.13l-0.14-0.06
		c-0.14-0.06-0.32,0.01-0.42,0.16c-0.02,0.03-0.07,0.04-0.1,0.03c-0.15-0.08-0.34-0.04-0.44,0.07l-0.1,0.12
		c-0.05,0.06-0.04,0.15,0.02,0.2c0.06,0.05,0.15,0.04,0.2-0.02L84.91,210.32z"/>
</g>
<path class="st1" d="M97.82,141.37c-0.3,0-0.87,1.56-0.87,4.42c0,2.86,0.59,4.42,0.87,4.42c0.29,0,0.87-1.56,0.87-4.42
	C98.7,142.93,98.12,141.37,97.82,141.37z M97.83,141.16h1.19c0.6,0,1.08,2.07,1.08,4.63s-0.48,4.63-1.08,4.63h-1.19h-0.01
	c-0.6,0-1.08-2.07-1.08-4.63S97.23,141.16,97.83,141.16L97.83,141.16z M99.23,141.16h2.88c0.6,0,1.08,2.07,1.08,4.63
	s-0.48,4.63-1.08,4.63h-2.88c0.6,0,1.08-2.07,1.08-4.63S99.83,141.16,99.23,141.16z"/>
<path class="st1" d="M107.29,151.03v-0.25h0.76v0.25H107.29z M106.38,151.22v-0.66h0.69v0.66H106.38z M106.6,149.38h0.25v0.96h-0.25
	V149.38z M108.52,149.88h0.39v2.02h-0.39c-0.13,0-0.24-0.11-0.24-0.24v-1.54C108.28,149.99,108.38,149.88,108.52,149.88
	L108.52,149.88z M110.15,149.23h0.25v3.34h-0.25c-0.38,0-0.75-0.21-1.01-0.58v-2.18c0,0,0,0,0,0
	C109.41,149.43,109.76,149.23,110.15,149.23L110.15,149.23z M115.04,149.48v2.83c0,0.14-0.08,0.25-0.17,0.25l-1.15,0v-3.34h1.15
	C114.96,149.23,115.04,149.34,115.04,149.48L115.04,149.48z M113.49,149.23v3.34h-2.87v-3.34H113.49z M108.05,151.67
	c0,0.26,0.21,0.47,0.47,0.47h0.45c0.3,0.42,0.73,0.66,1.18,0.66h4.72c0.22,0,0.4-0.22,0.4-0.48v-2.83c0-0.26-0.18-0.48-0.4-0.48
	l-4.72,0c-0.45,0-0.87,0.24-1.18,0.66h-0.45c-0.26,0-0.47,0.21-0.47,0.47v0.43h-0.76v-0.1c0-0.06-0.05-0.11-0.11-0.11h-0.11v-1.08
	c0-0.06-0.05-0.11-0.11-0.11h-0.47c-0.06,0-0.11,0.05-0.11,0.11v1.08h-0.11c-0.06,0-0.11,0.05-0.11,0.11v0.89
	c0,0.06,0.05,0.11,0.11,0.11h0.91c0.06,0,0.11-0.05,0.11-0.11v-0.08h0.76L108.05,151.67L108.05,151.67z"/>
<g>
	<path class="st1" d="M110.11,141.89c0,0.47,0.19,0.92,0.52,1.26c0.33,0.33,0.78,0.52,1.26,0.52s0.92-0.19,1.25-0.52
		c0.33-0.33,0.52-0.78,0.52-1.26s-0.19-0.92-0.52-1.26c-0.33-0.33-0.78-0.52-1.25-0.52s-0.92,0.19-1.26,0.52
		C110.3,140.96,110.11,141.42,110.11,141.89z"/>
	<path class="st1" d="M110.78,138.7c-0.13,0.01-0.26,0.03-0.39,0.07c-0.2,0.56-0.24,1.16-0.12,1.74c0.12-0.15,0.27-0.27,0.42-0.38
		C110.77,139.98,111.13,139.25,110.78,138.7L110.78,138.7z"/>
	<path class="st1" d="M111,145.08h1.78c0.66,0,1.29-0.26,1.76-0.73c0.47-0.47,0.73-1.1,0.73-1.76v-1.42c0-0.66-0.26-1.29-0.73-1.76
		c-0.47-0.47-1.1-0.73-1.76-0.73h-1.6c0.08,0.18,0.11,0.36,0.11,0.56c0,0.22-0.04,0.43-0.11,0.63c0.49-0.17,1.02-0.16,1.5,0.03
		c0.48,0.19,0.87,0.55,1.11,1.01c0.24,0.46,0.3,0.99,0.17,1.49c-0.12,0.5-0.43,0.94-0.85,1.23c-0.42,0.3-0.94,0.43-1.45,0.37
		c-0.51-0.06-0.99-0.3-1.34-0.68c-0.13,0.57-0.07,1.17,0.17,1.7C110.66,145.06,110.83,145.08,111,145.08L111,145.08z"/>
	<path class="st1" d="M110.06,144.89c-0.19-0.63-0.19-1.31,0-1.94c-0.38-0.64-0.39-1.44-0.03-2.09l-0.03,0.01
		c-0.18-0.64-0.18-1.31-0.02-1.95c-0.43,0.2-0.8,0.51-1.06,0.91c-0.26,0.4-0.4,0.86-0.4,1.34v1.42c0,0.49,0.15,0.97,0.42,1.38
		C109.21,144.39,109.6,144.71,110.06,144.89L110.06,144.89z"/>
	<path class="st1" d="M106.74,143.31h-0.36v0.18c0,0.1,0.08,0.18,0.18,0.18s0.18-0.08,0.18-0.18V143.31z"/>
	<rect x="107.45" y="141.35" class="st1" width="0.71" height="1.24"/>
	<path class="st1" d="M106.65,138.34c-0.44,0-0.8,0.36-0.8,0.8v0.71c0,0.44,0.36,0.8,0.8,0.8s0.8-0.36,0.8-0.8v-0.71
		C107.45,138.69,107.09,138.34,106.65,138.34z"/>
	<path class="st1" d="M106.03,142.77v-1.6c0-0.1,0.1-0.18,0.18-0.18h0.71c0.1,0,0.18,0.08,0.18,0.18v1.6c0,0.1-0.1,0.18-0.18,0.18
		h-0.71C106.11,142.95,106.03,142.87,106.03,142.77z"/>
</g>
<path class="st1" d="M128.94,110.08h0.24v-2.38h0.04c0.02-0.04,0.03-0.08,0.04-0.12l0.09-0.61c0-0.04,0-0.07,0-0.11h0.93
	c0.38,0,0.69-0.31,0.69-0.69v-1.32h0.59c0.07,0,0.13-0.06,0.13-0.13c0-0.07-0.06-0.13-0.13-0.13h-0.59v-0.48h0.59
	c0.07,0,0.13-0.06,0.13-0.13s-0.06-0.13-0.13-0.13h-0.59v-0.01c0-0.38-0.31-0.69-0.69-0.69h-2.31c-0.38,0-0.69,0.31-0.69,0.69v2.31
	c0,0.38,0.31,0.69,0.69,0.69h0.81c0,0.04,0,0.07,0,0.11l0.09,0.61v0c0.01,0.04,0.02,0.08,0.04,0.12h0.04L128.94,110.08z"/>
<path class="st1" d="M129.17,110.08h-0.24c0,1.11,1.67,1.11,1.67,0h-0.24C130.37,110.88,129.17,110.88,129.17,110.08z"/>
<path class="st1" d="M132.63,111.03v-4.53c0-0.72-1.07-0.72-1.07,0v3.64c0,0.1-0.08,0.18-0.18,0.18s-0.18-0.08-0.18-0.18v-2.21
	c0-0.56-0.83-0.56-0.83,0v2.15h0.24v-2.15c0-0.1,0.08-0.18,0.18-0.18c0.1,0,0.18,0.08,0.18,0.18v2.27c0.06,0.48,0.77,0.48,0.82,0
	v-3.7c0-0.16,0.13-0.3,0.3-0.3c0.16,0,0.3,0.13,0.3,0.3v4.65h0.01c0.12,1.07,1.78,1.03,1.78-0.12h-0.23
	C133.94,111.91,132.63,111.91,132.63,111.03L132.63,111.03z"/>
<path class="st1" d="M136.57,104.71h-0.72c-0.13,0-0.24,0.11-0.24,0.24v0.36c0,0.06,0.03,0.12,0.07,0.17s0.11,0.07,0.17,0.07h0.02
	l0.05,0.38c0,0.05,0.04,0.08,0.08,0.09h-0.03v0.95c0.01,0.08-0.02,0.17-0.08,0.23c-0.06,0.06-0.14,0.1-0.22,0.1
	c-0.08,0-0.16-0.04-0.22-0.1c-0.06-0.06-0.08-0.14-0.08-0.23v-2.62c0-0.95-1.43-0.95-1.43,0v6.68h0.24v-6.68
	c0-0.64,0.95-0.64,0.95,0v2.62c0,0.75,0.96,0.79,1.06,0.12h0.01v-1.07h-0.03c0.05,0,0.08-0.04,0.08-0.09l0.05-0.38h0.25
	c0.03,0,0.06-0.01,0.08-0.03s0.03-0.05,0.03-0.08v-0.6C136.69,104.77,136.63,104.71,136.57,104.71L136.57,104.71z"/>
<path class="st1" d="M137.16,104.83h-0.36v0.48h0.36c0.03,0,0.06-0.01,0.08-0.03s0.03-0.05,0.03-0.08v-0.24
	c0-0.03-0.01-0.06-0.03-0.08S137.19,104.83,137.16,104.83z"/>
<path class="st4" d="M86.63,190.08h2.44c0.43,0,0.78,0.35,0.78,0.78v7.6c0,0.43-0.35,0.78-0.78,0.78h-2.44
	c-1.19,0-2.11-0.58-2.79-1.6c-0.56-0.83-0.86-1.83-0.86-2.88v-0.22c0-1.05,0.3-2.05,0.86-2.88
	C84.53,190.66,85.44,190.08,86.63,190.08L86.63,190.08z M82.06,194.56v0.22c0,1.23,0.35,2.41,1.01,3.4c0.85,1.25,2.02,2,3.55,2h2.44
	c0.94,0,1.7-0.76,1.7-1.7v-7.6c0-0.94-0.76-1.7-1.7-1.7h-2.44c-1.53,0-2.71,0.75-3.55,2C82.41,192.14,82.06,193.33,82.06,194.56
	L82.06,194.56z"/>
<path class="st4" d="M81.61,196.5c0,0.51-0.41,0.92-0.92,0.92c-0.51,0-0.92-0.41-0.92-0.92c0-0.51,0.41-0.92,0.92-0.92
	C81.19,195.58,81.61,195.99,81.61,196.5z M80.69,196.5L80.69,196.5L80.69,196.5z"/>
<path class="st4" d="M81.61,192.83c0,0.51-0.41,0.92-0.92,0.92c-0.51,0-0.92-0.41-0.92-0.92c0-0.51,0.41-0.92,0.92-0.92
	C81.19,191.92,81.61,192.33,81.61,192.83z M80.69,192.83L80.69,192.83L80.69,192.83z"/>
<path class="st4" d="M82.2,194.34l-1.83,1.83c-0.18,0.18-0.18,0.47,0,0.65c0.18,0.18,0.47,0.18,0.65,0l1.83-1.83
	c0.18-0.18,0.18-0.47,0-0.65C82.67,194.16,82.38,194.16,82.2,194.34L82.2,194.34z"/>
<path class="st4" d="M82.85,194.34l-1.83-1.83c-0.18-0.18-0.47-0.18-0.65,0c-0.18,0.18-0.18,0.47,0,0.65l1.83,1.83
	c0.18,0.18,0.47,0.18,0.65,0C83.03,194.81,83.03,194.52,82.85,194.34L82.85,194.34z"/>
<g>
	<path class="st1" d="M99.55,182.91l-0.28-0.39c0.03-0.03,0.06-0.08,0.1-0.13l0.37,0.27l0.06-0.09l-0.38-0.27
		c0.03-0.05,0.06-0.11,0.09-0.17l0.4,0.2l0.05-0.1l-0.41-0.2c0.02-0.04,0.03-0.09,0.04-0.13l0.44,0.11l0.03-0.11l-0.44-0.11
		c0.01-0.06,0.02-0.11,0.03-0.17h0.45v-0.11h-0.44v-0.06c0-0.04,0-0.07,0-0.11h0.45v-0.11h-0.46c-0.01-0.04-0.01-0.08-0.02-0.11
		l0.44-0.11l-0.03-0.11l-0.44,0.11c-0.01-0.05-0.03-0.09-0.04-0.13l0.41-0.2l-0.05-0.1l-0.4,0.2c-0.03-0.06-0.05-0.11-0.09-0.17
		l0.38-0.27l-0.06-0.09l-0.37,0.26c-0.04-0.06-0.07-0.1-0.1-0.13l0.28-0.39l-0.09-0.06l-0.26,0.37l-0.1-0.1l-0.08,0.08l0.11,0.11
		c0,0,0.42,0.43,0.42,1.06c0,0.63-0.42,1.06-0.42,1.06l-0.11,0.11l0.08,0.08l0.1-0.1l0.26,0.37L99.55,182.91z"/>
	<path class="st1" d="M100.87,182.91l-0.28-0.39c0.03-0.03,0.06-0.08,0.1-0.13l0.37,0.27l0.06-0.09l-0.38-0.27
		c0.03-0.05,0.06-0.11,0.09-0.17l0.4,0.2l0.05-0.1l-0.41-0.2c0.02-0.04,0.03-0.09,0.04-0.13l0.44,0.11l0.03-0.11l-0.44-0.11
		c0.01-0.06,0.02-0.11,0.03-0.17h0.45v-0.11h-0.44v-0.06c0-0.04,0-0.07,0-0.11h0.45v-0.11h-0.46c-0.01-0.04-0.01-0.08-0.02-0.11
		l0.44-0.11l-0.03-0.11l-0.44,0.11c-0.01-0.05-0.03-0.09-0.04-0.13l0.41-0.2l-0.05-0.1l-0.4,0.2c-0.03-0.06-0.05-0.11-0.09-0.17
		l0.38-0.27l-0.06-0.09l-0.37,0.26c-0.04-0.06-0.07-0.1-0.1-0.13l0.28-0.39l-0.09-0.06l-0.26,0.37l-0.1-0.1l-0.08,0.08l0.11,0.11
		c0,0,0.42,0.43,0.42,1.06c0,0.63-0.42,1.06-0.42,1.06l-0.11,0.11l0.08,0.08l0.1-0.1l0.26,0.37L100.87,182.91z"/>
</g>
<g>
	<polyline class="st5" points="87.15,174.48 84.21,174.11 83.3,174.29 83.28,174.44 85.17,174.83 	"/>
	<path class="st5" d="M90.27,176.03c0.14-0.34,0.6-0.47,0.87-0.35l0.27,0.12c0.34,0.14,0.5,0.53,0.35,0.87
		c-0.14,0.34-0.6,0.47-0.87,0.35l-0.27-0.12C90.29,176.75,90.13,176.36,90.27,176.03z"/>
	<path class="st5" d="M90.44,175.79l-1.84-0.98l-0.64,0.37l2.27,1.04c-0.03,0.29,0.13,0.56,0.4,0.68l0.27,0.12
		c0.34,0.14,0.73-0.02,0.87-0.35c0.14-0.34-0.02-0.73-0.35-0.87l-0.27-0.12C90.91,175.57,90.63,175.62,90.44,175.79L90.44,175.79z"
		/>
	<path class="st5" d="M90.25,173.81c-0.03-0.37,0.31-0.69,0.61-0.72l0.29-0.02c0.37-0.03,0.69,0.24,0.72,0.61
		c0.03,0.37-0.31,0.69-0.61,0.72l-0.29,0.02C90.6,174.44,90.28,174.17,90.25,173.81z"/>
	<path class="st5" d="M91.15,173.06l-0.29,0.02c-0.29,0.02-0.52,0.23-0.59,0.51l-0.93,0.11l-0.81,0.49l-5.34,0.97l-0.02,0.15
		l0.42,0.2l4.37-0.35l1.62-0.99l0.75-0.12v0c0.12,0.23,0.38,0.37,0.64,0.35l0.3-0.02c0.18-0.01,0.34-0.1,0.45-0.23
		c0.11-0.13,0.17-0.31,0.16-0.49C91.84,173.31,91.52,173.03,91.15,173.06L91.15,173.06z"/>
</g>
<path class="st1" d="M87.26,180.38c0,0.01,0.01,0.01,0.01,0.02c0.47,0.47,0.85,1.08,1.16,1.88l-0.09,0.09l-1.22,1.23
	c-0.78-0.29-1.39-0.67-1.88-1.16c-0.01,0-0.01-0.01-0.02-0.01c-0.02-0.01-0.03-0.03-0.03-0.05c0-0.02,0-0.04,0.01-0.06
	c0.06-0.08,0.14-0.2,0.24-0.32c0.02-0.02,0.04-0.02,0.06-0.01l1.23,0.85c0.04,0.03,0.1,0.03,0.13-0.01c0.03-0.04,0.03-0.1-0.01-0.13
	l-1.07-1.06c-0.02-0.02-0.02-0.04-0.01-0.06c0.11-0.13,0.21-0.24,0.3-0.33s0.24-0.23,0.39-0.36c0.02-0.01,0.05-0.01,0.06,0.01
	l1.12,1.12c0.03,0.03,0.09,0.04,0.12,0.01c0.04-0.03,0.05-0.08,0.02-0.12l-0.86-1.33c-0.01-0.02-0.01-0.04,0.01-0.06
	c0.08-0.06,0.15-0.11,0.2-0.15c0.02-0.01,0.04-0.02,0.06-0.01C87.23,180.36,87.25,180.37,87.26,180.38L87.26,180.38z M88.83,182.67
	l-1.3,1.3l-0.26-0.26l1.3-1.3L88.83,182.67z M90.13,183.97c0.04,0.04,0.04,0.09,0,0.13l-1.17,1.17c-0.04,0.04-0.09,0.04-0.13,0
	l-1.17-1.17l1.3-1.3L90.13,183.97z M86.84,180.36c-0.1,0.07-0.12,0.21-0.05,0.31l0.39,0.6l-0.51-0.51
	c-0.08-0.09-0.22-0.09-0.31-0.02c-0.16,0.13-0.3,0.26-0.41,0.37c-0.11,0.11-0.2,0.21-0.31,0.34c-0.08,0.09-0.07,0.23,0.02,0.31
	l0.34,0.34l-0.39-0.27c-0.1-0.07-0.24-0.05-0.31,0.05c-0.1,0.13-0.18,0.24-0.24,0.33c-0.04,0.06-0.06,0.13-0.05,0.2
	c0.01,0.07,0.05,0.13,0.11,0.17c0.51,0.51,1.15,0.9,1.96,1.2l0.32,0.32l1.3,1.3c0.11,0.11,0.28,0.11,0.39,0l1.17-1.17
	c0.11-0.11,0.11-0.28,0-0.39l-1.67-1.67c-0.31-0.8-0.7-1.42-1.18-1.9c-0.04-0.06-0.1-0.09-0.16-0.11c-0.07-0.01-0.14,0.01-0.2,0.05
	C86.99,180.25,86.92,180.31,86.84,180.36L86.84,180.36z"/>
<g>
	<path class="st4" d="M88.4,167.03l0,0.29c0,0.02,0.01,0.03,0.02,0.04c0.01,0.01,0.03,0.02,0.04,0.02l2.38,0
		c0.02,0,0.03-0.01,0.04-0.02c0.01-0.01,0.02-0.03,0.02-0.04l0-0.29c0-0.02-0.01-0.03-0.02-0.04c-0.01-0.01-0.03-0.02-0.04-0.02
		l-2.38,0c-0.02,0-0.03,0.01-0.04,0.02C88.41,167,88.4,167.02,88.4,167.03L88.4,167.03z M86.25,167.11h0.03l-0.01-0.22L86.25,167.11
		z M86.17,167.11h0.03l-0.01-0.22L86.17,167.11z M86.09,167.11h0.03l-0.01-0.22L86.09,167.11z M86.01,167.11l0.03,0l-0.01-0.22
		L86.01,167.11z M85.93,167.11h0.03l-0.01-0.22L85.93,167.11z M85.85,167.11h0.03l-0.01-0.22L85.85,167.11z M85.77,167.11h0.03
		l-0.01-0.22L85.77,167.11z M85.69,167.11h0.03l-0.01-0.22L85.69,167.11z M85.61,167.11h0.03l-0.01-0.22L85.61,167.11z
		 M85.53,167.11h0.03l-0.01-0.22L85.53,167.11z M85.45,167.11h0.03l-0.01-0.22L85.45,167.11z M85.37,167.11h0.03l-0.01-0.22
		L85.37,167.11z M85.29,167.11h0.03l-0.01-0.22L85.29,167.11z M85.22,167.11h0.03l-0.01-0.22L85.22,167.11z M88.67,169.98
		c0.74,0.22,1.44-0.13,2.14-0.33l0-0.42c-0.69-0.19-1.39-0.54-2.14-0.33L88.67,169.98L88.67,169.98z M88.63,169.53h-2.42v0.06h-0.06
		v-0.06H86.1v0.07h-0.06v-0.07H86v0.1h-0.06v-0.1H85.9v0.11h-0.06v-0.11H85.8v0.11h-0.06v-0.11h-0.05v0.11h-0.06v-0.11h-0.05v0.1
		h-0.06v-0.1h-0.05v0.08h-0.06v-0.08h-0.05v0.06h-0.06v-0.06h-0.19c-0.12-0.03-0.12-0.14,0-0.17h0.19v-0.06h0.06v0.06h0.05v-0.08
		h0.06v0.08h0.05v-0.1h0.06v0.1h0.05v-0.11h0.06v0.11h0.05v-0.12h0.06v0.12h0.04v-0.12h0.06v0.12h0.04v-0.1H86v0.1h0.04v-0.08h0.06
		v0.08h0.05v-0.06h0.06v0.06h2.42v-0.48c0.79-0.24,1.48,0.12,2.22,0.33l0,0.47c-0.73,0.2-1.43,0.56-2.22,0.33L88.63,169.53z
		 M88.36,167.32v-0.05l-1.61,0c-0.25,0.05-0.31,0.19-0.46,0.45h-0.05l0-0.28H86.2l0,0.28h-0.04l0-0.28h-0.04l0,0.28h-0.04l0-0.28
		h-0.04l0,0.28h-0.04l0-0.28h-0.04l0,0.28h-0.04l0-0.28H85.9l0,0.28h-0.04l0-0.28h-0.04l0,0.28h-0.04l0-0.28h-0.04l0,0.28h-0.04
		l0-0.28h-0.04l0,0.28h-0.04l0-0.28H85.6l0,0.28h-0.04l0-0.28h-0.04l0,0.28h-0.04l0-0.28h-0.04l0,0.28h-0.04l0-0.28h-0.04l0,0.28
		h-0.04l0-0.28H85.3l0,0.28h-0.04l0-0.28h-0.04l0,0.28h-0.07l0-0.45h-0.07c-0.11-0.03-0.1-0.12,0-0.15h0.07
		c0.01-0.17-0.03-0.32-0.08-0.48l1.32,0c-0.05,0.14-0.08,0.3-0.07,0.48l2.04,0v-0.08c0-0.03,0.01-0.05,0.03-0.07
		c0.02-0.02,0.04-0.03,0.07-0.03l2.38,0c0.03,0,0.05,0.01,0.07,0.03c0.02,0.02,0.03,0.04,0.03,0.07l0,0.29
		c0,0.03-0.01,0.05-0.03,0.07c-0.02,0.02-0.04,0.03-0.07,0.03l-2.38,0c-0.03,0-0.05-0.01-0.07-0.03
		C88.37,167.38,88.36,167.35,88.36,167.32L88.36,167.32z"/>
</g>
<path class="st1" d="M89.59,155.54c0.1,0.01,0.18,0.08,0.18,0.18l0,1.29c0,0.09-0.08,0.17-0.18,0.18l-5.72,0.36v-2.36L89.59,155.54z
	 M90.73,155.92v0.88c0,0.1-0.09,0.18-0.19,0.18h-0.55v-1.24h0.55C90.64,155.74,90.73,155.82,90.73,155.92L90.73,155.92z
	 M83.24,157.55v-2.38h0.41v2.38H83.24z M83.13,154.96c-0.06,0-0.11,0.05-0.11,0.11v2.59c0,0.06,0.05,0.11,0.11,0.11h0.63
	c0,0,0,0,0,0c0,0,0,0,0,0l5.84-0.36c0.14-0.01,0.26-0.09,0.33-0.2h0.6c0.23,0,0.41-0.18,0.41-0.4v-0.88c0-0.22-0.18-0.4-0.41-0.4
	h-0.6c-0.07-0.11-0.19-0.19-0.33-0.2l-5.84-0.36c0,0,0,0,0,0c0,0,0,0,0,0L83.13,154.96z"/>
<path class="st1" d="M90.73,160.29v1.57h-3.44v-0.68h2.21c0.06,0,0.11-0.05,0.11-0.11s-0.05-0.11-0.11-0.11h-2.21v-0.68
	L90.73,160.29z M85.42,161.56c-0.07,0-0.13-0.06-0.13-0.13v-0.71c0-0.07,0.06-0.13,0.13-0.13h1.65v0.96L85.42,161.56z M85.08,160.73
	v0.71c0,0.19,0.15,0.34,0.34,0.34h1.65v0.2c0,0.06,0.05,0.11,0.11,0.11h3.65c0.06,0,0.11-0.05,0.11-0.11v-1.79
	c0-0.06-0.05-0.11-0.11-0.11h-3.65c-0.06,0-0.11,0.05-0.11,0.11v0.2h-1.65C85.23,160.38,85.08,160.54,85.08,160.73L85.08,160.73z"/>
<g>
	<path class="st1" d="M89.39,150.98c0,0.49-0.63,0.9-1.4,0.9s-1.4-0.4-1.4-0.9s0.63-0.9,1.4-0.9
		C88.77,150.08,89.39,150.48,89.39,150.98z M86.4,150.98c0,0.6,0.72,1.09,1.59,1.09c0.88,0,1.59-0.49,1.59-1.09
		c0-0.6-0.72-1.09-1.59-1.09C87.12,149.89,86.4,150.38,86.4,150.98z"/>
	<path class="st1" d="M84.3,150.21h0.68v1.53H84.3c-0.14,0-0.26-0.11-0.26-0.26v-1.02C84.05,150.33,84.16,150.21,84.3,150.21
		L84.3,150.21z M85.64,149.62h4.87c0.13,0,0.24,0.11,0.24,0.24v2.22c0,0.13-0.11,0.24-0.24,0.24h-4.87c-0.25,0-0.46-0.21-0.46-0.46
		v-1.8C85.18,149.83,85.38,149.62,85.64,149.62L85.64,149.62z M82.48,151.2v-0.44c0-0.15,0.11-0.27,0.25-0.27h1.13v0.98l-1.13,0
		C82.59,151.46,82.48,151.34,82.48,151.2L82.48,151.2z M82.28,150.75v0.44c0,0.26,0.2,0.46,0.45,0.46h1.16
		c0.07,0.16,0.23,0.28,0.42,0.28h0.68c0.03,0.33,0.31,0.59,0.65,0.59h4.87c0.24,0,0.44-0.2,0.44-0.44v-2.22
		c0-0.24-0.2-0.44-0.44-0.44h-4.87c-0.34,0-0.62,0.26-0.65,0.59H84.3c-0.19,0-0.35,0.11-0.41,0.27h-1.16
		C82.48,150.29,82.28,150.5,82.28,150.75L82.28,150.75z"/>
</g>
<g>
	<path class="st1" d="M88.2,146.96v-6.52l-2.3,0v6.52L88.2,146.96L88.2,146.96z M88.35,140.36v6.68c0,0.04-0.03,0.08-0.08,0.08
		h-2.46c-0.04,0-0.08-0.04-0.08-0.08v-6.68c0-0.02,0.01-0.04,0.02-0.06c0.01-0.01,0.03-0.02,0.06-0.02h2.46
		c0.02,0,0.04,0.01,0.06,0.02S88.35,140.34,88.35,140.36L88.35,140.36z"/>
	<path class="st1" d="M90.65,146.96v-6.52l-2.3,0v6.52L90.65,146.96z M90.81,140.36v6.68c0,0.04-0.04,0.08-0.08,0.08h-2.46
		c-0.04,0-0.08-0.04-0.08-0.08v-6.68c0-0.02,0.01-0.04,0.02-0.06c0.01-0.01,0.03-0.02,0.06-0.02h2.46c0.02,0,0.04,0.01,0.06,0.02
		C90.8,140.32,90.81,140.34,90.81,140.36L90.81,140.36z"/>
	<path class="st1" d="M89.88,146.57v-0.24h-1.24v0.24H89.88z M90.04,146.25v0.39c0,0.04-0.04,0.08-0.08,0.08h-1.39
		c-0.04,0-0.08-0.04-0.08-0.08v-0.39c0-0.02,0.01-0.04,0.02-0.06c0.01-0.01,0.03-0.02,0.06-0.02h1.39c0.02,0,0.04,0.01,0.06,0.02
		C90.03,146.21,90.04,146.23,90.04,146.25L90.04,146.25z"/>
	<path class="st1" d="M89.88,145.78v-0.24h-1.24v0.24H89.88z M90.04,145.47v0.39c0,0.04-0.04,0.08-0.08,0.08h-1.39
		c-0.04,0-0.08-0.04-0.08-0.08v-0.39c0-0.02,0.01-0.04,0.02-0.06c0.01-0.01,0.03-0.02,0.06-0.02h1.39c0.02,0,0.04,0.01,0.06,0.02
		C90.03,145.43,90.04,145.45,90.04,145.47L90.04,145.47z"/>
	<path class="st1" d="M89.88,145v-0.24h-1.24V145H89.88z M90.04,144.68v0.39c0,0.04-0.04,0.08-0.08,0.08h-1.39
		c-0.04,0-0.08-0.04-0.08-0.08v-0.39c0-0.02,0.01-0.04,0.02-0.06c0.01-0.01,0.03-0.02,0.06-0.02h1.39c0.02,0,0.04,0.01,0.06,0.02
		C90.03,144.64,90.04,144.66,90.04,144.68L90.04,144.68z"/>
	<path class="st1" d="M89.88,144.21v-0.24h-1.24v0.24H89.88z M90.04,143.9v0.39c0,0.04-0.04,0.08-0.08,0.08h-1.39
		c-0.04,0-0.08-0.04-0.08-0.08v-0.39c0-0.02,0.01-0.04,0.02-0.06c0.01-0.01,0.03-0.02,0.06-0.02h1.39c0.02,0,0.04,0.01,0.06,0.02
		C90.03,143.85,90.04,143.88,90.04,143.9L90.04,143.9z"/>
	<path class="st1" d="M89.88,143.42v-0.24h-1.24v0.24H89.88z M90.04,143.11v0.39c0,0.04-0.04,0.08-0.08,0.08h-1.39
		c-0.04,0-0.08-0.04-0.08-0.08v-0.39c0-0.02,0.01-0.04,0.02-0.06c0.01-0.01,0.03-0.02,0.06-0.02h1.39c0.02,0,0.04,0.01,0.06,0.02
		C90.03,143.07,90.04,143.09,90.04,143.11L90.04,143.11z"/>
	<path class="st1" d="M89.88,142.64v-0.24h-1.24v0.24H89.88z M90.04,142.32v0.39c0,0.04-0.04,0.08-0.08,0.08h-1.39
		c-0.04,0-0.08-0.04-0.08-0.08v-0.39c0-0.02,0.01-0.04,0.02-0.06c0.01-0.01,0.03-0.02,0.06-0.02h1.39c0.02,0,0.04,0.01,0.06,0.02
		C90.03,142.28,90.04,142.3,90.04,142.32L90.04,142.32z"/>
	<path class="st1" d="M89.88,141.85v-0.24h-1.24v0.24H89.88z M90.04,141.54v0.39c0,0.04-0.04,0.08-0.08,0.08h-1.39
		c-0.04,0-0.08-0.04-0.08-0.08v-0.39c0-0.02,0.01-0.04,0.02-0.06c0.01-0.01,0.03-0.02,0.06-0.02h1.39c0.02,0,0.04,0.01,0.06,0.02
		C90.03,141.5,90.04,141.52,90.04,141.54L90.04,141.54z"/>
	<path class="st1" d="M89.88,141.07v-0.24h-1.24v0.24H89.88z M90.04,140.75v0.39c0,0.04-0.04,0.08-0.08,0.08h-1.39
		c-0.04,0-0.08-0.04-0.08-0.08v-0.39c0-0.02,0.01-0.04,0.02-0.06c0.01-0.01,0.03-0.02,0.06-0.02h1.39c0.02,0,0.04,0.01,0.06,0.02
		C90.03,140.71,90.04,140.73,90.04,140.75L90.04,140.75z"/>
	<path class="st1" d="M87.85,146.57v-5.74l-1.61,0v5.74L87.85,146.57L87.85,146.57z M88.01,140.75v5.9v0c0,0.04-0.03,0.08-0.08,0.08
		h-1.77c-0.04,0-0.08-0.04-0.08-0.08v-5.9v0c0-0.02,0.01-0.04,0.02-0.06c0.01-0.01,0.03-0.02,0.06-0.02h1.77
		c0.02,0,0.04,0.01,0.06,0.02C88,140.71,88.01,140.73,88.01,140.75L88.01,140.75z"/>
	<path class="st1" d="M90.41,140.75v5.9v0c0,0.04-0.04,0.08-0.08,0.08c-0.04,0-0.08-0.04-0.08-0.08v-5.9v0
		c0-0.04,0.04-0.08,0.08-0.08C90.37,140.67,90.41,140.71,90.41,140.75z"/>
	<path class="st1" d="M87.67,146.06c0,0.03-0.02,0.06-0.05,0.07c-0.03,0.01-0.07,0-0.09-0.03l-1.18-1.57
		c-0.03-0.03-0.02-0.08,0.02-0.11c0.03-0.03,0.08-0.02,0.11,0.02l1.18,1.57C87.66,146.02,87.67,146.04,87.67,146.06L87.67,146.06z"
		/>
	<path class="st1" d="M87.67,142.91c0,0.03-0.02,0.06-0.05,0.07c-0.03,0.01-0.07,0-0.09-0.03l-1.18-1.57
		c-0.03-0.03-0.02-0.08,0.02-0.11c0.03-0.03,0.08-0.02,0.11,0.02l1.18,1.57C87.66,142.88,87.67,142.9,87.67,142.91L87.67,142.91z"/>
	<path class="st1" d="M87.67,144.49c0,0.03-0.02,0.06-0.05,0.07c-0.03,0.01-0.07,0-0.09-0.03l-1.18-1.57
		c-0.03-0.03-0.02-0.08,0.02-0.11c0.03-0.03,0.08-0.02,0.11,0.02l1.18,1.57C87.66,144.45,87.67,144.47,87.67,144.49L87.67,144.49z"
		/>
</g>
<path class="st1" d="M82.43,134.76h-2.59c-0.24,0-0.44-0.2-0.44-0.44v-2.51c0-0.24,0.2-0.44,0.44-0.44h2.61v3.4L82.43,134.76z
	 M92.34,131.37v3.4h-9.02v-3.39L92.34,131.37z M92.85,134.59v0.15h-0.34v-0.15H92.85z M92.85,134.27v0.15h-0.34v-0.15H92.85z
	 M92.85,133.94v0.15h-0.34v-0.15H92.85z M92.85,133.62v0.15h-0.34v-0.15H92.85z M92.85,133.29v0.15h-0.34v-0.15H92.85z
	 M92.85,132.97v0.15h-0.34v-0.15H92.85z M92.85,132.65v0.15h-0.34v-0.15H92.85z M92.85,132.32v0.15h-0.34v-0.15H92.85z M92.85,132
	v0.15h-0.34V132H92.85z M92.85,131.67v0.17h-0.34v-0.17H92.85z M92.85,131.37v0.15h-0.34v-0.15H92.85z M82.6,134.76v-3.39h0.55v3.39
	H82.6z M79.22,131.79v2.52c0,0.34,0.27,0.61,0.61,0.61h13.19v-3.74l-9.71,0h-3.48C79.5,131.2,79.22,131.47,79.22,131.79
	L79.22,131.79z"/>
</svg>
