<!-- Generator: Adobe Illustrator 23.0.0, SVG Export Plug-In  -->
<svg version="1.1" xmlns="http://www.w3.org/2000/svg" xmlns:xlink="http://www.w3.org/1999/xlink" x="0px" y="0px" width="77.53px"
	 height="11.52px" viewBox="0 0 77.53 11.52" style="enable-background:new 0 0 77.53 11.52;" xml:space="preserve">
<style type="text/css">
	.st0{fill:#CCCCCC;}
</style>
<defs>
</defs>
<path class="st0" d="M77.31,5.79c-0.56-1.22-2-1.75-3.22-1.19l-2.56,1.2c-0.57,0.27-1.23,0.42-1.98,0.42c-2.51,0-3.3-1.62-3.32-1.68
	C66.15,4.36,64.23,0,58.69,0c-4.64,0.02-7.32,4.27-7.43,4.45l-0.1,0.16c-0.05,0.09-0.98,1.84-3.41,1.84c-2.52,0-3.28-1.59-3.32-1.69
	l-0.1-0.19c-0.1-0.18-2.52-4.32-7.46-4.34c-4.43,0-6.5,2.79-7.18,3.97L29.5,4.51l-0.08,0.18c-0.04,0.06-0.85,1.71-3.36,1.71
	c-2.51,0-3.31-1.63-3.32-1.67c-0.09-0.18-1.99-4.55-7.54-4.55c-4.66,0.03-7.32,4.27-7.43,4.45l-0.1,0.18
	c-0.04,0.07-1,1.82-3.42,1.82c-0.04,0-1.83-0.02-1.83-0.02C1.08,6.61,0,7.7,0,9.04c0,1.34,1.08,2.43,2.43,2.43
	c0,0,1.76,0.06,1.83,0.06l0,0c4.75,0,6.93-3.39,7.38-4.23c0.22-0.3,1.63-2.21,3.59-2.22c2.39,0,3.24,1.56,3.3,1.7
	c0.21,0.47,2.16,4.53,7.52,4.53c5,0,7.04-3.5,7.44-4.34l0.11-0.18c0.28-0.5,1.18-1.66,3.28-1.66c2.09,0.02,3.27,1.65,3.46,1.94
	c0.43,0.86,2.43,4.28,7.4,4.28c4.77,0,6.94-3.42,7.39-4.24c0.2-0.29,1.59-2.19,3.59-2.2c2.45,0,3.27,1.64,3.29,1.67
	c0.08,0.19,2,4.55,7.52,4.55c1.07,0,2.1-0.17,3.04-0.5L76.11,9C77.34,8.45,77.87,7.01,77.31,5.79L77.31,5.79z"/>
</svg>
