<!-- Generator: Adobe Illustrator 23.0.0, SVG Export Plug-In  -->
<svg version="1.1" xmlns="http://www.w3.org/2000/svg" xmlns:xlink="http://www.w3.org/1999/xlink" x="0px" y="0px"
	 width="845.22px" height="998px" viewBox="0 0 845.22 998" style="enable-background:new 0 0 845.22 998;" xml:space="preserve">
<style type="text/css">
	.st0{opacity:0.57;fill:#FFFFFF;}
	.st1{fill:#453F51;}
</style>
<defs>
</defs>
<g>
	<rect class="st0" width="845.22" height="770"/>
	<g>
		<path class="st1" d="M278.8,180.65h-12.03v-13.31h12.03V180.65z M278.8,204.89h-12.03v-13.31h12.03V204.89z M256.38,180.65h-12.03
			v-13.31h12.03V180.65z M256.38,204.89h-12.03v-13.31h12.03V204.89z M233.59,220.38H217V191.4h16.59V220.38z M212.63,220.38h-16.59
			V191.4h16.59V220.38z M185.11,180.65h-12.03v-13.31h12.03V180.65z M185.11,204.89h-12.03v-13.31h12.03V204.89z M162.69,180.65
			h-12.03v-13.31h12.03V180.65z M162.69,204.89h-12.03v-13.31h12.03V204.89z M198.23,164.43c0.36-3.65,1.64-6.93,4.01-9.48
			l2.37,2.37l1.82-1.82l-2.37-2.37c2.92-2.55,6.74-4.01,10.75-4.01c4.19,0,7.84,1.46,10.94,4.01l-2.37,2.37l1.82,1.82l2.37-2.37
			c2.19,2.55,3.65,5.83,4.01,9.48h-3.46v2.55h3.46c-0.36,3.65-1.64,6.93-4.01,9.48l-2.37-2.37l-1.82,1.82l2.37,2.37
			c-2.55,2.19-5.83,3.65-9.48,4.01v-3.46h-2.55v3.46c-3.65-0.36-6.93-1.64-9.48-4.01l2.37-2.37l-1.82-1.82l-2.37,2.37
			c-2.19-2.55-3.65-5.83-4.01-9.48h3.46v-2.55H198.23z M300.48,220.38h-5.1v-4.92c0-0.55-0.36-0.91-0.91-0.91h-5.1v-58.32H232.5
			c-0.55-1.1-1.27-2.19-2.19-3.1h63.24c2.19,0,3.46-2.55,2.01-4.19l-12.4-15.13c-2.19-2.55-5.28-4.01-8.56-4.01H154.86
			c-3.28,0-6.56,1.46-8.56,4.01l-12.4,15.13c-1.46,1.64-0.19,4.19,2.01,4.19h63.24c-0.73,0.91-1.46,2.01-2.19,3.1H140.1v58.32h-5.1
			c-0.55,0-0.91,0.36-0.91,0.91v4.92h-5.1c-0.55,0-0.91,0.36-0.91,0.91v4.37c0,0.55,0.36,0.91,0.91,0.91H300.3
			c0.55,0,0.91-0.36,0.91-0.91v-4.37C301.39,220.74,301.03,220.38,300.48,220.38L300.48,220.38z"/>
		<polygon class="st1" points="224.66,164.43 216.09,164.43 216.09,152.4 213.54,152.4 213.54,167.16 224.66,167.16 		"/>
	</g>
	<rect x="130.01" y="303.55" style="fill:none;" width="710.98" height="694.45"/>
	<text transform="matrix(1 0 0 1 130.0068 341.656)"><tspan x="0" y="0" style="fill:#333333; font-family:'Avenir-Roman'; font-size:50.4px;">Location:</tspan><tspan x="207.39" y="0" style="fill:#333333; font-family:'Avenir-Light'; font-size:50.4px;"> </tspan><tspan x="0" y="60.48" style="fill:#333333; font-family:'Avenir-Light'; font-size:50.4px;">1111 8th st</tspan><tspan x="0" y="181.44" style="fill:#333333; font-family:'Avenir-Roman'; font-size:50.4px;">Time on Transportation:</tspan><tspan x="0" y="241.92" style="fill:#333333; font-family:'Avenir-Light'; font-size:50.4px;">23 min - from Home</tspan></text>
	<rect x="338.23" y="179" style="fill:none;" width="494.98" height="113"/>
	
		<text transform="matrix(1 0 0 1 338.2319 222.6172)" style="fill:#333333; font-family:'Avenir-Black'; font-size:57.6948px; text-decoration: underline;">CCA</text>
</g>
</svg>
