<!-- Generator: Adobe Illustrator 23.0.0, SVG Export Plug-In  -->
<svg version="1.1" xmlns="http://www.w3.org/2000/svg" xmlns:xlink="http://www.w3.org/1999/xlink" x="0px" y="0px"
	 width="845.22px" height="977.5px" viewBox="0 0 845.22 977.5" style="enable-background:new 0 0 845.22 977.5;"
	 xml:space="preserve">
<style type="text/css">
	.st0{opacity:0.57;fill:#FFFFFF;}
	.st1{fill:#225E54;}
</style>
<defs>
</defs>
<g>
	<rect class="st0" width="845.22" height="770"/>
	<g>
		<path class="st1" d="M182.27,171.44c-1.68,13.72-14.25,23.49-27.98,21.82c-13.7-1.68-23.49-14.23-21.79-27.95
			c1.7-13.75,14.25-23.52,27.98-21.82C174.2,145.18,183.99,157.71,182.27,171.44z M188.2,193.99l0.09-88.83
			c-6.8-3.36-14.3-5.63-22.25-6.6c-38.55-4.76-73.68,22.62-78.43,61.15c-4.78,38.55,22.62,73.68,61.17,78.43
			c32.57,4.05,62.71-14.9,74.14-44.14l-14.44-0.02L188.2,193.99z"/>
		<path class="st1" d="M166.8,169.53c-0.62,5.2-5.38,8.9-10.55,8.28c-5.22-0.67-8.9-5.4-8.25-10.62c0.62-5.17,5.4-8.87,10.57-8.21
			C163.76,159.6,167.44,164.36,166.8,169.53z M159.76,149.07c-10.64-1.33-20.34,6.25-21.68,16.9c-1.31,10.67,6.25,20.39,16.92,21.72
			c10.64,1.31,20.39-6.25,21.7-16.92C178.04,160.08,170.45,150.38,159.76,149.07z"/>
		<path class="st1" d="M263.55,105.96l-6.71,0.11l-0.14-6.85l0.05,0l6.67-0.11L263.55,105.96z M263.73,116.26l-6.69,0.13l-0.14-6.85
			l6.71-0.13L263.73,116.26z M263.91,126.56l-6.71,0.11l-0.14-6.85l6.73-0.11L263.91,126.56z M264.09,136.88l-6.71,0.11l0-0.11
			l-0.11-6.73l6.71-0.11L264.09,136.88z M264.3,147.18l-6.71,0.11l-0.14-6.83l6.73-0.13L264.3,147.18z M264.48,157.47l-6.71,0.11
			l-0.11-6.83l6.71-0.13L264.48,157.47z M264.68,167.79l-6.71,0.11l-0.14-6.85l6.71-0.11L264.68,167.79z M264.84,178.09l-6.69,0.11
			l-0.14-6.85l6.71-0.13L264.84,178.09z M252.27,135.76l-39.76,0.72l-0.7-38.55l39.79-0.7L252.27,135.76z M253.07,180.42l-39.76,0.7
			l-0.7-38.55l39.79-0.7L253.07,180.42z M206.87,106.97l-6.73,0.13l-0.09-6.85l6.71-0.11L206.87,106.97z M207.07,117.27l-6.73,0.11
			l-0.11-6.83l6.71-0.13L207.07,117.27z M207.25,127.59l-6.71,0.11l-0.11-6.85l6.69-0.11L207.25,127.59z M207.43,137.87l-6.69,0.13
			l-0.14-6.83l6.69-0.11L207.43,137.87z M207.64,148.19l-6.71,0.13l-0.11-6.85l6.71-0.13L207.64,148.19z M207.82,158.48l-6.71,0.13
			l-0.11-6.85l6.71-0.11L207.82,158.48z M207.98,168.8l-6.69,0.11l-0.14-6.85l6.71-0.11L207.98,168.8z M208.16,179.1l-6.69,0.11
			l-0.14-6.85l6.69-0.11L208.16,179.1z M263.36,95.67l-6.71,0.11l-0.09-4.73l-49.97,0.9l0.09,4.71l-6.71,0.11l-0.09-4.73l-4.64,0.07
			l1.71,95.34l4.64-0.09l-0.09-4.71l6.71-0.13l0.09,4.73l49.95-0.9l-0.07-4.71l6.69-0.13l0.09,4.71l4.64-0.07l-1.73-95.32
			l-4.64,0.07L263.36,95.67z"/>
	</g>
	<rect x="87.06" y="283.05" style="fill:none;" width="710.98" height="694.45"/>
	<text transform="matrix(1 0 0 1 87.0634 321.156)"><tspan x="0" y="0" style="fill:#333333; font-family:'Avenir-Roman'; font-size:50.4px;">Location:</tspan><tspan x="207.39" y="0" style="fill:#333333; font-family:'Avenir-Light'; font-size:50.4px;"> </tspan><tspan x="0" y="60.48" style="fill:#333333; font-family:'Avenir-Light'; font-size:50.4px;">1000 Van Ness Ave</tspan><tspan x="0" y="181.44" style="fill:#333333; font-family:'Avenir-Roman'; font-size:50.4px;">Time on Transportation:</tspan><tspan x="0" y="241.92" style="fill:#333333; font-family:'Avenir-Light'; font-size:50.4px;">21 min - from CCA</tspan><tspan x="0" y="302.4" style="fill:#333333; font-family:'Avenir-Light'; font-size:50.4px;">3 min - from Home</tspan></text>
	<rect x="279.23" y="185.28" style="fill:none;" width="494.98" height="62.22"/>
	
		<text transform="matrix(1 0 0 1 279.2319 228.8994)" style="fill:#333333; font-family:'Avenir-Black'; font-size:57.6948px; text-decoration: underline;">AMC Van Ness 14</text>
</g>
</svg>
