<!-- Generator: Adobe Illustrator 23.0.0, SVG Export Plug-In  -->
<svg version="1.1" xmlns="http://www.w3.org/2000/svg" xmlns:xlink="http://www.w3.org/1999/xlink" x="0px" y="0px"
	 width="845.22px" height="993.4px" viewBox="0 0 845.22 993.4" style="enable-background:new 0 0 845.22 993.4;"
	 xml:space="preserve">
<style type="text/css">
	.st0{opacity:0.57;fill:#FFFFFF;}
	.st1{fill:#C4742F;}
</style>
<defs>
</defs>
<g>
	<rect class="st0" width="845.22" height="770"/>
	<g>
		<path class="st1" d="M123.27,197.19c4.9,5.4,9.65,9.96,15.78,11.16c24.55,5.81,64.19,5.81,88.74,0
			c6.24-1.28,12.18-6.76,15.78-11.16c3.04,1.89,5.5,4.18,5.47,8.2c0,1.72-0.98,3.44-3.93,5.52c-2.95,2.09-7.65,4.12-13.67,5.75
			c-12.03,3.28-29.12,5.13-48.02,5.13s-35.98-1.84-48.02-5.13c-6.02-1.64-10.72-3.67-13.67-5.75c-2.95-2.08-3.93-3.81-3.93-5.52
			C117.83,201.41,120.28,199.23,123.27,197.19L123.27,197.19z M121.22,180.16c3.45,1.5,7.58,2.8,12.36,3.93
			c12.94,3.06,30.48,4.9,49.84,4.9s36.9-1.84,49.84-4.9c4.78-1.13,8.91-2.43,12.36-3.93c-1.27,2.71-2.83,5.54-4.61,8.14
			c-4.05,7.11-8.76,11.62-14.69,12.93c-22.79,5.45-62.99,5.45-85.78,0c-3.88-0.58-11.44-8.28-14.69-12.93
			C124.05,185.7,122.49,182.87,121.22,180.16L121.22,180.16z M200.22,174.58c-1.16,1.7-0.48,4.36,1.35,5.3
			c1.83,0.94,4.39-0.06,5.09-1.99c0.31,0.11,1.1,0.48,1.54,0.91c1.35,1.39,3.84,1.4,5.2,0.02c1.36-1.37,1.32-3.87-0.08-5.2
			c-1.34-1.34-3.05-2.66-5.58-3.08C204.25,170.37,201.34,172.47,200.22,174.58L200.22,174.58z M158.98,171.79
			c-1.4,1.23-1.58,3.6-0.41,5.04c1.18,1.44,3.53,1.72,5.02,0.6c0.58,1.57,2.37,2.61,4.03,2.33c1.66-0.28,3-1.84,3.03-3.52
			c0-3.34-2.26-4.87-4.33-5.7C163.5,169.45,161.06,170.33,158.98,171.79L158.98,171.79z M186.15,169.91c-3.13,0-6.24,1.54-7.8,4.67
			c-1.07,1.72-0.34,4.29,1.47,5.19c1.81,0.9,4.3-0.06,5.03-1.94c0.52-1.04,2.1-1.04,2.62,0c0.73,1.89,3.22,2.85,5.03,1.94
			c1.81-0.9,2.53-3.47,1.47-5.19C192.39,171.45,189.27,169.91,186.15,169.91L186.15,169.91z M181.59,167.12
			c8.75,0,22.81,1.32,34.35,3.76c5.3,0.99,11.89,2.77,16.92,5.75c-1.04,0.29-2.09,0.52-3.08,0.74c-2.35-2.19-5.24-2.36-7.97-2.05
			c-2.43,0.45-5.03,1.94-6.66,4.5c-9.44,1.18-20.25,1.88-31.72,1.88c-9.99,0-19.45-0.57-27.97-1.48c-0.9-2.5-2.73-4.54-4.96-5.52
			c-4.88-1.19-9.68-1.4-12.87,2.79c-2.09-0.41-4.25-1-6.15-1.54c5.08-2.51,11.11-4.07,15.78-5.07
			C158.17,167.99,172.27,167.02,181.59,167.12L181.59,167.12z M183.41,148.89c-19.36,0-36.9,1.84-49.84,4.9
			c-6.95,1.72-15.86,3.84-20.79,9.45c-1.32,1.53-2.28,3.52-2.28,5.7c0,6.86,3.6,14.93,8.49,22.33c-4.75,3.34-8.39,8.88-8.49,14.13
			c0,4.66,2.94,8.58,7.01,11.45c4.07,2.87,9.43,5.05,15.95,6.83c13.04,3.55,30.59,5.41,49.95,5.41s36.92-1.86,49.95-5.41
			c6.52-1.78,11.88-3.97,15.95-6.83c4.07-2.87,7.01-6.79,7.01-11.45c-0.08-7.33-4.01-10.96-8.49-14.13
			c4.88-7.4,8.49-15.48,8.49-22.33c0-2.17-0.95-4.17-2.28-5.7c-5.57-5.55-14.35-7.91-20.79-9.45
			C220.32,150.73,202.77,148.89,183.41,148.89L183.41,148.89z M202.61,98.71c-4.75,4.01-8.05,7.32-8.26,12.02
			c-0.21,4.7,2.7,8.39,6.89,13.1c1.92,2.14,4.3,4.3,3.99,7.8c-0.26,1.95-1.83,4.42-4.96,7.23c-1.62,1.2-1.89,3.85-0.55,5.36
			c1.35,1.5,4.01,1.53,5.39,0.05c3.72-3.35,6.72-7.04,7.35-11.68c0.68-6.54-2.85-10.61-5.92-13.78c-3.75-4.26-4.94-6.71-4.9-7.75
			c0.05-1.05,1.31-3.08,5.7-6.78c1.72-1.96,1.53-3.99,0.21-5.5C205.9,97.4,204.49,97.75,202.61,98.71L202.61,98.71z M162.51,98.71
			c-4.75,4.01-8.05,7.32-8.26,12.02c-0.21,4.7,2.7,8.39,6.89,13.1c1.92,2.14,4.2,4.42,3.99,7.8c-0.26,1.95-1.83,4.42-4.96,7.23
			c-1.62,1.2-1.89,3.85-0.55,5.36c1.35,1.5,4.01,1.53,5.39,0.05c3.72-3.35,6.72-7.04,7.35-11.68c0.39-6.22-2.85-10.61-5.92-13.78
			c-3.75-4.26-4.94-6.71-4.9-7.75c0.05-1.05,1.31-3.08,5.7-6.78c1.6-2.14,1.41-4.05,0.26-5.46
			C165.98,97.38,164.41,97.74,162.51,98.71L162.51,98.71z M183.07,84.12c-6.27,5.42-10.34,9.79-10.59,15.49
			c-0.25,5.7,3.29,10.49,8.83,16.86c2.9,3.24,5.97,6.57,5.7,11.73c-0.42,3.18-2.79,6.78-7.06,10.71c-1.62,1.22-1.87,3.88-0.51,5.38
			c1.37,1.5,4.04,1.48,5.4-0.02c4.86-4.48,8.64-9.35,9.4-15.15c0.43-7.8-3.7-13.53-7.58-17.6c-5.12-5.93-6.98-9.51-6.89-11.62
			c0.09-2.14,2.12-5.15,8.03-10.25c1.87-2.41,1.32-4.08,0.06-5.51C186.63,83,184.84,83,183.07,84.12L183.07,84.12z"/>
	</g>
	<rect x="106.01" y="298.95" style="fill:none;" width="710.98" height="694.45"/>
	<text transform="matrix(1 0 0 1 106.0068 337.056)"><tspan x="0" y="0" style="fill:#333333; font-family:'Avenir-Roman'; font-size:50.4px;">Location:</tspan><tspan x="207.39" y="0" style="fill:#333333; font-family:'Avenir-Light'; font-size:50.4px;"> </tspan><tspan x="0" y="60.48" style="fill:#333333; font-family:'Avenir-Light'; font-size:50.4px;">1330 Noriega St</tspan><tspan x="0" y="181.44" style="fill:#333333; font-family:'Avenir-Roman'; font-size:50.4px;">Time on Transportation:</tspan><tspan x="0" y="241.92" style="fill:#333333; font-family:'Avenir-Light'; font-size:50.4px;">55 min - from CCA</tspan><tspan x="0" y="302.4" style="fill:#333333; font-family:'Avenir-Light'; font-size:50.4px;">32 min - from Home</tspan></text>
	<rect x="279.23" y="179.4" style="fill:none;" width="494.98" height="131"/>
	
		<text transform="matrix(1 0 0 1 279.2319 223.0172)" style="fill:#333333; font-family:'Avenir-Black'; font-size:57.6948px; text-decoration: underline;">The Crew</text>
</g>
</svg>
