<!-- Generator: Adobe Illustrator 23.0.0, SVG Export Plug-In  -->
<svg version="1.1" xmlns="http://www.w3.org/2000/svg" xmlns:xlink="http://www.w3.org/1999/xlink" x="0px" y="0px"
	 width="845.22px" height="993.4px" viewBox="0 0 845.22 993.4" style="enable-background:new 0 0 845.22 993.4;"
	 xml:space="preserve">
<style type="text/css">
	.st0{opacity:0.57;fill:#FFFFFF;}
	.st1{fill:#225E54;}
</style>
<defs>
</defs>
<g>
	<rect class="st0" width="845.22" height="770"/>
	<g>
		<path class="st1" d="M216.5,186.56v-39.49c0-1.67,1.36-3.04,3.04-3.04c1.68,0,3.04,1.37,3.04,3.04v39.49H216.5z M243.83,210.86
			h-48.61v-6.07h48.61V210.86z M249.91,241.24h-6.07v-12.15h6.07V241.24z M222.58,241.24h-6.07v-12.15h6.07V241.24z M195.24,241.24
			h-6.07v-12.15h6.07V241.24z M252.95,92.39h-0.27c-1.45-8.61-8.94-15.19-17.96-15.19c-4.67,0-8.92,1.78-12.15,4.68l0.01-13.79
			c0-1.68-1.36-3.04-3.04-3.04c-1.68,0-3.04,1.36-3.04,3.04v70.43c-3.53,1.26-6.07,4.6-6.07,8.55v39.49h-15.19v-9.11
			c0-1.68-1.36-3.04-3.04-3.04c-1.68,0-3.04,1.36-3.04,3.04v9.11h-9.11c-1.68,0-3.04,1.36-3.04,3.04v12.15
			c0,1.68,1.36,3.04,3.04,3.04h9.11v6.07h-9.11c-1.68,0-3.04,1.36-3.04,3.04v12.15c0,1.68,1.36,3.04,3.04,3.04h3.04v15.19
			c0,1.68,1.36,3.04,3.04,3.04h12.15c1.68,0,3.04-1.36,3.04-3.04V229.1h9.11v15.19c0,1.68,1.36,3.04,3.04,3.04h12.15
			c1.68,0,3.04-1.36,3.04-3.04V229.1h9.11v15.19c0,1.68,1.36,3.04,3.04,3.04h12.15c1.68,0,3.04-1.36,3.04-3.04V229.1h3.04
			c1.68,0,3.04-1.36,3.04-3.04V213.9c0-1.68-1.36-3.04-3.04-3.04h-9.11v-6.07h9.11c1.68,0,3.04-1.36,3.04-3.04V189.6
			c0-1.68-1.36-3.04-3.04-3.04h-9.11v-9.11c0-1.68-1.36-3.04-3.04-3.04s-3.04,1.36-3.04,3.04v9.11h-15.19l-0.02-39.49
			c0-3.96-2.55-7.3-6.07-8.55V95.43c0-6.7,5.45-12.15,12.15-12.15c5.66,0,10.39,3.91,11.73,9.16c-8.18,0.23-14.77,6.91-14.77,15.14
			c0,1.68,1.36,3.04,3.04,3.04h6.07v6.07c0,5.03,4.09,9.11,9.11,9.11s9.11-4.09,9.11-9.11v-6.07h6.07c1.68,0,3.04-1.36,3.04-3.04
			C268.14,99.2,261.33,92.39,252.95,92.39L252.95,92.39z"/>
		<path class="st1" d="M108.03,173.51c-1.19-1.19-1.19-3.1,0-4.29c1.18-1.19,3.11-1.19,4.29,0l0.89,0.89v-18.75l-5.18-5.18
			c-1.19-1.19-1.19-3.1,0-4.29c1.18-1.19,3.11-1.19,4.29,0l0.89,0.89l0.01-13.94c0-1.68,1.36-3.04,3.04-3.04
			c1.68,0,3.04,1.36,3.04,3.04v26.08l0.89-0.89c1.18-1.19,3.11-1.19,4.29,0c1.19,1.19,1.19,3.1,0,4.29l-5.18,5.18v18.75l0.89-0.89
			c1.18-1.19,3.11-1.19,4.29,0c1.19,1.19,1.19,3.1,0,4.29l-5.18,5.18l-0.01,7.87h-6.07V178.7L108.03,173.51z M138.41,169.22
			c1.18-1.19,3.11-1.19,4.29,0l0.89,0.89v-10.89c0-1.68,1.36-3.04,3.04-3.04c1.68,0,3.04,1.36,3.04,3.04v23.05l0.89-0.89
			c1.18-1.19,3.11-1.19,4.29,0c1.19,1.19,1.19,3.1,0,4.29l-5.18,5.18v7.85h-6.07V178.7l-5.18-5.18
			C137.22,172.32,137.22,170.41,138.41,169.22L138.41,169.22z M140.56,223.01c-6.44,0-11.43,2.93-14.57,8.53
			c-0.3-0.04-0.6-0.06-0.89-0.06c-1.57,0-2.97,0.24-4.24,0.62c-0.5-0.16-1.02-0.3-1.56-0.41v-27.19c5.08-0.85,9.42-3.85,12.15-8
			c2.73,4.14,7.06,7.13,12.15,8v18.77C142.61,223.12,141.61,223.01,140.56,223.01L140.56,223.01z M156.02,231.48
			c-0.3,0-0.59,0.02-0.89,0.06c-1.44-2.56-3.28-4.54-5.46-5.96v-21.07c8.61-1.45,15.19-8.94,15.19-17.96v-39.49
			c0-10.05-8.17-18.23-18.23-18.23c-4.67,0-8.92,1.78-12.15,4.68v-16.83c0-10.05-8.17-18.23-18.23-18.23s-18.23,8.17-18.23,18.23
			v69.87c0,9.01,6.59,16.5,15.19,17.96v23.67c-3.05-3.38-7.16-5.16-12.15-5.16c-4.7,0-8.38,1.57-11.26,4.82
			c-2.53,2.85-3.93,6.79-3.93,11.05v5.39c0,1.68,1.36,3.04,3.04,3.04h75.95c1.68,0,3.04-1.36,3.04-3.04
			C167.9,236.02,163.67,231.48,156.02,231.48L156.02,231.48z"/>
		<path class="st1" d="M180.04,86.31c0-7.11-6.27-12.84-13.39-12.08c-2.36-5.47-7.8-9.18-13.95-9.18c-6.14,0-11.59,3.72-13.95,9.18
			c-7.11-0.75-13.39,4.98-13.39,12.09c0,6.7,5.45,12.15,12.15,12.15h30.38C174.6,98.46,180.04,93.01,180.04,86.31L180.04,86.31z"/>
		<path class="st1" d="M180.04,125.8c0,1.68,1.36,3.04,3.04,3.04c1.68,0,3.04-1.36,3.04-3.04c0-6.7,5.45-12.15,12.15-12.15
			c1.68,0,3.04-1.36,3.04-3.04c0-1.68-1.36-3.04-3.04-3.04c-6.86,0-12.84,3.8-15.95,9.41c-2.19-2.06-5.13-3.32-8.36-3.32
			c-1.68,0-3.04,1.36-3.04,3.04c0,1.68,1.36,3.04,3.04,3.04C177.32,119.73,180.04,122.45,180.04,125.8L180.04,125.8z"/>
	</g>
	<rect x="85.88" y="298.95" style="fill:none;" width="710.98" height="694.45"/>
	<text transform="matrix(1 0 0 1 85.8772 337.056)"><tspan x="0" y="0" style="fill:#333333; font-family:'Avenir-Roman'; font-size:50.4px;">Location:</tspan><tspan x="207.39" y="0" style="fill:#333333; font-family:'Avenir-Light'; font-size:50.4px;"> </tspan><tspan x="0" y="60.48" style="fill:#333333; font-family:'Avenir-Light'; font-size:50.4px;">Dolores St &amp; 19th St</tspan><tspan x="0" y="181.44" style="fill:#333333; font-family:'Avenir-Roman'; font-size:50.4px;">Time on Transportation:</tspan><tspan x="0" y="241.92" style="fill:#333333; font-family:'Avenir-Light'; font-size:50.4px;">25 min - from CCA</tspan><tspan x="0" y="302.4" style="fill:#333333; font-family:'Avenir-Light'; font-size:50.4px;">26 min - from Home</tspan></text>
	<rect x="298.1" y="132.4" style="fill:none;" width="494.98" height="131"/>
	<text transform="matrix(1 0 0 1 298.1023 176.0172)"><tspan x="0" y="0" style="fill:#333333; font-family:'Avenir-Black'; font-size:57.6948px; text-decoration: underline;">Mission Dolores </tspan><tspan x="0" y="69.23" style="fill:#333333; font-family:'Avenir-Black'; font-size:57.6948px; text-decoration: underline;">Park</tspan></text>
</g>
</svg>
