<!-- Generator: Adobe Illustrator 23.0.0, SVG Export Plug-In  -->
<svg version="1.1" xmlns="http://www.w3.org/2000/svg" xmlns:xlink="http://www.w3.org/1999/xlink" x="0px" y="0px"
	 width="845.22px" height="1001.5px" viewBox="0 0 845.22 1001.5" style="enable-background:new 0 0 845.22 1001.5;"
	 xml:space="preserve">
<style type="text/css">
	.st0{opacity:0.57;fill:#FFFFFF;}
	.st1{fill:#DC8480;}
</style>
<defs>
</defs>
<g>
	<rect class="st0" width="845.22" height="770"/>
	<g>
		<path class="st1" d="M185.14,183.31c0,3.03-2.44,5.47-5.47,5.47s-5.47-2.44-5.47-5.47h-5.47l-9.11,1.82v14.58l9.11-1.82v21.87
			h21.87v-21.87l9.11,1.82v-14.58l-9.11-1.82H185.14z"/>
		<path class="st1" d="M127.61,161.72c0,7.18,5.83,13.01,13.01,13.01s13.01-5.83,13.01-13.01c0,7.18,5.83,13.01,13.01,13.01
			s13.01-5.83,13.01-13.01c0,7.18,5.83,13.01,13.01,13.01s13.01-5.83,13.01-13.01c0,7.18,5.83,13.01,13.01,13.01
			c7.18,0,13.01-5.83,13.01-13.01c0,5.41,3.32,10.05,8.02,12.02v69.17H119.58v-69.17C124.29,171.78,127.61,167.13,127.61,161.72
			L127.61,161.72z M257.77,161.72v-9.08l-18.9-36.05H120.53l-18.95,36.05v9.08c0,5.41,3.32,10.05,8.03,12.02v69.17l-8.03-0.01v10.77
			h156.18V242.9h-8.02v-69.17C254.44,171.78,257.77,167.13,257.77,161.72L257.77,161.72z"/>
	</g>
	<rect x="100.78" y="307.05" style="fill:none;" width="710.98" height="694.45"/>
	<text transform="matrix(1 0 0 1 100.7811 345.156)"><tspan x="0" y="0" style="fill:#333333; font-family:'Avenir-Roman'; font-size:50.4px;">Location:</tspan><tspan x="207.39" y="0" style="fill:#333333; font-family:'Avenir-Light'; font-size:50.4px;"> </tspan><tspan x="0" y="60.48" style="fill:#333333; font-family:'Avenir-Light'; font-size:50.4px;">Union Square, 80 Powell St</tspan><tspan x="0" y="181.44" style="fill:#333333; font-family:'Avenir-Roman'; font-size:50.4px;">Time on Transportation:</tspan><tspan x="0" y="241.92" style="fill:#333333; font-family:'Avenir-Light'; font-size:50.4px;">34 min - from CCA</tspan><tspan x="0" y="302.4" style="fill:#333333; font-family:'Avenir-Light'; font-size:50.4px;">13 min - from Home</tspan></text>
	<rect x="301.23" y="205.34" style="fill:none;" width="504.98" height="96.16"/>
	
		<text transform="matrix(1 0 0 1 301.2293 248.9531)" style="fill:#333333; font-family:'Avenir-Black'; font-size:57.6948px; text-decoration: underline;">Urban outfitters</text>
</g>
</svg>
