<!-- Generator: Adobe Illustrator 23.0.0, SVG Export Plug-In  -->
<svg version="1.1" xmlns="http://www.w3.org/2000/svg" xmlns:xlink="http://www.w3.org/1999/xlink" x="0px" y="0px"
	 width="3224.6px" height="1580.39px" viewBox="0 0 3224.6 1580.39" style="enable-background:new 0 0 3224.6 1580.39;"
	 xml:space="preserve">
<style type="text/css">
	.st0{opacity:0.3;}
	.st1{fill:none;stroke:#000000;stroke-width:1.5131;stroke-miterlimit:10;}
	.st2{opacity:0.3;fill:none;stroke:#000000;stroke-width:1.3716;stroke-miterlimit:10;}
</style>
<defs>
</defs>
<g class="st0">
	<line class="st1" x1="0" y1="797.5" x2="3224.6" y2="797.5"/>
</g>
<g class="st0">
	<line class="st1" x1="0" y1="819.5" x2="3224.6" y2="819.5"/>
</g>
<g class="st0">
	<line class="st1" x1="0" y1="863.5" x2="3224.6" y2="863.5"/>
</g>
<g class="st0">
	<line class="st1" x1="0" y1="841.5" x2="3224.6" y2="841.5"/>
</g>
<g class="st0">
	<line class="st1" x1="0" y1="885.5" x2="3224.6" y2="885.5"/>
</g>
<g class="st0">
	<line class="st1" x1="0" y1="907.5" x2="3224.6" y2="907.5"/>
</g>
<g class="st0">
	<line class="st1" x1="0" y1="929.5" x2="3224.6" y2="929.5"/>
</g>
<g class="st0">
	<line class="st1" x1="0" y1="973.5" x2="3224.6" y2="973.5"/>
</g>
<g class="st0">
	<line class="st1" x1="0" y1="995.5" x2="3224.6" y2="995.5"/>
</g>
<g class="st0">
	<line class="st1" x1="0" y1="1017.5" x2="3224.6" y2="1017.5"/>
</g>
<g class="st0">
	<line class="st1" x1="0" y1="1039.5" x2="3224.6" y2="1039.5"/>
</g>
<g class="st0">
	<line class="st1" x1="0" y1="951.5" x2="3224.6" y2="951.5"/>
</g>
<g class="st0">
	<line class="st1" x1="0" y1="1061.5" x2="3224.6" y2="1061.5"/>
</g>
<g class="st0">
	<line class="st1" x1="0" y1="1083.5" x2="3224.6" y2="1083.5"/>
</g>
<g class="st0">
	<line class="st1" x1="0" y1="1105.5" x2="3224.6" y2="1105.5"/>
</g>
<g class="st0">
	<line class="st1" x1="0" y1="1127.5" x2="3224.6" y2="1127.5"/>
</g>
<g class="st0">
	<line class="st1" x1="0" y1="1149.5" x2="3224.6" y2="1149.5"/>
</g>
<g class="st0">
	<line class="st1" x1="0" y1="1171.5" x2="3224.6" y2="1171.5"/>
</g>
<g class="st0">
	<line class="st1" x1="0" y1="1215.5" x2="3224.6" y2="1215.5"/>
</g>
<g class="st0">
	<line class="st1" x1="0" y1="1193.5" x2="3224.6" y2="1193.5"/>
</g>
<g class="st0">
	<line class="st1" x1="0" y1="1237.5" x2="3224.6" y2="1237.5"/>
</g>
<g class="st0">
	<line class="st1" x1="0" y1="1259.5" x2="3224.6" y2="1259.5"/>
</g>
<g class="st0">
	<line class="st1" x1="0" y1="1281.5" x2="3224.6" y2="1281.5"/>
</g>
<g class="st0">
	<line class="st1" x1="0" y1="1325.5" x2="3224.6" y2="1325.5"/>
</g>
<g class="st0">
	<line class="st1" x1="0" y1="1347.5" x2="3224.6" y2="1347.5"/>
</g>
<g class="st0">
	<line class="st1" x1="0" y1="1369.5" x2="3224.6" y2="1369.5"/>
</g>
<g class="st0">
	<line class="st1" x1="0" y1="1391.5" x2="3224.6" y2="1391.5"/>
</g>
<g class="st0">
	<line class="st1" x1="0" y1="1303.5" x2="3224.6" y2="1303.5"/>
</g>
<g class="st0">
	<line class="st1" x1="0" y1="1413.5" x2="3224.6" y2="1413.5"/>
</g>
<g class="st0">
	<line class="st1" x1="0" y1="1435.5" x2="3224.6" y2="1435.5"/>
</g>
<g class="st0">
	<line class="st1" x1="0" y1="1457.5" x2="3224.6" y2="1457.5"/>
</g>
<g class="st0">
	<line class="st1" x1="0" y1="1479.5" x2="3224.6" y2="1479.5"/>
</g>
<g class="st0">
	<line class="st1" x1="0" y1="1501.5" x2="3224.6" y2="1501.5"/>
</g>
<g class="st0">
	<line class="st1" x1="0" y1="1523.5" x2="3224.6" y2="1523.5"/>
</g>
<g class="st0">
	<line class="st1" x1="0" y1="1545.5" x2="3224.6" y2="1545.5"/>
</g>
<g class="st0">
	<line class="st1" x1="0" y1="27.5" x2="3224.6" y2="27.5"/>
</g>
<g class="st0">
	<line class="st1" x1="0" y1="49.5" x2="3224.6" y2="49.5"/>
</g>
<g class="st0">
	<line class="st1" x1="0" y1="93.5" x2="3224.6" y2="93.5"/>
</g>
<g class="st0">
	<line class="st1" x1="0" y1="71.5" x2="3224.6" y2="71.5"/>
</g>
<g class="st0">
	<line class="st1" x1="0" y1="115.5" x2="3224.6" y2="115.5"/>
</g>
<g class="st0">
	<line class="st1" x1="0" y1="137.5" x2="3224.6" y2="137.5"/>
</g>
<g class="st0">
	<line class="st1" x1="0" y1="159.5" x2="3224.6" y2="159.5"/>
</g>
<g class="st0">
	<line class="st1" x1="0" y1="203.5" x2="3224.6" y2="203.5"/>
</g>
<g class="st0">
	<line class="st1" x1="0" y1="225.5" x2="3224.6" y2="225.5"/>
</g>
<g class="st0">
	<line class="st1" x1="0" y1="247.5" x2="3224.6" y2="247.5"/>
</g>
<g class="st0">
	<line class="st1" x1="0" y1="269.5" x2="3224.6" y2="269.5"/>
</g>
<g class="st0">
	<line class="st1" x1="0" y1="181.5" x2="3224.6" y2="181.5"/>
</g>
<g class="st0">
	<line class="st1" x1="0" y1="291.5" x2="3224.6" y2="291.5"/>
</g>
<g class="st0">
	<line class="st1" x1="0" y1="313.5" x2="3224.6" y2="313.5"/>
</g>
<g class="st0">
	<line class="st1" x1="0" y1="335.5" x2="3224.6" y2="335.5"/>
</g>
<g class="st0">
	<line class="st1" x1="0" y1="357.5" x2="3224.6" y2="357.5"/>
</g>
<g class="st0">
	<line class="st1" x1="0" y1="379.5" x2="3224.6" y2="379.5"/>
</g>
<g class="st0">
	<line class="st1" x1="0" y1="401.5" x2="3224.6" y2="401.5"/>
</g>
<g class="st0">
	<line class="st1" x1="0" y1="445.5" x2="3224.6" y2="445.5"/>
</g>
<g class="st0">
	<line class="st1" x1="0" y1="423.5" x2="3224.6" y2="423.5"/>
</g>
<g class="st0">
	<line class="st1" x1="0" y1="467.5" x2="3224.6" y2="467.5"/>
</g>
<g class="st0">
	<line class="st1" x1="0" y1="489.5" x2="3224.6" y2="489.5"/>
</g>
<g class="st0">
	<line class="st1" x1="0" y1="511.5" x2="3224.6" y2="511.5"/>
</g>
<g class="st0">
	<line class="st1" x1="0" y1="555.5" x2="3224.6" y2="555.5"/>
</g>
<g class="st0">
	<line class="st1" x1="0" y1="577.5" x2="3224.6" y2="577.5"/>
</g>
<g class="st0">
	<line class="st1" x1="0" y1="599.5" x2="3224.6" y2="599.5"/>
</g>
<g class="st0">
	<line class="st1" x1="0" y1="621.5" x2="3224.6" y2="621.5"/>
</g>
<g class="st0">
	<line class="st1" x1="0" y1="533.5" x2="3224.6" y2="533.5"/>
</g>
<g class="st0">
	<line class="st1" x1="0" y1="643.5" x2="3224.6" y2="643.5"/>
</g>
<g class="st0">
	<line class="st1" x1="0" y1="665.5" x2="3224.6" y2="665.5"/>
</g>
<g class="st0">
	<line class="st1" x1="0" y1="687.5" x2="3224.6" y2="687.5"/>
</g>
<g class="st0">
	<line class="st1" x1="0" y1="709.5" x2="3224.6" y2="709.5"/>
</g>
<g class="st0">
	<line class="st1" x1="0" y1="731.5" x2="3224.6" y2="731.5"/>
</g>
<g class="st0">
	<line class="st1" x1="0" y1="753.5" x2="3224.6" y2="753.5"/>
</g>
<g class="st0">
	<line class="st1" x1="0" y1="775.5" x2="3224.6" y2="775.5"/>
</g>
<line class="st2" x1="26.1" y1="0" x2="26.1" y2="1580.39"/>
<line class="st2" x1="51.53" y1="0" x2="51.53" y2="1580.39"/>
<line class="st2" x1="76.96" y1="0" x2="76.96" y2="1580.39"/>
<line class="st2" x1="102.39" y1="0" x2="102.39" y2="1580.39"/>
<line class="st2" x1="153.25" y1="0" x2="153.25" y2="1580.39"/>
<line class="st2" x1="204.11" y1="0" x2="204.11" y2="1580.39"/>
<line class="st2" x1="229.54" y1="0" x2="229.54" y2="1580.39"/>
<line class="st2" x1="178.68" y1="0" x2="178.68" y2="1580.39"/>
<line class="st2" x1="127.82" y1="0" x2="127.82" y2="1580.39"/>
<line class="st2" x1="254.97" y1="0" x2="254.97" y2="1580.39"/>
<line class="st2" x1="280.4" y1="0" x2="280.4" y2="1580.39"/>
<line class="st2" x1="305.83" y1="0" x2="305.83" y2="1580.39"/>
<line class="st2" x1="331.26" y1="0" x2="331.26" y2="1580.39"/>
<line class="st2" x1="382.12" y1="0" x2="382.12" y2="1580.39"/>
<line class="st2" x1="432.98" y1="0" x2="432.98" y2="1580.39"/>
<line class="st2" x1="458.41" y1="0" x2="458.41" y2="1580.39"/>
<line class="st2" x1="407.55" y1="0" x2="407.55" y2="1580.39"/>
<line class="st2" x1="356.69" y1="0" x2="356.69" y2="1580.39"/>
<line class="st2" x1="483.84" y1="0" x2="483.84" y2="1580.39"/>
<line class="st2" x1="509.27" y1="0" x2="509.27" y2="1580.39"/>
<line class="st2" x1="534.7" y1="0" x2="534.7" y2="1580.39"/>
<line class="st2" x1="560.13" y1="0" x2="560.13" y2="1580.39"/>
<line class="st2" x1="610.99" y1="0" x2="610.99" y2="1580.39"/>
<line class="st2" x1="661.85" y1="0" x2="661.85" y2="1580.39"/>
<line class="st2" x1="687.28" y1="0" x2="687.28" y2="1580.39"/>
<line class="st2" x1="636.42" y1="0" x2="636.42" y2="1580.39"/>
<line class="st2" x1="585.56" y1="0" x2="585.56" y2="1580.39"/>
<line class="st2" x1="941.58" y1="0" x2="941.58" y2="1580.39"/>
<line class="st2" x1="967.01" y1="0" x2="967.01" y2="1580.39"/>
<line class="st2" x1="992.44" y1="0" x2="992.44" y2="1580.39"/>
<line class="st2" x1="1017.87" y1="0" x2="1017.87" y2="1580.39"/>
<line class="st2" x1="1068.73" y1="0" x2="1068.73" y2="1580.39"/>
<line class="st2" x1="1119.59" y1="0" x2="1119.59" y2="1580.39"/>
<line class="st2" x1="1145.02" y1="0" x2="1145.02" y2="1580.39"/>
<line class="st2" x1="1094.16" y1="0" x2="1094.16" y2="1580.39"/>
<line class="st2" x1="1043.3" y1="0" x2="1043.3" y2="1580.39"/>
<line class="st2" x1="712.71" y1="0" x2="712.71" y2="1580.39"/>
<line class="st2" x1="738.14" y1="0" x2="738.14" y2="1580.39"/>
<line class="st2" x1="763.57" y1="0" x2="763.57" y2="1580.39"/>
<line class="st2" x1="789" y1="0" x2="789" y2="1580.39"/>
<line class="st2" x1="839.86" y1="0" x2="839.86" y2="1580.39"/>
<line class="st2" x1="890.72" y1="0" x2="890.72" y2="1580.39"/>
<line class="st2" x1="916.15" y1="0" x2="916.15" y2="1580.39"/>
<line class="st2" x1="865.29" y1="0" x2="865.29" y2="1580.39"/>
<line class="st2" x1="814.43" y1="0" x2="814.43" y2="1580.39"/>
<line class="st2" x1="1170.45" y1="0" x2="1170.45" y2="1580.39"/>
<line class="st2" x1="1195.88" y1="0" x2="1195.88" y2="1580.39"/>
<line class="st2" x1="1221.31" y1="0" x2="1221.31" y2="1580.39"/>
<line class="st2" x1="1246.73" y1="0" x2="1246.73" y2="1580.39"/>
<line class="st2" x1="1297.59" y1="0" x2="1297.59" y2="1580.39"/>
<line class="st2" x1="1348.45" y1="0" x2="1348.45" y2="1580.39"/>
<line class="st2" x1="1373.88" y1="0" x2="1373.88" y2="1580.39"/>
<line class="st2" x1="1323.02" y1="0" x2="1323.02" y2="1580.39"/>
<line class="st2" x1="1272.16" y1="0" x2="1272.16" y2="1580.39"/>
<line class="st2" x1="1399.31" y1="0" x2="1399.31" y2="1580.39"/>
<line class="st2" x1="1424.74" y1="0" x2="1424.74" y2="1580.39"/>
<line class="st2" x1="1450.17" y1="0" x2="1450.17" y2="1580.39"/>
<line class="st2" x1="1475.6" y1="0" x2="1475.6" y2="1580.39"/>
<line class="st2" x1="1526.46" y1="0" x2="1526.46" y2="1580.39"/>
<line class="st2" x1="1577.32" y1="0" x2="1577.32" y2="1580.39"/>
<line class="st2" x1="1602.75" y1="0" x2="1602.75" y2="1580.39"/>
<line class="st2" x1="1551.89" y1="0" x2="1551.89" y2="1580.39"/>
<line class="st2" x1="1501.03" y1="0" x2="1501.03" y2="1580.39"/>
<line class="st2" x1="1628.18" y1="0" x2="1628.18" y2="1580.39"/>
<line class="st2" x1="1653.61" y1="0" x2="1653.61" y2="1580.39"/>
<line class="st2" x1="1679.04" y1="0" x2="1679.04" y2="1580.39"/>
<line class="st2" x1="1704.47" y1="0" x2="1704.47" y2="1580.39"/>
<line class="st2" x1="1755.33" y1="0" x2="1755.33" y2="1580.39"/>
<line class="st2" x1="1806.19" y1="0" x2="1806.19" y2="1580.39"/>
<line class="st2" x1="1831.62" y1="0" x2="1831.62" y2="1580.39"/>
<line class="st2" x1="1780.76" y1="0" x2="1780.76" y2="1580.39"/>
<line class="st2" x1="1729.9" y1="0" x2="1729.9" y2="1580.39"/>
<line class="st2" x1="1857.05" y1="0" x2="1857.05" y2="1580.39"/>
<line class="st2" x1="1882.48" y1="0" x2="1882.48" y2="1580.39"/>
<line class="st2" x1="1907.91" y1="0" x2="1907.91" y2="1580.39"/>
<line class="st2" x1="1933.34" y1="0" x2="1933.34" y2="1580.39"/>
<line class="st2" x1="1984.2" y1="0" x2="1984.2" y2="1580.39"/>
<line class="st2" x1="2035.06" y1="0" x2="2035.06" y2="1580.39"/>
<line class="st2" x1="2060.49" y1="0" x2="2060.49" y2="1580.39"/>
<line class="st2" x1="2009.63" y1="0" x2="2009.63" y2="1580.39"/>
<line class="st2" x1="1958.77" y1="0" x2="1958.77" y2="1580.39"/>
<line class="st2" x1="2314.79" y1="0" x2="2314.79" y2="1580.39"/>
<line class="st2" x1="2340.22" y1="0" x2="2340.22" y2="1580.39"/>
<line class="st2" x1="2365.65" y1="0" x2="2365.65" y2="1580.39"/>
<line class="st2" x1="2391.08" y1="0" x2="2391.08" y2="1580.39"/>
<line class="st2" x1="2441.94" y1="0" x2="2441.94" y2="1580.39"/>
<line class="st2" x1="2492.8" y1="0" x2="2492.8" y2="1580.39"/>
<line class="st2" x1="2518.23" y1="0" x2="2518.23" y2="1580.39"/>
<line class="st2" x1="2467.37" y1="0" x2="2467.37" y2="1580.39"/>
<line class="st2" x1="2416.51" y1="0" x2="2416.51" y2="1580.39"/>
<line class="st2" x1="2085.92" y1="0" x2="2085.92" y2="1580.39"/>
<line class="st2" x1="2111.35" y1="0" x2="2111.35" y2="1580.39"/>
<line class="st2" x1="2136.78" y1="0" x2="2136.78" y2="1580.39"/>
<line class="st2" x1="2162.21" y1="0" x2="2162.21" y2="1580.39"/>
<line class="st2" x1="2213.07" y1="0" x2="2213.07" y2="1580.39"/>
<line class="st2" x1="2263.93" y1="0" x2="2263.93" y2="1580.39"/>
<line class="st2" x1="2289.36" y1="0" x2="2289.36" y2="1580.39"/>
<line class="st2" x1="2238.5" y1="0" x2="2238.5" y2="1580.39"/>
<line class="st2" x1="2187.64" y1="0" x2="2187.64" y2="1580.39"/>
<line class="st2" x1="2543.66" y1="0" x2="2543.66" y2="1580.39"/>
<line class="st2" x1="2569.09" y1="0" x2="2569.09" y2="1580.39"/>
<line class="st2" x1="2594.52" y1="0" x2="2594.52" y2="1580.39"/>
<line class="st2" x1="2619.95" y1="0" x2="2619.95" y2="1580.39"/>
<line class="st2" x1="2670.81" y1="0" x2="2670.81" y2="1580.39"/>
<line class="st2" x1="2721.67" y1="0" x2="2721.67" y2="1580.39"/>
<line class="st2" x1="2747.1" y1="0" x2="2747.1" y2="1580.39"/>
<line class="st2" x1="2696.24" y1="0" x2="2696.24" y2="1580.39"/>
<line class="st2" x1="2645.38" y1="0" x2="2645.38" y2="1580.39"/>
</svg>
