<!-- Generator: Adobe Illustrator 23.0.0, SVG Export Plug-In  -->
<svg version="1.1" xmlns="http://www.w3.org/2000/svg" xmlns:xlink="http://www.w3.org/1999/xlink" x="0px" y="0px"
	 width="845.22px" height="993.4px" viewBox="0 0 845.22 993.4" style="enable-background:new 0 0 845.22 993.4;"
	 xml:space="preserve">
<style type="text/css">
	.st0{opacity:0.57;fill:#FFFFFF;}
	.st1{fill:#C4742F;}
</style>
<defs>
</defs>
<g>
	<rect class="st0" width="845.22" height="770"/>
	<path class="st1" d="M225.78,172.77c0,0,23.1-10.75,51.35,4.74l4.33,7.29C281.46,184.8,254.5,167.45,225.78,172.77z M251.45,199.79
		l-0.41,0.33c-1.5,1.62-4.23,2.44-8.12,2.44c-10.82,0-26.14-6.46-26.26-6.51c-8.86-3.97-32.44-9.6-33.48-9.84
		c-18.23-3.76-40.28-5.9-42.28-6.09c-7.1-1.86-8.49-9.42-8.54-9.78c-2.01-10.74-0.96-20.37-0.35-24.36c5.93-0.91,13.56-1.47,23-0.92
		c0,0,30.43,1,66.19,30.72c0,0,15.83,13.25,34.43,17.78C253.34,198.45,251.47,199.78,251.45,199.79L251.45,199.79z M142.94,116.68
		c0,0,8.51-3.83,9.34-3.87c0,0-17.14,8.34-26.63,30.65C125.65,143.46,128.13,126.25,142.94,116.68L142.94,116.68z M174.38,108.02
		l10.48,0.91c0,0-24.83,0.46-44.6,31.29C140.26,140.23,149.77,111.9,174.38,108.02z M200.58,111.67l9.8,2.73
		c0,0-32.27-3.65-52.27,26.05C158.11,140.45,164.58,114.18,200.58,111.67z M226.78,121.69l7.75,4.56c0,0-31.9-10.94-57.02,17.42
		C177.5,143.67,191.24,115.54,226.78,121.69L226.78,121.69z M255.94,142.88c0,0-26.78-14.32-59.19,6.8c0,0,17.04-21.84,52.35-12.72
		L255.94,142.88z M266.88,157.01l5.92,8.2c0,0-23.06-20.66-59.9-4.9C212.9,160.31,234.98,140.83,266.88,157.01z M279.91,173.99
		c0,0-17.17-48.21-76.77-64.2c0,0-57.56-19.72-89.24,32.86c0,0-6.74,10.09,2.61,7.67c0,0,3.85-2.07,11.7-3.67
		c-0.65,4.76-1.39,13.97,0.56,24.32c0.07,0.42,1.82,10.32,11.38,12.71l0.27,0.04c0.23,0.02,23.21,2.16,41.97,6.04
		c0.24,0.06,24.24,5.78,32.82,9.63c0.66,0.28,16.14,6.81,27.72,6.81c4.82,0,8.39-1.15,10.62-3.44c0.86-0.61,3.23-2.68,5.77-8.42
		c6.49,1.13,13.19,1.08,19.6-1.08c0,0,7.16-1.75,10.49-1.92C289.42,191.36,284.04,184.1,279.91,173.99L279.91,173.99z"/>
	<rect x="108" y="298.95" style="fill:none;" width="710.98" height="694.45"/>
	<text transform="matrix(1 0 0 1 108.0042 337.056)"><tspan x="0" y="0" style="fill:#333333; font-family:'Avenir-Roman'; font-size:50.4px;">Location:</tspan><tspan x="207.39" y="0" style="fill:#333333; font-family:'Avenir-Light'; font-size:50.4px;"> </tspan><tspan x="0" y="60.48" style="fill:#333333; font-family:'Avenir-Light'; font-size:50.4px;">219 O&apos;Farrell St</tspan><tspan x="0" y="181.44" style="fill:#333333; font-family:'Avenir-Roman'; font-size:50.4px;">Time on Transportation:</tspan><tspan x="0" y="241.92" style="fill:#333333; font-family:'Avenir-Light'; font-size:50.4px;">25 min - from CCA</tspan><tspan x="0" y="302.4" style="fill:#333333; font-family:'Avenir-Light'; font-size:50.4px;">5 min - from Home</tspan></text>
	<rect x="303.23" y="160.4" style="fill:none;" width="494.98" height="131"/>
	
		<text transform="matrix(1 0 0 1 303.2293 204.0172)" style="fill:#333333; font-family:'Avenir-Black'; font-size:57.6948px; text-decoration: underline;">Dojima Ann</text>
</g>
</svg>
