<!-- Generator: Adobe Illustrator 23.0.0, SVG Export Plug-In  -->
<svg version="1.1" xmlns="http://www.w3.org/2000/svg" xmlns:xlink="http://www.w3.org/1999/xlink" x="0px" y="0px"
	 width="845.22px" height="1006.82px" viewBox="0 0 845.22 1006.82" style="enable-background:new 0 0 845.22 1006.82;"
	 xml:space="preserve">
<style type="text/css">
	.st0{opacity:0.57;fill:#FFFFFF;}
	.st1{fill:#225E54;}
</style>
<defs>
</defs>
<g>
	<rect class="st0" width="845.22" height="770"/>
	<g>
		<path class="st1" d="M245.62,199.42v-39.49c0-1.67,1.36-3.04,3.04-3.04c1.68,0,3.04,1.37,3.04,3.04v39.49H245.62z M272.96,223.72
			h-48.61v-6.07h48.61V223.72z M279.04,254.1h-6.07v-12.15h6.07V254.1z M251.7,254.1h-6.07v-12.15h6.07V254.1z M224.36,254.1h-6.07
			v-12.15h6.07V254.1z M282.07,105.25h-0.27c-1.45-8.61-8.94-15.19-17.96-15.19c-4.67,0-8.92,1.78-12.15,4.68l0.01-13.79
			c0-1.68-1.36-3.04-3.04-3.04c-1.68,0-3.04,1.36-3.04,3.04v70.43c-3.53,1.26-6.07,4.6-6.07,8.55v39.49h-15.19v-9.11
			c0-1.68-1.36-3.04-3.04-3.04c-1.68,0-3.04,1.36-3.04,3.04v9.11h-9.11c-1.68,0-3.04,1.36-3.04,3.04v12.15
			c0,1.68,1.36,3.04,3.04,3.04h9.11v6.07h-9.11c-1.68,0-3.04,1.36-3.04,3.04v12.15c0,1.68,1.36,3.04,3.04,3.04h3.04v15.19
			c0,1.68,1.36,3.04,3.04,3.04h12.15c1.68,0,3.04-1.36,3.04-3.04v-15.19h9.11v15.19c0,1.68,1.36,3.04,3.04,3.04h12.15
			c1.68,0,3.04-1.36,3.04-3.04v-15.19h9.11v15.19c0,1.68,1.36,3.04,3.04,3.04h12.15c1.68,0,3.04-1.36,3.04-3.04v-15.19h3.04
			c1.68,0,3.04-1.36,3.04-3.04v-12.15c0-1.68-1.36-3.04-3.04-3.04h-9.11v-6.07h9.11c1.68,0,3.04-1.36,3.04-3.04v-12.15
			c0-1.68-1.36-3.04-3.04-3.04h-9.11v-9.11c0-1.68-1.36-3.04-3.04-3.04s-3.04,1.36-3.04,3.04v9.11H257.8l-0.02-39.49
			c0-3.96-2.55-7.3-6.07-8.55v-43.09c0-6.7,5.45-12.15,12.15-12.15c5.66,0,10.39,3.91,11.73,9.16c-8.18,0.23-14.77,6.91-14.77,15.14
			c0,1.68,1.36,3.04,3.04,3.04h6.07v6.07c0,5.03,4.09,9.11,9.11,9.11c5.03,0,9.11-4.09,9.11-9.11v-6.07h6.07
			c1.68,0,3.04-1.36,3.04-3.04C297.27,112.07,290.45,105.25,282.07,105.25L282.07,105.25z"/>
		<path class="st1" d="M137.15,186.38c-1.19-1.19-1.19-3.1,0-4.29c1.18-1.19,3.11-1.19,4.29,0l0.89,0.89v-18.75l-5.18-5.18
			c-1.19-1.19-1.19-3.1,0-4.29c1.18-1.19,3.11-1.19,4.29,0l0.89,0.89l0.01-13.94c0-1.68,1.36-3.04,3.04-3.04
			c1.68,0,3.04,1.36,3.04,3.04v26.08l0.89-0.89c1.18-1.19,3.11-1.19,4.29,0c1.19,1.19,1.19,3.1,0,4.29l-5.18,5.18v18.75l0.89-0.89
			c1.18-1.19,3.11-1.19,4.29,0c1.19,1.19,1.19,3.1,0,4.29l-5.18,5.18l-0.01,7.87h-6.07v-20.01L137.15,186.38z M167.53,182.09
			c1.18-1.19,3.11-1.19,4.29,0l0.89,0.89v-10.89c0-1.68,1.36-3.04,3.04-3.04c1.68,0,3.04,1.36,3.04,3.04v23.05l0.89-0.89
			c1.18-1.19,3.11-1.19,4.29,0c1.19,1.19,1.19,3.1,0,4.29l-5.18,5.18v7.85h-6.07v-20.01l-5.18-5.18
			C166.34,185.19,166.34,183.28,167.53,182.09L167.53,182.09z M169.68,235.88c-6.44,0-11.43,2.93-14.57,8.53
			c-0.3-0.04-0.6-0.06-0.89-0.06c-1.57,0-2.97,0.24-4.24,0.62c-0.5-0.16-1.02-0.3-1.56-0.41v-27.19c5.08-0.85,9.42-3.85,12.15-8
			c2.73,4.14,7.06,7.13,12.15,8v18.77C171.74,235.98,170.74,235.88,169.68,235.88L169.68,235.88z M185.15,244.35
			c-0.3,0-0.59,0.02-0.89,0.06c-1.44-2.56-3.28-4.54-5.46-5.96v-21.07c8.61-1.45,15.19-8.94,15.19-17.96v-39.49
			c0-10.05-8.17-18.23-18.23-18.23c-4.67,0-8.92,1.78-12.15,4.68v-16.83c0-10.05-8.17-18.23-18.23-18.23s-18.23,8.17-18.23,18.23
			v69.87c0,9.01,6.59,16.5,15.19,17.96v23.67c-3.05-3.38-7.16-5.16-12.15-5.16c-4.7,0-8.38,1.57-11.26,4.82
			c-2.53,2.85-3.93,6.79-3.93,11.05v5.39c0,1.68,1.36,3.04,3.04,3.04h75.95c1.68,0,3.04-1.36,3.04-3.04
			C197.02,248.89,192.8,244.35,185.15,244.35L185.15,244.35z"/>
		<path class="st1" d="M209.17,99.18c0-7.11-6.27-12.84-13.39-12.08c-2.36-5.47-7.8-9.18-13.95-9.18c-6.14,0-11.59,3.72-13.95,9.18
			c-7.11-0.75-13.39,4.98-13.39,12.09c0,6.7,5.45,12.15,12.15,12.15h30.38C203.72,111.33,209.17,105.88,209.17,99.18L209.17,99.18z"
			/>
		<path class="st1" d="M209.17,138.66c0,1.68,1.36,3.04,3.04,3.04c1.68,0,3.04-1.36,3.04-3.04c0-6.7,5.45-12.15,12.15-12.15
			c1.68,0,3.04-1.36,3.04-3.04c0-1.68-1.36-3.04-3.04-3.04c-6.86,0-12.84,3.8-15.95,9.41c-2.19-2.06-5.13-3.32-8.36-3.32
			c-1.68,0-3.04,1.36-3.04,3.04c0,1.68,1.36,3.04,3.04,3.04C206.44,132.59,209.17,135.32,209.17,138.66L209.17,138.66z"/>
	</g>
	
		<rect x="123.27" y="302.29" transform="matrix(5.143101e-03 -1 1 5.143101e-03 -189.694 1124.8815)" style="fill:none;" width="694.45" height="710.98"/>
	<text transform="matrix(1 0 0 1 116.7752 346.8323)"><tspan x="0" y="0" style="fill:#333333; font-family:'Avenir-Roman'; font-size:50.4px;">Location:</tspan><tspan x="207.39" y="0" style="fill:#333333; font-family:'Avenir-Light'; font-size:50.4px;"> </tspan><tspan x="-0.31" y="60.48" style="fill:#333333; font-family:'Avenir-Light'; font-size:50.4px;">50 Moraga Ave</tspan><tspan x="-0.93" y="181.44" style="fill:#333333; font-family:'Avenir-Roman'; font-size:50.4px;">Time on Transportation:</tspan><tspan x="-1.24" y="241.92" style="fill:#333333; font-family:'Avenir-Light'; font-size:50.4px;">1 hr 4 min - from CCA</tspan><tspan x="-1.56" y="302.4" style="fill:#333333; font-family:'Avenir-Light'; font-size:50.4px;">48 min - from Home</tspan></text>
	<rect x="325.23" y="213.78" style="fill:none;" width="494.98" height="62.22"/>
	
		<text transform="matrix(1 0 0 1 325.2293 257.3994)" style="fill:#333333; font-family:'Avenir-Black'; font-size:57.6948px; text-decoration: underline;">Presidio</text>
</g>
</svg>
